M48
;Layer_Color=9474304
;FILE_FORMAT=2:3
INCH,LZ
;TYPE=PLATED
T1F00S00C0.028
T2F00S00C0.033
T3F00S00C0.035
T4F00S00C0.036
T5F00S00C0.041
T6F00S00C0.043
;TYPE=NON_PLATED
T7F00S00C0.134
%
T01
X023Y025
X0247
Y028
X023
T02
X0332Y02045
Y0213
X034Y01985
X037
X03805Y02275
X03835Y02395
X0384Y02515
X0354
X03535Y02395
X03505Y02275
X0361Y02615
X03415Y0271
X0331Y02615
X03115Y0271
X0299Y0265
Y0235
X0285Y0232
X02905Y02235
X0302Y0213
Y02045
X0265Y0202
X02605Y02235
X0255Y0232
X0235Y0202
T03
X0321Y02215
X0331
X0341
Y02515
X0331
X0321
X03175Y0287
X03275
X03375
X03475
X0374Y0284
Y0294
Y0304
Y0274
X03075Y0287
X02975
X02875
X0311Y02515
Y02215
X02217Y02975
X02115
X02013
X02015Y03175
Y03275
X02765Y03405
X02865
X02965
X03065
X03075Y0317
X02975
X02875
X03175
X03275
X03375
X03475
T04
X0235Y0301
Y0311
X0265
Y0301
Y0321
Y0331
Y0341
Y0351
Y0361
X0235
Y0351
Y0341
Y0331
Y0321
T05
X0218Y03172
Y03548
T06
X02255Y0219
X02355
X02455
X02645Y0256
Y0266
Y0276
T07
X03753Y0212
X03925Y02735
X02073Y028
X0207Y0238
M30
