G04*
G04 #@! TF.GenerationSoftware,Altium Limited,Altium Designer,19.1.8 (144)*
G04*
G04 Layer_Physical_Order=1*
G04 Layer_Color=255*
%FSLAX23Y23*%
%MOIN*%
G70*
G01*
G75*
%ADD13C,0.010*%
%ADD26C,0.056*%
%ADD27R,0.056X0.056*%
%ADD32C,0.060*%
%ADD33C,0.055*%
%ADD34C,0.061*%
%ADD35C,0.059*%
%ADD36R,0.059X0.059*%
%ADD37C,0.047*%
%ADD38R,0.055X0.055*%
%ADD39R,0.059X0.059*%
%ADD40C,0.067*%
%ADD41R,0.067X0.067*%
%ADD42R,0.067X0.067*%
G36*
X2005Y3013D02*
X1980D01*
Y3135D01*
X2005D01*
Y3013D01*
D02*
G37*
G36*
X2720Y3630D02*
Y3525D01*
X2767Y3477D01*
X3100D01*
X3233Y3345D01*
X3605Y3345D01*
X3975Y2975D01*
X3975Y2799D01*
X3970Y2797D01*
X3968Y2799D01*
X3955Y2806D01*
X3940Y2811D01*
X3925Y2812D01*
X3910Y2811D01*
X3895Y2806D01*
X3882Y2799D01*
X3870Y2790D01*
X3861Y2778D01*
X3854Y2765D01*
X3849Y2750D01*
X3848Y2735D01*
X3849Y2720D01*
X3854Y2705D01*
X3861Y2692D01*
X3870Y2680D01*
X3882Y2671D01*
X3895Y2664D01*
X3910Y2659D01*
X3925Y2658D01*
X3940Y2659D01*
X3955Y2664D01*
X3968Y2671D01*
X3970Y2673D01*
X3975Y2671D01*
X3975Y2195D01*
X3730Y1950D01*
X3724D01*
X3723Y1955D01*
X3727Y1958D01*
X3733Y1966D01*
X3737Y1975D01*
X3737Y1980D01*
X3700D01*
X3663D01*
X3663Y1975D01*
X3667Y1966D01*
X3673Y1958D01*
X3677Y1955D01*
X3676Y1950D01*
X3424D01*
X3423Y1955D01*
X3427Y1958D01*
X3433Y1966D01*
X3437Y1975D01*
X3438Y1985D01*
X3437Y1995D01*
X3433Y2004D01*
X3427Y2012D01*
X3419Y2018D01*
X3415Y2019D01*
Y2050D01*
X3414Y2056D01*
X3411Y2061D01*
X3355Y2117D01*
X3357Y2120D01*
X3358Y2130D01*
X3357Y2140D01*
X3353Y2149D01*
X3347Y2157D01*
X3339Y2163D01*
X3335Y2164D01*
Y2185D01*
X3338Y2187D01*
X3345Y2195D01*
X3349Y2205D01*
X3350Y2215D01*
X3349Y2225D01*
X3345Y2235D01*
X3338Y2243D01*
X3330Y2250D01*
X3320Y2254D01*
X3310Y2255D01*
X3300Y2254D01*
X3290Y2250D01*
X3282Y2243D01*
X3275Y2235D01*
X3271Y2225D01*
X3270Y2215D01*
X3271Y2205D01*
X3275Y2195D01*
X3282Y2187D01*
X3290Y2180D01*
X3300Y2176D01*
X3305Y2176D01*
Y2164D01*
X3301Y2163D01*
X3293Y2157D01*
X3287Y2149D01*
X3283Y2140D01*
X3282Y2130D01*
X3283Y2120D01*
X3287Y2111D01*
X3293Y2103D01*
X3301Y2097D01*
X3310Y2093D01*
X3320Y2092D01*
X3330Y2093D01*
X3333Y2095D01*
X3385Y2044D01*
Y2019D01*
X3381Y2018D01*
X3373Y2012D01*
X3367Y2004D01*
X3363Y1995D01*
X3362Y1985D01*
X3363Y1975D01*
X3367Y1966D01*
X3373Y1958D01*
X3377Y1955D01*
X3376Y1950D01*
X2683Y1950D01*
X2681Y1955D01*
X2841Y2115D01*
X2986D01*
X2987Y2111D01*
X2993Y2103D01*
X3001Y2097D01*
X3010Y2093D01*
X3020Y2092D01*
X3030Y2093D01*
X3039Y2097D01*
X3047Y2103D01*
X3053Y2111D01*
X3057Y2120D01*
X3058Y2130D01*
X3057Y2140D01*
X3053Y2149D01*
X3047Y2157D01*
X3039Y2163D01*
X3030Y2167D01*
X3020Y2168D01*
X3010Y2167D01*
X3001Y2163D01*
X2993Y2157D01*
X2987Y2149D01*
X2986Y2145D01*
X2835D01*
X2829Y2144D01*
X2824Y2141D01*
X2691Y2008D01*
X2687Y2010D01*
X2687Y2010D01*
X2688Y2020D01*
X2687Y2030D01*
X2683Y2039D01*
X2677Y2047D01*
X2670Y2052D01*
Y2175D01*
X2669Y2181D01*
X2666Y2186D01*
X2637Y2215D01*
X2638Y2216D01*
X2642Y2225D01*
X2643Y2235D01*
X2642Y2245D01*
X2638Y2254D01*
X2632Y2262D01*
X2624Y2268D01*
X2615Y2272D01*
X2605Y2273D01*
X2595Y2272D01*
X2586Y2268D01*
X2578Y2262D01*
X2573Y2255D01*
X2505D01*
X2499Y2254D01*
X2494Y2251D01*
X2477Y2233D01*
X2412D01*
Y2147D01*
X2498D01*
Y2212D01*
X2511Y2225D01*
X2569D01*
X2572Y2216D01*
X2578Y2208D01*
X2586Y2202D01*
X2595Y2198D01*
X2605Y2197D01*
X2611Y2198D01*
X2640Y2169D01*
Y2056D01*
X2631Y2053D01*
X2623Y2047D01*
X2617Y2039D01*
X2613Y2030D01*
X2612Y2020D01*
X2613Y2010D01*
X2617Y2001D01*
X2623Y1993D01*
X2631Y1987D01*
X2640Y1983D01*
X2650Y1982D01*
X2660Y1983D01*
X2660Y1983D01*
X2662Y1979D01*
X2654Y1970D01*
X2331D01*
X2270Y2031D01*
Y2149D01*
X2277Y2152D01*
X2286Y2159D01*
X2293Y2168D01*
X2297Y2179D01*
X2299Y2190D01*
X2297Y2201D01*
X2293Y2212D01*
X2286Y2221D01*
X2277Y2228D01*
X2266Y2232D01*
X2255Y2234D01*
X2244Y2232D01*
X2241Y2231D01*
X2215Y2256D01*
Y2494D01*
X2281Y2560D01*
X2389D01*
X2438Y2510D01*
X2437Y2509D01*
X2436Y2500D01*
X2437Y2491D01*
X2441Y2483D01*
X2446Y2476D01*
X2453Y2471D01*
X2461Y2467D01*
X2470Y2466D01*
X2479Y2467D01*
X2487Y2471D01*
X2494Y2476D01*
X2499Y2483D01*
X2503Y2491D01*
X2504Y2500D01*
X2503Y2509D01*
X2499Y2517D01*
X2494Y2524D01*
X2487Y2529D01*
X2480Y2532D01*
Y2574D01*
X2623Y2717D01*
X2688D01*
Y2760D01*
X2980D01*
X2986Y2761D01*
X2991Y2764D01*
X3060Y2833D01*
X3065Y2831D01*
X3075Y2830D01*
X3085Y2831D01*
X3095Y2835D01*
X3100Y2839D01*
X3103Y2842D01*
X3106Y2838D01*
X3019Y2750D01*
X2905D01*
X2899Y2749D01*
X2894Y2746D01*
X2690Y2541D01*
X2686Y2544D01*
X2687Y2549D01*
X2689Y2560D01*
X2687Y2571D01*
X2683Y2582D01*
X2676Y2591D01*
X2667Y2598D01*
X2656Y2602D01*
X2645Y2604D01*
X2634Y2602D01*
X2623Y2598D01*
X2614Y2591D01*
X2607Y2582D01*
X2603Y2571D01*
X2601Y2560D01*
X2603Y2549D01*
X2607Y2538D01*
X2614Y2529D01*
X2623Y2522D01*
X2634Y2518D01*
X2645Y2516D01*
X2656Y2518D01*
X2661Y2519D01*
X2664Y2515D01*
X2659Y2510D01*
X2580D01*
X2574Y2509D01*
X2569Y2506D01*
X2355Y2292D01*
X2315Y2331D01*
Y2470D01*
X2317Y2471D01*
X2324Y2476D01*
X2329Y2483D01*
X2333Y2491D01*
X2334Y2500D01*
X2333Y2509D01*
X2329Y2517D01*
X2324Y2524D01*
X2317Y2529D01*
X2309Y2533D01*
X2300Y2534D01*
X2291Y2533D01*
X2283Y2529D01*
X2276Y2524D01*
X2271Y2517D01*
X2267Y2509D01*
X2266Y2500D01*
X2267Y2491D01*
X2271Y2483D01*
X2276Y2476D01*
X2283Y2471D01*
X2285Y2470D01*
Y2325D01*
X2286Y2319D01*
X2289Y2314D01*
X2340Y2264D01*
Y2231D01*
X2333Y2228D01*
X2324Y2221D01*
X2317Y2212D01*
X2313Y2201D01*
X2311Y2190D01*
X2313Y2179D01*
X2317Y2168D01*
X2324Y2159D01*
X2333Y2152D01*
X2340Y2149D01*
Y2056D01*
X2331Y2053D01*
X2323Y2047D01*
X2317Y2039D01*
X2313Y2030D01*
X2312Y2020D01*
X2313Y2010D01*
X2317Y2001D01*
X2323Y1993D01*
X2331Y1987D01*
X2340Y1983D01*
X2350Y1982D01*
X2360Y1983D01*
X2369Y1987D01*
X2377Y1993D01*
X2383Y2001D01*
X2387Y2010D01*
X2388Y2020D01*
X2387Y2030D01*
X2383Y2039D01*
X2377Y2047D01*
X2370Y2052D01*
Y2149D01*
X2377Y2152D01*
X2386Y2159D01*
X2393Y2168D01*
X2397Y2179D01*
X2399Y2190D01*
X2397Y2201D01*
X2393Y2212D01*
X2386Y2221D01*
X2377Y2228D01*
X2370Y2231D01*
Y2264D01*
X2586Y2480D01*
X2665D01*
X2671Y2481D01*
X2676Y2484D01*
X2770Y2578D01*
X2775Y2577D01*
Y2450D01*
X2776Y2444D01*
X2779Y2439D01*
X2856Y2362D01*
X2854Y2357D01*
X2850Y2358D01*
X2840Y2357D01*
X2831Y2353D01*
X2823Y2347D01*
X2817Y2339D01*
X2813Y2330D01*
X2812Y2320D01*
X2813Y2310D01*
X2817Y2301D01*
X2823Y2293D01*
X2831Y2287D01*
X2840Y2283D01*
X2850Y2282D01*
X2860Y2283D01*
X2869Y2287D01*
X2876Y2293D01*
X2892Y2276D01*
X2891Y2270D01*
X2886Y2268D01*
X2878Y2262D01*
X2872Y2254D01*
X2868Y2245D01*
X2867Y2235D01*
X2868Y2225D01*
X2872Y2216D01*
X2878Y2208D01*
X2886Y2202D01*
X2895Y2198D01*
X2905Y2197D01*
X2915Y2198D01*
X2924Y2202D01*
X2932Y2208D01*
X2938Y2216D01*
X2942Y2225D01*
X2943Y2235D01*
X2942Y2245D01*
X2938Y2254D01*
X2932Y2262D01*
X2925Y2267D01*
Y2280D01*
X2924Y2286D01*
X2921Y2290D01*
X2925Y2293D01*
X3014Y2204D01*
X3019Y2201D01*
X3025Y2200D01*
X3070D01*
Y2175D01*
X3095D01*
Y2131D01*
X3040Y2077D01*
X3039Y2078D01*
X3030Y2082D01*
X3020Y2083D01*
X3010Y2082D01*
X3001Y2078D01*
X2993Y2072D01*
X2987Y2064D01*
X2983Y2055D01*
X2982Y2045D01*
X2983Y2035D01*
X2987Y2026D01*
X2993Y2018D01*
X3001Y2012D01*
X3010Y2008D01*
X3020Y2007D01*
X3030Y2008D01*
X3039Y2012D01*
X3047Y2018D01*
X3053Y2026D01*
X3057Y2035D01*
X3058Y2045D01*
X3057Y2051D01*
X3121Y2114D01*
X3124Y2119D01*
X3125Y2125D01*
Y2175D01*
X3150D01*
Y2255D01*
X3070D01*
Y2230D01*
X3031D01*
X2805Y2456D01*
Y2584D01*
X2921Y2700D01*
X3035D01*
X3041Y2701D01*
X3046Y2704D01*
X3141Y2800D01*
X3220D01*
X3226Y2801D01*
X3231Y2804D01*
X3260Y2833D01*
X3265Y2831D01*
X3275Y2830D01*
X3285Y2831D01*
X3295Y2835D01*
X3303Y2842D01*
X3310Y2850D01*
X3314Y2860D01*
X3315Y2870D01*
X3314Y2880D01*
X3310Y2890D01*
X3303Y2898D01*
X3295Y2905D01*
X3285Y2909D01*
X3276Y2910D01*
X3277Y2915D01*
X3309D01*
X3338Y2885D01*
X3336Y2880D01*
X3335Y2870D01*
X3336Y2860D01*
X3340Y2850D01*
X3347Y2842D01*
X3355Y2835D01*
X3365Y2831D01*
X3375Y2830D01*
X3385Y2831D01*
X3395Y2835D01*
X3403Y2842D01*
X3410Y2850D01*
X3414Y2860D01*
X3415Y2870D01*
X3414Y2880D01*
X3410Y2890D01*
X3403Y2898D01*
X3395Y2905D01*
X3390Y2906D01*
Y3064D01*
X3460Y3133D01*
X3465Y3131D01*
X3475Y3130D01*
X3485Y3131D01*
X3495Y3135D01*
X3503Y3142D01*
X3510Y3150D01*
X3514Y3160D01*
X3515Y3170D01*
X3514Y3180D01*
X3510Y3190D01*
X3503Y3198D01*
X3495Y3205D01*
X3485Y3209D01*
X3475Y3210D01*
X3465Y3209D01*
X3455Y3205D01*
X3447Y3198D01*
X3440Y3190D01*
X3436Y3180D01*
X3435Y3170D01*
X3436Y3160D01*
X3438Y3155D01*
X3364Y3081D01*
X3361Y3076D01*
X3360Y3070D01*
Y2913D01*
X3355Y2912D01*
X3326Y2941D01*
X3321Y2944D01*
X3315Y2945D01*
X3235D01*
X3229Y2944D01*
X3224Y2941D01*
X3190Y2907D01*
X3185Y2909D01*
X3175Y2910D01*
X3165Y2909D01*
X3155Y2905D01*
X3147Y2898D01*
X3140Y2890D01*
X3136Y2880D01*
X3135Y2870D01*
X3136Y2867D01*
X3107Y2839D01*
X3103Y2842D01*
X3106Y2845D01*
X3110Y2850D01*
X3114Y2860D01*
X3115Y2870D01*
X3114Y2880D01*
X3110Y2890D01*
X3103Y2898D01*
X3095Y2905D01*
X3090Y2906D01*
Y2939D01*
X3241Y3090D01*
X3245Y3095D01*
X3246Y3100D01*
Y3136D01*
X3251Y3139D01*
X3255Y3135D01*
X3265Y3131D01*
X3275Y3130D01*
X3285Y3131D01*
X3295Y3135D01*
X3303Y3142D01*
X3310Y3150D01*
X3314Y3160D01*
X3315Y3170D01*
X3314Y3180D01*
X3310Y3190D01*
X3303Y3198D01*
X3295Y3205D01*
X3285Y3209D01*
X3275Y3210D01*
X3273Y3210D01*
X3271Y3214D01*
X3341Y3285D01*
X3574D01*
X3800Y3059D01*
Y2786D01*
X3777Y2763D01*
X3772Y2764D01*
X3768Y2768D01*
X3760Y2775D01*
X3750Y2779D01*
X3740Y2780D01*
X3730Y2779D01*
X3720Y2775D01*
X3712Y2768D01*
X3706Y2760D01*
X3702Y2750D01*
X3700Y2740D01*
X3702Y2730D01*
X3706Y2720D01*
X3712Y2712D01*
X3720Y2705D01*
X3730Y2701D01*
X3740Y2700D01*
X3750Y2701D01*
X3751Y2702D01*
X3890Y2564D01*
Y2376D01*
X3854Y2340D01*
X3306D01*
X3147Y2500D01*
X3149Y2505D01*
X3150Y2515D01*
X3149Y2525D01*
X3145Y2535D01*
X3138Y2543D01*
X3130Y2550D01*
X3120Y2554D01*
X3110Y2555D01*
X3100Y2554D01*
X3095Y2552D01*
X3075Y2571D01*
Y2620D01*
X3074Y2626D01*
X3071Y2631D01*
X3041Y2661D01*
X3036Y2664D01*
X3030Y2665D01*
X3024D01*
X3023Y2669D01*
X3017Y2677D01*
X3009Y2683D01*
X3000Y2687D01*
X2990Y2688D01*
X2980Y2687D01*
X2971Y2683D01*
X2963Y2677D01*
X2957Y2669D01*
X2953Y2660D01*
X2952Y2650D01*
X2953Y2640D01*
X2957Y2631D01*
X2963Y2623D01*
X2971Y2617D01*
X2980Y2613D01*
X2990Y2612D01*
X3000Y2613D01*
X3009Y2617D01*
X3017Y2623D01*
X3022Y2630D01*
X3028Y2631D01*
X3045Y2614D01*
Y2565D01*
X3046Y2559D01*
X3049Y2554D01*
X3073Y2530D01*
X3071Y2525D01*
X3070Y2515D01*
X3071Y2505D01*
X3075Y2495D01*
X3082Y2487D01*
X3090Y2480D01*
X3100Y2476D01*
X3110Y2475D01*
X3120Y2476D01*
X3125Y2478D01*
X3289Y2314D01*
X3294Y2311D01*
X3300Y2310D01*
X3480D01*
X3482Y2305D01*
X3478Y2302D01*
X3473Y2295D01*
X3275D01*
X3269Y2294D01*
X3264Y2291D01*
X3225Y2252D01*
X3220Y2254D01*
X3210Y2255D01*
X3200Y2254D01*
X3190Y2250D01*
X3182Y2243D01*
X3175Y2235D01*
X3171Y2225D01*
X3170Y2215D01*
X3171Y2205D01*
X3175Y2195D01*
X3182Y2187D01*
X3190Y2180D01*
X3195Y2179D01*
Y2095D01*
X3196Y2089D01*
X3199Y2084D01*
X3249Y2034D01*
X3254Y2031D01*
X3260Y2030D01*
X3286D01*
X3287Y2026D01*
X3293Y2018D01*
X3301Y2012D01*
X3310Y2008D01*
X3320Y2007D01*
X3330Y2008D01*
X3339Y2012D01*
X3347Y2018D01*
X3353Y2026D01*
X3357Y2035D01*
X3358Y2045D01*
X3357Y2055D01*
X3353Y2064D01*
X3347Y2072D01*
X3339Y2078D01*
X3330Y2082D01*
X3320Y2083D01*
X3310Y2082D01*
X3301Y2078D01*
X3293Y2072D01*
X3287Y2064D01*
X3286Y2060D01*
X3266D01*
X3225Y2101D01*
Y2179D01*
X3230Y2180D01*
X3238Y2187D01*
X3245Y2195D01*
X3249Y2205D01*
X3250Y2215D01*
X3249Y2225D01*
X3247Y2230D01*
X3281Y2265D01*
X3469D01*
X3472Y2256D01*
X3478Y2248D01*
X3486Y2242D01*
X3495Y2238D01*
X3505Y2237D01*
X3515Y2238D01*
X3524Y2242D01*
X3532Y2248D01*
X3538Y2256D01*
X3542Y2265D01*
X3543Y2275D01*
X3542Y2285D01*
X3538Y2294D01*
X3532Y2302D01*
X3528Y2305D01*
X3530Y2310D01*
X3780D01*
X3782Y2305D01*
X3778Y2302D01*
X3772Y2294D01*
X3768Y2285D01*
X3767Y2275D01*
X3768Y2265D01*
X3772Y2256D01*
X3778Y2248D01*
X3786Y2242D01*
X3795Y2238D01*
X3805Y2237D01*
X3815Y2238D01*
X3824Y2242D01*
X3832Y2248D01*
X3838Y2256D01*
X3842Y2265D01*
X3843Y2275D01*
X3842Y2285D01*
X3838Y2294D01*
X3832Y2302D01*
X3828Y2305D01*
X3830Y2310D01*
X3860D01*
X3866Y2311D01*
X3871Y2314D01*
X3916Y2359D01*
X3919Y2364D01*
X3920Y2370D01*
Y2570D01*
X3919Y2576D01*
X3916Y2581D01*
X3776Y2720D01*
X3778Y2725D01*
X3781Y2726D01*
X3786Y2729D01*
X3826Y2769D01*
X3829Y2774D01*
X3830Y2780D01*
Y3065D01*
X3829Y3071D01*
X3826Y3076D01*
X3591Y3311D01*
X3586Y3314D01*
X3580Y3315D01*
X3335D01*
X3329Y3314D01*
X3324Y3311D01*
X3220Y3206D01*
X3216Y3201D01*
X3215Y3195D01*
Y3189D01*
X3210Y3188D01*
X3210Y3190D01*
X3203Y3198D01*
X3195Y3205D01*
X3185Y3209D01*
X3175Y3210D01*
X3165Y3209D01*
X3155Y3205D01*
X3147Y3198D01*
X3140Y3190D01*
X3136Y3180D01*
X3135Y3170D01*
X3136Y3160D01*
X3140Y3150D01*
X3147Y3142D01*
X3155Y3135D01*
X3165Y3131D01*
X3175Y3130D01*
X3185Y3131D01*
X3195Y3135D01*
X3203Y3142D01*
X3210Y3150D01*
X3210Y3152D01*
X3215Y3151D01*
Y3107D01*
X3064Y2956D01*
X3061Y2951D01*
X3060Y2945D01*
Y2906D01*
X3055Y2905D01*
X3047Y2898D01*
X3040Y2890D01*
X3036Y2880D01*
X3035Y2870D01*
X3036Y2860D01*
X3038Y2855D01*
X2974Y2790D01*
X2933D01*
X2933Y2795D01*
X2936Y2796D01*
X2941Y2799D01*
X2972Y2831D01*
X2975Y2830D01*
X2985Y2831D01*
X2995Y2835D01*
X3003Y2842D01*
X3010Y2850D01*
X3014Y2860D01*
X3015Y2870D01*
X3014Y2880D01*
X3010Y2890D01*
X3003Y2898D01*
X2995Y2905D01*
X2985Y2909D01*
X2975Y2910D01*
X2965Y2909D01*
X2955Y2905D01*
X2947Y2898D01*
X2940Y2890D01*
X2936Y2880D01*
X2935Y2870D01*
X2936Y2860D01*
X2940Y2850D01*
X2944Y2846D01*
X2924Y2825D01*
X2841D01*
X2841Y2825D01*
X2844Y2830D01*
X2915D01*
Y2910D01*
X2890D01*
Y2995D01*
X2889Y3001D01*
X2886Y3006D01*
X2766Y3126D01*
X2761Y3129D01*
X2755Y3130D01*
X2682D01*
X2677Y3137D01*
X2669Y3143D01*
X2660Y3147D01*
X2661Y3152D01*
X2840D01*
X2840Y3150D01*
X2847Y3142D01*
X2855Y3135D01*
X2865Y3131D01*
X2875Y3130D01*
X2885Y3131D01*
X2895Y3135D01*
X2903Y3142D01*
X2910Y3150D01*
X2914Y3160D01*
X2915Y3170D01*
X2914Y3180D01*
X2910Y3190D01*
X2903Y3198D01*
X2895Y3205D01*
X2885Y3209D01*
X2875Y3210D01*
X2865Y3209D01*
X2855Y3205D01*
X2847Y3198D01*
X2840Y3190D01*
X2837Y3182D01*
X2683D01*
X2680Y3187D01*
X2683Y3191D01*
X2687Y3200D01*
X2688Y3210D01*
X2687Y3220D01*
X2683Y3229D01*
X2677Y3237D01*
X2669Y3243D01*
X2660Y3247D01*
X2650Y3248D01*
X2640Y3247D01*
X2631Y3243D01*
X2623Y3237D01*
X2617Y3229D01*
X2613Y3220D01*
X2612Y3210D01*
X2613Y3200D01*
X2617Y3191D01*
X2620Y3187D01*
X2617Y3182D01*
X2412D01*
X2406Y3181D01*
X2401Y3178D01*
X2367Y3144D01*
X2360Y3147D01*
X2350Y3148D01*
X2340Y3147D01*
X2331Y3143D01*
X2323Y3137D01*
X2317Y3129D01*
X2313Y3120D01*
X2312Y3110D01*
X2313Y3100D01*
X2317Y3091D01*
X2323Y3083D01*
X2331Y3077D01*
X2340Y3073D01*
X2350Y3072D01*
X2360Y3073D01*
X2369Y3077D01*
X2377Y3083D01*
X2383Y3091D01*
X2387Y3100D01*
X2388Y3110D01*
X2387Y3120D01*
X2387Y3120D01*
X2418Y3152D01*
X2639D01*
X2640Y3147D01*
X2631Y3143D01*
X2623Y3137D01*
X2617Y3129D01*
X2613Y3120D01*
X2612Y3110D01*
X2613Y3100D01*
X2617Y3091D01*
X2623Y3083D01*
X2631Y3077D01*
X2640Y3073D01*
X2650Y3072D01*
X2660Y3073D01*
X2669Y3077D01*
X2677Y3083D01*
X2683Y3091D01*
X2687Y3100D01*
X2749D01*
X2860Y2989D01*
Y2910D01*
X2835D01*
X2835Y2834D01*
Y2834D01*
Y2834D01*
X2835Y2833D01*
X2834Y2833D01*
X2830Y2831D01*
X2688Y2974D01*
Y3048D01*
X2612D01*
Y2972D01*
X2646D01*
X2819Y2799D01*
X2824Y2796D01*
X2827Y2795D01*
X2827Y2790D01*
X2688D01*
Y2803D01*
X2602D01*
Y2738D01*
X2454Y2591D01*
X2451Y2586D01*
X2450Y2580D01*
Y2548D01*
X2445Y2547D01*
X2406Y2586D01*
X2401Y2589D01*
X2395Y2590D01*
X2275D01*
X2269Y2589D01*
X2264Y2586D01*
X2189Y2511D01*
X2186Y2506D01*
X2185Y2500D01*
Y2250D01*
X2186Y2244D01*
X2189Y2239D01*
X2217Y2212D01*
X2213Y2201D01*
X2211Y2190D01*
X2213Y2179D01*
X2217Y2168D01*
X2224Y2159D01*
X2233Y2152D01*
X2240Y2149D01*
Y2037D01*
X2235Y2035D01*
X1980Y2290D01*
X1980Y2937D01*
X2050D01*
Y3013D01*
X2035D01*
Y3135D01*
X2055D01*
Y3160D01*
X2141D01*
X2145Y3152D01*
X2151Y3143D01*
X2160Y3137D01*
X2169Y3133D01*
X2180Y3131D01*
X2191Y3133D01*
X2200Y3137D01*
X2209Y3143D01*
X2215Y3152D01*
X2219Y3162D01*
X2221Y3172D01*
X2219Y3183D01*
X2215Y3193D01*
X2209Y3201D01*
X2200Y3208D01*
X2191Y3212D01*
X2180Y3213D01*
X2169Y3212D01*
X2160Y3208D01*
X2151Y3201D01*
X2145Y3193D01*
X2144Y3190D01*
X2055D01*
Y3215D01*
X1980D01*
Y3247D01*
X1985Y3249D01*
X1987Y3247D01*
X1995Y3240D01*
X2005Y3236D01*
X2010Y3236D01*
Y3275D01*
Y3314D01*
X2005Y3314D01*
X1995Y3310D01*
X1987Y3303D01*
X1985Y3301D01*
X1980Y3303D01*
Y3450D01*
X2190Y3660D01*
X2665D01*
X2720Y3630D01*
D02*
G37*
%LPC*%
G36*
X2655Y3648D02*
Y3615D01*
X2688D01*
X2687Y3620D01*
X2683Y3629D01*
X2677Y3637D01*
X2669Y3643D01*
X2660Y3647D01*
X2655Y3648D01*
D02*
G37*
G36*
X2645D02*
X2640Y3647D01*
X2631Y3643D01*
X2623Y3637D01*
X2617Y3629D01*
X2613Y3620D01*
X2612Y3615D01*
X2645D01*
Y3648D01*
D02*
G37*
G36*
X2688Y3605D02*
X2655D01*
Y3572D01*
X2660Y3573D01*
X2669Y3577D01*
X2677Y3583D01*
X2683Y3591D01*
X2687Y3600D01*
X2688Y3605D01*
D02*
G37*
G36*
X2645D02*
X2612D01*
X2613Y3600D01*
X2617Y3591D01*
X2623Y3583D01*
X2631Y3577D01*
X2640Y3573D01*
X2645Y3572D01*
Y3605D01*
D02*
G37*
G36*
X2350Y3648D02*
X2340Y3647D01*
X2331Y3643D01*
X2323Y3637D01*
X2317Y3629D01*
X2313Y3620D01*
X2312Y3610D01*
X2313Y3600D01*
X2317Y3591D01*
X2323Y3583D01*
X2331Y3577D01*
X2340Y3573D01*
X2350Y3572D01*
X2360Y3573D01*
X2369Y3577D01*
X2377Y3583D01*
X2383Y3591D01*
X2387Y3600D01*
X2388Y3610D01*
X2387Y3620D01*
X2383Y3629D01*
X2377Y3637D01*
X2369Y3643D01*
X2360Y3647D01*
X2350Y3648D01*
D02*
G37*
G36*
X2185Y3588D02*
Y3553D01*
X2220D01*
X2219Y3558D01*
X2215Y3568D01*
X2209Y3577D01*
X2200Y3583D01*
X2191Y3587D01*
X2185Y3588D01*
D02*
G37*
G36*
X2175Y3588D02*
X2169Y3587D01*
X2160Y3583D01*
X2151Y3577D01*
X2145Y3568D01*
X2141Y3558D01*
X2140Y3553D01*
X2175D01*
Y3588D01*
D02*
G37*
G36*
Y3543D02*
X2140D01*
X2141Y3537D01*
X2145Y3527D01*
X2151Y3519D01*
X2160Y3512D01*
X2169Y3508D01*
X2175Y3508D01*
Y3543D01*
D02*
G37*
G36*
X2220D02*
X2185D01*
Y3508D01*
X2191Y3508D01*
X2200Y3512D01*
X2209Y3519D01*
X2215Y3527D01*
X2219Y3537D01*
X2220Y3543D01*
D02*
G37*
G36*
X2650Y3548D02*
X2640Y3547D01*
X2631Y3543D01*
X2623Y3537D01*
X2617Y3529D01*
X2613Y3520D01*
X2612Y3510D01*
X2613Y3500D01*
X2617Y3491D01*
X2623Y3483D01*
X2631Y3477D01*
X2640Y3473D01*
X2650Y3472D01*
X2660Y3473D01*
X2669Y3477D01*
X2677Y3483D01*
X2683Y3491D01*
X2687Y3500D01*
X2688Y3510D01*
X2687Y3520D01*
X2683Y3529D01*
X2677Y3537D01*
X2669Y3543D01*
X2660Y3547D01*
X2650Y3548D01*
D02*
G37*
G36*
X2350D02*
X2340Y3547D01*
X2331Y3543D01*
X2323Y3537D01*
X2317Y3529D01*
X2313Y3520D01*
X2312Y3510D01*
X2313Y3500D01*
X2317Y3491D01*
X2323Y3483D01*
X2331Y3477D01*
X2340Y3473D01*
X2350Y3472D01*
X2360Y3473D01*
X2369Y3477D01*
X2377Y3483D01*
X2383Y3491D01*
X2387Y3500D01*
X2388Y3510D01*
X2387Y3520D01*
X2383Y3529D01*
X2377Y3537D01*
X2369Y3543D01*
X2360Y3547D01*
X2350Y3548D01*
D02*
G37*
G36*
X2650Y3448D02*
X2640Y3447D01*
X2631Y3443D01*
X2623Y3437D01*
X2617Y3429D01*
X2613Y3420D01*
X2612Y3410D01*
X2613Y3400D01*
X2617Y3391D01*
X2623Y3383D01*
X2631Y3377D01*
X2640Y3373D01*
X2650Y3372D01*
X2660Y3373D01*
X2669Y3377D01*
X2677Y3383D01*
X2683Y3391D01*
X2687Y3400D01*
X2688Y3410D01*
X2687Y3420D01*
X2683Y3429D01*
X2677Y3437D01*
X2669Y3443D01*
X2660Y3447D01*
X2650Y3448D01*
D02*
G37*
G36*
X2350D02*
X2340Y3447D01*
X2331Y3443D01*
X2323Y3437D01*
X2317Y3429D01*
X2313Y3420D01*
X2312Y3410D01*
X2313Y3400D01*
X2317Y3391D01*
X2323Y3383D01*
X2331Y3377D01*
X2340Y3373D01*
X2350Y3372D01*
X2360Y3373D01*
X2369Y3377D01*
X2377Y3383D01*
X2383Y3391D01*
X2387Y3400D01*
X2388Y3410D01*
X2387Y3420D01*
X2383Y3429D01*
X2377Y3437D01*
X2369Y3443D01*
X2360Y3447D01*
X2350Y3448D01*
D02*
G37*
G36*
X2805Y3445D02*
X2725D01*
Y3365D01*
X2805D01*
Y3445D01*
D02*
G37*
G36*
X3065Y3445D02*
X3055Y3444D01*
X3045Y3440D01*
X3037Y3433D01*
X3030Y3425D01*
X3026Y3415D01*
X3025Y3405D01*
X3026Y3395D01*
X3030Y3385D01*
X3037Y3377D01*
X3045Y3370D01*
X3055Y3366D01*
X3065Y3365D01*
X3075Y3366D01*
X3085Y3370D01*
X3093Y3377D01*
X3100Y3385D01*
X3104Y3395D01*
X3105Y3405D01*
X3104Y3415D01*
X3100Y3425D01*
X3093Y3433D01*
X3085Y3440D01*
X3075Y3444D01*
X3065Y3445D01*
D02*
G37*
G36*
X2965D02*
X2955Y3444D01*
X2945Y3440D01*
X2937Y3433D01*
X2930Y3425D01*
X2926Y3415D01*
X2925Y3405D01*
X2926Y3395D01*
X2930Y3385D01*
X2937Y3377D01*
X2945Y3370D01*
X2955Y3366D01*
X2965Y3365D01*
X2975Y3366D01*
X2985Y3370D01*
X2993Y3377D01*
X3000Y3385D01*
X3004Y3395D01*
X3005Y3405D01*
X3004Y3415D01*
X3000Y3425D01*
X2993Y3433D01*
X2985Y3440D01*
X2975Y3444D01*
X2965Y3445D01*
D02*
G37*
G36*
X2865D02*
X2855Y3444D01*
X2845Y3440D01*
X2837Y3433D01*
X2830Y3425D01*
X2826Y3415D01*
X2825Y3405D01*
X2826Y3395D01*
X2830Y3385D01*
X2837Y3377D01*
X2845Y3370D01*
X2855Y3366D01*
X2865Y3365D01*
X2875Y3366D01*
X2885Y3370D01*
X2893Y3377D01*
X2900Y3385D01*
X2904Y3395D01*
X2905Y3405D01*
X2904Y3415D01*
X2900Y3425D01*
X2893Y3433D01*
X2885Y3440D01*
X2875Y3444D01*
X2865Y3445D01*
D02*
G37*
G36*
X2020Y3314D02*
Y3280D01*
X2054D01*
X2054Y3285D01*
X2050Y3295D01*
X2043Y3303D01*
X2035Y3310D01*
X2025Y3314D01*
X2020Y3314D01*
D02*
G37*
G36*
X2650Y3348D02*
X2640Y3347D01*
X2631Y3343D01*
X2623Y3337D01*
X2617Y3329D01*
X2613Y3320D01*
X2612Y3310D01*
X2613Y3300D01*
X2617Y3291D01*
X2623Y3283D01*
X2631Y3277D01*
X2640Y3273D01*
X2650Y3272D01*
X2660Y3273D01*
X2669Y3277D01*
X2677Y3283D01*
X2683Y3291D01*
X2687Y3300D01*
X2688Y3310D01*
X2687Y3320D01*
X2683Y3329D01*
X2677Y3337D01*
X2669Y3343D01*
X2660Y3347D01*
X2650Y3348D01*
D02*
G37*
G36*
X2350D02*
X2340Y3347D01*
X2331Y3343D01*
X2323Y3337D01*
X2317Y3329D01*
X2313Y3320D01*
X2312Y3310D01*
X2313Y3300D01*
X2317Y3291D01*
X2323Y3283D01*
X2331Y3277D01*
X2340Y3273D01*
X2350Y3272D01*
X2360Y3273D01*
X2369Y3277D01*
X2377Y3283D01*
X2383Y3291D01*
X2387Y3300D01*
X2388Y3310D01*
X2387Y3320D01*
X2383Y3329D01*
X2377Y3337D01*
X2369Y3343D01*
X2360Y3347D01*
X2350Y3348D01*
D02*
G37*
G36*
X2054Y3270D02*
X2020D01*
Y3236D01*
X2025Y3236D01*
X2035Y3240D01*
X2043Y3247D01*
X2050Y3255D01*
X2054Y3265D01*
X2054Y3270D01*
D02*
G37*
G36*
X3080Y3209D02*
Y3175D01*
X3114D01*
X3114Y3180D01*
X3110Y3190D01*
X3103Y3198D01*
X3095Y3205D01*
X3085Y3209D01*
X3080Y3209D01*
D02*
G37*
G36*
X3070D02*
X3065Y3209D01*
X3055Y3205D01*
X3047Y3198D01*
X3040Y3190D01*
X3036Y3180D01*
X3036Y3175D01*
X3070D01*
Y3209D01*
D02*
G37*
G36*
X2350Y3248D02*
X2340Y3247D01*
X2331Y3243D01*
X2323Y3237D01*
X2317Y3229D01*
X2315Y3225D01*
X2315D01*
X2309Y3224D01*
X2304Y3221D01*
X2109Y3026D01*
X2106Y3021D01*
X2105Y3015D01*
Y3011D01*
X2096Y3008D01*
X2088Y3002D01*
X2082Y2994D01*
X2078Y2985D01*
X2077Y2975D01*
X2078Y2965D01*
X2082Y2956D01*
X2088Y2948D01*
X2096Y2942D01*
X2105Y2938D01*
X2115Y2937D01*
X2125Y2938D01*
X2134Y2942D01*
X2142Y2948D01*
X2148Y2956D01*
X2152Y2965D01*
X2153Y2975D01*
X2152Y2985D01*
X2148Y2994D01*
X2142Y3002D01*
X2138Y3005D01*
X2138Y3011D01*
X2314Y3188D01*
X2319Y3187D01*
X2323Y3183D01*
X2331Y3177D01*
X2340Y3173D01*
X2350Y3172D01*
X2360Y3173D01*
X2369Y3177D01*
X2377Y3183D01*
X2383Y3191D01*
X2387Y3200D01*
X2388Y3210D01*
X2387Y3220D01*
X2383Y3229D01*
X2377Y3237D01*
X2369Y3243D01*
X2360Y3247D01*
X2350Y3248D01*
D02*
G37*
G36*
X3114Y3165D02*
X3080D01*
Y3131D01*
X3085Y3131D01*
X3095Y3135D01*
X3103Y3142D01*
X3110Y3150D01*
X3114Y3160D01*
X3114Y3165D01*
D02*
G37*
G36*
X3070D02*
X3036D01*
X3036Y3160D01*
X3040Y3150D01*
X3047Y3142D01*
X3055Y3135D01*
X3065Y3131D01*
X3070Y3131D01*
Y3165D01*
D02*
G37*
G36*
X2975Y3210D02*
X2965Y3209D01*
X2955Y3205D01*
X2947Y3198D01*
X2940Y3190D01*
X2936Y3180D01*
X2935Y3170D01*
X2936Y3160D01*
X2940Y3150D01*
X2947Y3142D01*
X2955Y3135D01*
X2965Y3131D01*
X2975Y3130D01*
X2985Y3131D01*
X2995Y3135D01*
X3003Y3142D01*
X3010Y3150D01*
X3014Y3160D01*
X3015Y3170D01*
X3014Y3180D01*
X3010Y3190D01*
X3003Y3198D01*
X2995Y3205D01*
X2985Y3209D01*
X2975Y3210D01*
D02*
G37*
G36*
X3745Y3079D02*
Y3045D01*
X3779D01*
X3779Y3050D01*
X3775Y3060D01*
X3768Y3068D01*
X3760Y3075D01*
X3750Y3079D01*
X3745Y3079D01*
D02*
G37*
G36*
X3735D02*
X3730Y3079D01*
X3720Y3075D01*
X3712Y3068D01*
X3706Y3060D01*
X3702Y3050D01*
X3701Y3045D01*
X3735D01*
Y3079D01*
D02*
G37*
G36*
X3779Y3035D02*
X3745D01*
Y3001D01*
X3750Y3001D01*
X3760Y3005D01*
X3768Y3012D01*
X3775Y3020D01*
X3779Y3030D01*
X3779Y3035D01*
D02*
G37*
G36*
X3735D02*
X3701D01*
X3702Y3030D01*
X3706Y3020D01*
X3712Y3012D01*
X3720Y3005D01*
X3730Y3001D01*
X3735Y3001D01*
Y3035D01*
D02*
G37*
G36*
X2350Y3048D02*
X2340Y3047D01*
X2331Y3043D01*
X2323Y3037D01*
X2317Y3029D01*
X2315Y3025D01*
X2310D01*
X2304Y3024D01*
X2299Y3021D01*
X2269Y2990D01*
X2252D01*
X2250Y2994D01*
X2244Y3002D01*
X2236Y3008D01*
X2227Y3012D01*
X2217Y3013D01*
X2208Y3012D01*
X2198Y3008D01*
X2191Y3002D01*
X2185Y2994D01*
X2181Y2985D01*
X2179Y2975D01*
X2181Y2965D01*
X2185Y2956D01*
X2191Y2948D01*
X2198Y2942D01*
X2208Y2938D01*
X2217Y2937D01*
X2227Y2938D01*
X2236Y2942D01*
X2244Y2948D01*
X2250Y2956D01*
X2252Y2960D01*
X2275D01*
X2281Y2961D01*
X2286Y2964D01*
X2312Y2990D01*
X2318Y2989D01*
X2323Y2983D01*
X2331Y2977D01*
X2340Y2973D01*
X2350Y2972D01*
X2360Y2973D01*
X2369Y2977D01*
X2377Y2983D01*
X2383Y2991D01*
X2387Y3000D01*
X2388Y3010D01*
X2387Y3020D01*
X2383Y3029D01*
X2377Y3037D01*
X2369Y3043D01*
X2360Y3047D01*
X2350Y3048D01*
D02*
G37*
G36*
X3540Y3250D02*
X3435D01*
X3429Y3249D01*
X3424Y3246D01*
X3386Y3208D01*
X3385Y3209D01*
X3375Y3210D01*
X3365Y3209D01*
X3355Y3205D01*
X3347Y3198D01*
X3340Y3190D01*
X3336Y3180D01*
X3335Y3170D01*
X3336Y3160D01*
X3340Y3150D01*
X3347Y3142D01*
X3355Y3135D01*
X3365Y3131D01*
X3375Y3130D01*
X3385Y3131D01*
X3395Y3135D01*
X3403Y3142D01*
X3410Y3150D01*
X3414Y3160D01*
X3415Y3170D01*
X3414Y3180D01*
X3410Y3188D01*
X3441Y3220D01*
X3534D01*
X3595Y3159D01*
Y2810D01*
Y2649D01*
X3591Y2648D01*
X3583Y2642D01*
X3577Y2634D01*
X3573Y2625D01*
X3572Y2615D01*
X3573Y2605D01*
X3577Y2596D01*
X3583Y2588D01*
X3591Y2582D01*
X3600Y2578D01*
X3610Y2577D01*
X3620Y2578D01*
X3629Y2582D01*
X3637Y2588D01*
X3643Y2596D01*
X3647Y2605D01*
X3648Y2615D01*
X3647Y2625D01*
X3643Y2634D01*
X3637Y2642D01*
X3629Y2648D01*
X3625Y2649D01*
Y2804D01*
X3725Y2903D01*
X3730Y2901D01*
X3740Y2900D01*
X3750Y2901D01*
X3760Y2905D01*
X3768Y2912D01*
X3775Y2920D01*
X3779Y2930D01*
X3780Y2940D01*
X3779Y2950D01*
X3775Y2960D01*
X3768Y2968D01*
X3760Y2975D01*
X3750Y2979D01*
X3740Y2980D01*
X3730Y2979D01*
X3720Y2975D01*
X3712Y2968D01*
X3706Y2960D01*
X3702Y2950D01*
X3700Y2940D01*
X3702Y2930D01*
X3704Y2925D01*
X3630Y2851D01*
X3625Y2853D01*
Y3165D01*
X3624Y3171D01*
X3621Y3176D01*
X3551Y3246D01*
X3546Y3249D01*
X3540Y3250D01*
D02*
G37*
G36*
X3475Y2910D02*
X3465Y2909D01*
X3455Y2905D01*
X3447Y2898D01*
X3440Y2890D01*
X3436Y2880D01*
X3435Y2870D01*
X3436Y2860D01*
X3438Y2855D01*
X3309Y2725D01*
X3149D01*
X3148Y2729D01*
X3142Y2737D01*
X3134Y2743D01*
X3125Y2747D01*
X3115Y2748D01*
X3105Y2747D01*
X3096Y2743D01*
X3088Y2737D01*
X3082Y2729D01*
X3078Y2720D01*
X3077Y2710D01*
X3078Y2700D01*
X3082Y2691D01*
X3088Y2683D01*
X3096Y2677D01*
X3100Y2676D01*
Y2610D01*
X3101Y2604D01*
X3104Y2599D01*
X3173Y2530D01*
X3171Y2525D01*
X3170Y2515D01*
X3171Y2505D01*
X3175Y2495D01*
X3182Y2487D01*
X3190Y2480D01*
X3200Y2476D01*
X3210Y2475D01*
X3220Y2476D01*
X3230Y2480D01*
X3238Y2487D01*
X3245Y2495D01*
X3249Y2505D01*
X3250Y2515D01*
X3249Y2525D01*
X3245Y2535D01*
X3238Y2543D01*
X3230Y2550D01*
X3220Y2554D01*
X3210Y2555D01*
X3200Y2554D01*
X3195Y2552D01*
X3130Y2616D01*
Y2676D01*
X3134Y2677D01*
X3142Y2683D01*
X3148Y2691D01*
X3149Y2695D01*
X3315D01*
X3321Y2696D01*
X3326Y2699D01*
X3460Y2833D01*
X3465Y2831D01*
X3475Y2830D01*
X3485Y2831D01*
X3495Y2835D01*
X3503Y2842D01*
X3510Y2850D01*
X3514Y2860D01*
X3515Y2870D01*
X3514Y2880D01*
X3510Y2890D01*
X3503Y2898D01*
X3495Y2905D01*
X3485Y2909D01*
X3475Y2910D01*
D02*
G37*
G36*
X2305Y2833D02*
Y2805D01*
X2333D01*
X2333Y2809D01*
X2329Y2817D01*
X2324Y2824D01*
X2317Y2829D01*
X2309Y2833D01*
X2305Y2833D01*
D02*
G37*
G36*
X2475D02*
Y2805D01*
X2503D01*
X2503Y2809D01*
X2499Y2817D01*
X2494Y2824D01*
X2487Y2829D01*
X2479Y2833D01*
X2475Y2833D01*
D02*
G37*
G36*
X2465D02*
X2461Y2833D01*
X2453Y2829D01*
X2446Y2824D01*
X2441Y2817D01*
X2437Y2809D01*
X2437Y2805D01*
X2465D01*
Y2833D01*
D02*
G37*
G36*
X2295D02*
X2291Y2833D01*
X2283Y2829D01*
X2276Y2824D01*
X2271Y2817D01*
X2267Y2809D01*
X2267Y2805D01*
X2295D01*
Y2833D01*
D02*
G37*
G36*
X3740Y2880D02*
X3730Y2879D01*
X3720Y2875D01*
X3712Y2868D01*
X3706Y2860D01*
X3702Y2850D01*
X3700Y2840D01*
X3702Y2830D01*
X3704Y2825D01*
X3659Y2781D01*
X3656Y2776D01*
X3655Y2770D01*
Y2560D01*
X3656Y2554D01*
X3659Y2549D01*
X3800Y2408D01*
X3798Y2405D01*
X3797Y2395D01*
X3798Y2385D01*
X3802Y2376D01*
X3808Y2368D01*
X3816Y2362D01*
X3825Y2358D01*
X3835Y2357D01*
X3845Y2358D01*
X3854Y2362D01*
X3862Y2368D01*
X3868Y2376D01*
X3872Y2385D01*
X3873Y2395D01*
X3872Y2405D01*
X3868Y2414D01*
X3862Y2422D01*
X3854Y2428D01*
X3845Y2432D01*
X3835Y2433D01*
X3825Y2432D01*
X3822Y2430D01*
X3685Y2566D01*
Y2764D01*
X3725Y2803D01*
X3730Y2801D01*
X3740Y2800D01*
X3750Y2801D01*
X3760Y2805D01*
X3768Y2812D01*
X3775Y2820D01*
X3779Y2830D01*
X3780Y2840D01*
X3779Y2850D01*
X3775Y2860D01*
X3768Y2868D01*
X3760Y2875D01*
X3750Y2879D01*
X3740Y2880D01*
D02*
G37*
G36*
X2333Y2795D02*
X2305D01*
Y2767D01*
X2309Y2767D01*
X2317Y2771D01*
X2324Y2776D01*
X2329Y2783D01*
X2333Y2791D01*
X2333Y2795D01*
D02*
G37*
G36*
X2503D02*
X2475D01*
Y2767D01*
X2479Y2767D01*
X2487Y2771D01*
X2494Y2776D01*
X2499Y2783D01*
X2503Y2791D01*
X2503Y2795D01*
D02*
G37*
G36*
X2465D02*
X2437D01*
X2437Y2791D01*
X2441Y2783D01*
X2446Y2776D01*
X2453Y2771D01*
X2461Y2767D01*
X2465Y2767D01*
Y2795D01*
D02*
G37*
G36*
X2295D02*
X2267D01*
X2267Y2791D01*
X2271Y2783D01*
X2276Y2776D01*
X2283Y2771D01*
X2291Y2767D01*
X2295Y2767D01*
Y2795D01*
D02*
G37*
G36*
X2073Y2877D02*
X2058Y2876D01*
X2043Y2871D01*
X2030Y2864D01*
X2018Y2855D01*
X2009Y2843D01*
X2002Y2830D01*
X1997Y2815D01*
X1996Y2800D01*
X1997Y2785D01*
X2002Y2770D01*
X2009Y2757D01*
X2018Y2745D01*
X2030Y2736D01*
X2043Y2729D01*
X2058Y2724D01*
X2073Y2723D01*
X2088Y2724D01*
X2103Y2729D01*
X2116Y2736D01*
X2128Y2745D01*
X2137Y2757D01*
X2144Y2770D01*
X2149Y2785D01*
X2150Y2800D01*
X2149Y2815D01*
X2144Y2830D01*
X2137Y2843D01*
X2128Y2855D01*
X2116Y2864D01*
X2103Y2871D01*
X2088Y2876D01*
X2073Y2877D01*
D02*
G37*
G36*
X3415Y2748D02*
X3405Y2747D01*
X3396Y2743D01*
X3388Y2737D01*
X3382Y2729D01*
X3378Y2720D01*
X3377Y2710D01*
X3378Y2700D01*
X3380Y2697D01*
X3330Y2647D01*
X3329Y2648D01*
X3320Y2652D01*
X3310Y2653D01*
X3300Y2652D01*
X3291Y2648D01*
X3283Y2642D01*
X3277Y2634D01*
X3273Y2625D01*
X3272Y2615D01*
X3273Y2605D01*
X3277Y2596D01*
X3283Y2588D01*
X3291Y2582D01*
X3295Y2581D01*
Y2551D01*
X3290Y2550D01*
X3282Y2543D01*
X3275Y2535D01*
X3271Y2525D01*
X3270Y2515D01*
X3271Y2505D01*
X3275Y2495D01*
X3282Y2487D01*
X3290Y2480D01*
X3300Y2476D01*
X3310Y2475D01*
X3320Y2476D01*
X3330Y2480D01*
X3338Y2487D01*
X3345Y2495D01*
X3349Y2505D01*
X3350Y2515D01*
X3349Y2525D01*
X3345Y2535D01*
X3338Y2543D01*
X3330Y2550D01*
X3325Y2551D01*
Y2581D01*
X3329Y2582D01*
X3337Y2588D01*
X3343Y2596D01*
X3347Y2605D01*
X3348Y2615D01*
X3347Y2621D01*
X3402Y2675D01*
X3405Y2673D01*
X3415Y2672D01*
X3425Y2673D01*
X3434Y2677D01*
X3442Y2683D01*
X3448Y2691D01*
X3452Y2700D01*
X3453Y2710D01*
X3452Y2720D01*
X3448Y2729D01*
X3442Y2737D01*
X3434Y2743D01*
X3425Y2747D01*
X3415Y2748D01*
D02*
G37*
G36*
X2650Y2703D02*
Y2665D01*
X2688D01*
X2687Y2671D01*
X2683Y2682D01*
X2676Y2691D01*
X2667Y2698D01*
X2656Y2702D01*
X2650Y2703D01*
D02*
G37*
G36*
X2640D02*
X2634Y2702D01*
X2623Y2698D01*
X2614Y2691D01*
X2607Y2682D01*
X2603Y2671D01*
X2602Y2665D01*
X2640D01*
Y2703D01*
D02*
G37*
G36*
X2688Y2655D02*
X2650D01*
Y2617D01*
X2656Y2618D01*
X2667Y2622D01*
X2676Y2629D01*
X2683Y2638D01*
X2687Y2649D01*
X2688Y2655D01*
D02*
G37*
G36*
X2640D02*
X2602D01*
X2603Y2649D01*
X2607Y2638D01*
X2614Y2629D01*
X2623Y2622D01*
X2634Y2618D01*
X2640Y2617D01*
Y2655D01*
D02*
G37*
G36*
X3845Y2552D02*
Y2520D01*
X3877D01*
X3877Y2525D01*
X3873Y2534D01*
X3867Y2542D01*
X3859Y2548D01*
X3850Y2552D01*
X3845Y2552D01*
D02*
G37*
G36*
X3835D02*
X3830Y2552D01*
X3821Y2548D01*
X3813Y2542D01*
X3807Y2534D01*
X3803Y2525D01*
X3803Y2520D01*
X3835D01*
Y2552D01*
D02*
G37*
G36*
X3877Y2510D02*
X3845D01*
Y2478D01*
X3850Y2478D01*
X3859Y2482D01*
X3867Y2488D01*
X3873Y2496D01*
X3877Y2505D01*
X3877Y2510D01*
D02*
G37*
G36*
X3835D02*
X3803D01*
X3803Y2505D01*
X3807Y2496D01*
X3813Y2488D01*
X3821Y2482D01*
X3830Y2478D01*
X3835Y2478D01*
Y2510D01*
D02*
G37*
G36*
X3410Y2555D02*
X3400Y2554D01*
X3390Y2550D01*
X3382Y2543D01*
X3375Y2535D01*
X3371Y2525D01*
X3370Y2515D01*
X3371Y2505D01*
X3375Y2495D01*
X3382Y2487D01*
X3390Y2480D01*
X3400Y2476D01*
X3410Y2475D01*
X3420Y2476D01*
X3430Y2480D01*
X3438Y2487D01*
X3445Y2495D01*
X3446Y2500D01*
X3506D01*
X3507Y2496D01*
X3513Y2488D01*
X3521Y2482D01*
X3525Y2481D01*
Y2431D01*
X3516Y2428D01*
X3508Y2422D01*
X3502Y2414D01*
X3498Y2405D01*
X3497Y2395D01*
X3498Y2385D01*
X3502Y2376D01*
X3508Y2368D01*
X3516Y2362D01*
X3525Y2358D01*
X3535Y2357D01*
X3545Y2358D01*
X3554Y2362D01*
X3562Y2368D01*
X3568Y2376D01*
X3572Y2385D01*
X3573Y2395D01*
X3572Y2405D01*
X3568Y2414D01*
X3562Y2422D01*
X3555Y2427D01*
Y2481D01*
X3559Y2482D01*
X3567Y2488D01*
X3573Y2496D01*
X3577Y2505D01*
X3578Y2515D01*
X3577Y2525D01*
X3573Y2534D01*
X3567Y2542D01*
X3559Y2548D01*
X3550Y2552D01*
X3540Y2553D01*
X3530Y2552D01*
X3521Y2548D01*
X3513Y2542D01*
X3507Y2534D01*
X3506Y2530D01*
X3446D01*
X3445Y2535D01*
X3438Y2543D01*
X3430Y2550D01*
X3420Y2554D01*
X3410Y2555D01*
D02*
G37*
G36*
X2995Y2387D02*
Y2355D01*
X3027D01*
X3027Y2360D01*
X3023Y2369D01*
X3017Y2377D01*
X3009Y2383D01*
X3000Y2387D01*
X2995Y2387D01*
D02*
G37*
G36*
X2985D02*
X2980Y2387D01*
X2971Y2383D01*
X2963Y2377D01*
X2957Y2369D01*
X2953Y2360D01*
X2953Y2355D01*
X2985D01*
Y2387D01*
D02*
G37*
G36*
X2555Y2357D02*
Y2325D01*
X2587D01*
X2587Y2330D01*
X2583Y2339D01*
X2577Y2347D01*
X2569Y2353D01*
X2560Y2357D01*
X2555Y2357D01*
D02*
G37*
G36*
X2545D02*
X2540Y2357D01*
X2531Y2353D01*
X2523Y2347D01*
X2517Y2339D01*
X2513Y2330D01*
X2513Y2325D01*
X2545D01*
Y2357D01*
D02*
G37*
G36*
X3027Y2345D02*
X2995D01*
Y2313D01*
X3000Y2313D01*
X3009Y2317D01*
X3017Y2323D01*
X3023Y2331D01*
X3027Y2340D01*
X3027Y2345D01*
D02*
G37*
G36*
X2985D02*
X2953D01*
X2953Y2340D01*
X2957Y2331D01*
X2963Y2323D01*
X2971Y2317D01*
X2980Y2313D01*
X2985Y2313D01*
Y2345D01*
D02*
G37*
G36*
X2070Y2457D02*
X2055Y2456D01*
X2040Y2451D01*
X2027Y2444D01*
X2015Y2435D01*
X2006Y2423D01*
X1999Y2410D01*
X1994Y2395D01*
X1993Y2380D01*
X1994Y2365D01*
X1999Y2350D01*
X2006Y2337D01*
X2015Y2325D01*
X2027Y2316D01*
X2040Y2309D01*
X2055Y2304D01*
X2070Y2303D01*
X2085Y2304D01*
X2100Y2309D01*
X2113Y2316D01*
X2125Y2325D01*
X2134Y2337D01*
X2141Y2350D01*
X2146Y2365D01*
X2147Y2380D01*
X2146Y2395D01*
X2141Y2410D01*
X2134Y2423D01*
X2125Y2435D01*
X2113Y2444D01*
X2100Y2451D01*
X2085Y2456D01*
X2070Y2457D01*
D02*
G37*
G36*
X2587Y2315D02*
X2555D01*
Y2283D01*
X2560Y2283D01*
X2569Y2287D01*
X2577Y2293D01*
X2583Y2301D01*
X2587Y2310D01*
X2587Y2315D01*
D02*
G37*
G36*
X2545D02*
X2513D01*
X2513Y2310D01*
X2517Y2301D01*
X2523Y2293D01*
X2531Y2287D01*
X2540Y2283D01*
X2545Y2283D01*
Y2315D01*
D02*
G37*
G36*
X3415Y2254D02*
Y2220D01*
X3449D01*
X3449Y2225D01*
X3445Y2235D01*
X3438Y2243D01*
X3430Y2250D01*
X3420Y2254D01*
X3415Y2254D01*
D02*
G37*
G36*
X3405D02*
X3400Y2254D01*
X3390Y2250D01*
X3382Y2243D01*
X3375Y2235D01*
X3371Y2225D01*
X3371Y2220D01*
X3405D01*
Y2254D01*
D02*
G37*
G36*
X3449Y2210D02*
X3415D01*
Y2176D01*
X3420Y2176D01*
X3430Y2180D01*
X3438Y2187D01*
X3445Y2195D01*
X3449Y2205D01*
X3449Y2210D01*
D02*
G37*
G36*
X3405D02*
X3371D01*
X3371Y2205D01*
X3375Y2195D01*
X3382Y2187D01*
X3390Y2180D01*
X3400Y2176D01*
X3405Y2176D01*
Y2210D01*
D02*
G37*
G36*
X3753Y2197D02*
X3738Y2196D01*
X3723Y2191D01*
X3710Y2184D01*
X3698Y2175D01*
X3689Y2163D01*
X3682Y2150D01*
X3677Y2135D01*
X3676Y2120D01*
X3677Y2105D01*
X3682Y2090D01*
X3689Y2077D01*
X3698Y2065D01*
X3710Y2056D01*
X3723Y2049D01*
X3738Y2044D01*
X3753Y2043D01*
X3768Y2044D01*
X3783Y2049D01*
X3796Y2056D01*
X3808Y2065D01*
X3817Y2077D01*
X3824Y2090D01*
X3829Y2105D01*
X3830Y2120D01*
X3829Y2135D01*
X3824Y2150D01*
X3817Y2163D01*
X3808Y2175D01*
X3796Y2184D01*
X3783Y2191D01*
X3768Y2196D01*
X3753Y2197D01*
D02*
G37*
G36*
X3705Y2022D02*
Y1990D01*
X3737D01*
X3737Y1995D01*
X3733Y2004D01*
X3727Y2012D01*
X3719Y2018D01*
X3710Y2022D01*
X3705Y2022D01*
D02*
G37*
G36*
X3695D02*
X3690Y2022D01*
X3681Y2018D01*
X3673Y2012D01*
X3667Y2004D01*
X3663Y1995D01*
X3663Y1990D01*
X3695D01*
Y2022D01*
D02*
G37*
%LPD*%
D13*
X2465Y2500D02*
Y2505D01*
X2990Y2650D02*
X3030D01*
X3060Y2620D01*
X2980Y2775D02*
X3075Y2870D01*
X2660Y2775D02*
X2980D01*
X2645Y2760D02*
X2660Y2775D01*
X3160Y2870D02*
X3175D01*
X3025Y2735D02*
X3160Y2870D01*
X2905Y2735D02*
X3025D01*
X3135Y2815D02*
X3220D01*
X3035Y2715D02*
X3135Y2815D01*
X2915Y2715D02*
X3035D01*
X3060Y2565D02*
Y2620D01*
Y2565D02*
X3110Y2515D01*
X2790Y2590D02*
X2915Y2715D01*
X2790Y2450D02*
Y2590D01*
Y2450D02*
X3025Y2215D01*
X2665Y2495D02*
X2905Y2735D01*
X2580Y2495D02*
X2665D01*
X2910Y2225D02*
Y2280D01*
X2870Y2320D02*
X2910Y2280D01*
X2850Y2320D02*
X2870D01*
X3025Y2215D02*
X3110D01*
X2355Y2270D02*
X2580Y2495D01*
X2020Y2970D02*
Y3175D01*
X2177D01*
X2015D02*
X2020D01*
X2177D02*
X2180Y3172D01*
X2120Y2970D02*
Y3015D01*
X2315Y3210D02*
X2350D01*
X2120Y3015D02*
X2315Y3210D01*
X2412Y3167D02*
X2875D01*
X2650Y3010D02*
Y3015D01*
Y3115D02*
X2755D01*
X2310Y3010D02*
X2350D01*
X2650Y2990D02*
Y3010D01*
X2355Y3110D02*
X2412Y3167D01*
X2650Y2990D02*
X2830Y2810D01*
X2930D01*
X2875Y2870D02*
Y2995D01*
X2755Y3115D02*
X2875Y2995D01*
X2275Y2975D02*
X2310Y3010D01*
X2240Y2975D02*
X2275D01*
X3400Y1970D02*
Y1985D01*
Y2050D01*
X3320Y2130D02*
X3400Y2050D01*
X3580Y3300D02*
X3815Y3065D01*
Y2780D02*
Y3065D01*
X3775Y2740D02*
X3815Y2780D01*
X2395Y2575D02*
X2465Y2505D01*
X2275Y2575D02*
X2395D01*
X2200Y2500D02*
X2275Y2575D01*
X2200Y2250D02*
Y2500D01*
Y2250D02*
X2255Y2195D01*
X2300Y2325D02*
Y2500D01*
X2465Y2505D02*
X2470Y2500D01*
X2465Y2505D02*
Y2580D01*
X2645Y2760D01*
X3335Y3300D02*
X3580D01*
X3230Y3195D02*
X3335Y3300D01*
X3610Y2810D02*
Y3165D01*
Y2615D02*
Y2810D01*
X3610D01*
X3740Y2940D01*
X3540Y3235D02*
X3610Y3165D01*
X3670Y2770D02*
X3740Y2840D01*
X3670Y2560D02*
Y2770D01*
X3740Y2740D02*
X3775D01*
X3905Y2370D02*
Y2570D01*
X3740Y2735D02*
X3905Y2570D01*
X3670Y2560D02*
X3835Y2395D01*
X2255Y2190D02*
Y2195D01*
Y2025D02*
Y2190D01*
Y2025D02*
X2325Y1955D01*
X2300Y2325D02*
X2355Y2270D01*
Y2190D02*
Y2270D01*
Y2050D02*
Y2190D01*
X2590Y2240D02*
X2655Y2175D01*
X2460Y2195D02*
X2505Y2240D01*
X2590D01*
X2655Y2050D02*
Y2175D01*
X2325Y1955D02*
X2660D01*
X2835Y2130D01*
X3065Y3415D02*
X3070Y3410D01*
X2765Y3405D02*
X2770Y3410D01*
X3065Y3405D02*
X3070Y3410D01*
X2835Y2130D02*
X3020D01*
X3435Y3235D02*
X3540D01*
X3375Y3175D02*
X3435Y3235D01*
X3375Y3170D02*
Y3175D01*
X3500Y2280D02*
X3505Y2275D01*
X3275Y2280D02*
X3500D01*
X3410Y2515D02*
X3540D01*
X3110D02*
X3300Y2325D01*
X3230Y3100D02*
Y3195D01*
X3075Y2945D02*
X3230Y3100D01*
X3075Y2870D02*
Y2945D01*
X2975Y2855D02*
Y2870D01*
X2930Y2810D02*
X2975Y2855D01*
X2875Y3167D02*
Y3170D01*
X3860Y2325D02*
X3905Y2370D01*
X3300Y2325D02*
X3860D01*
X3110Y2125D02*
Y2215D01*
X3030Y2045D02*
X3110Y2125D01*
X3020Y2045D02*
X3030D01*
X3315Y2710D02*
X3475Y2870D01*
X3115Y2710D02*
X3315D01*
X3220Y2815D02*
X3275Y2870D01*
X3315Y2930D02*
X3375Y2870D01*
X3235Y2930D02*
X3315D01*
X3175Y2870D02*
X3235Y2930D01*
X3375Y3070D02*
X3475Y3170D01*
X3375Y2870D02*
Y3070D01*
X3310Y2515D02*
Y2615D01*
X3115Y2610D02*
X3210Y2515D01*
Y2215D02*
X3275Y2280D01*
X3260Y2045D02*
X3320D01*
X3210Y2095D02*
X3260Y2045D01*
X3210Y2095D02*
Y2215D01*
X3310D02*
X3320Y2205D01*
Y2130D02*
Y2205D01*
X3535Y2395D02*
X3540Y2400D01*
Y2515D01*
X3320Y2615D02*
X3415Y2710D01*
X3310Y2615D02*
X3320D01*
X3115Y2610D02*
Y2710D01*
D26*
X2350Y3010D02*
D03*
Y3110D02*
D03*
Y3210D02*
D03*
Y3310D02*
D03*
Y3410D02*
D03*
Y3510D02*
D03*
Y3610D02*
D03*
X2650D02*
D03*
Y3510D02*
D03*
Y3410D02*
D03*
Y3310D02*
D03*
Y3210D02*
D03*
Y3110D02*
D03*
D27*
Y3010D02*
D03*
D32*
X2073Y2800D02*
D03*
X2070Y2380D02*
D03*
X3753Y2120D02*
D03*
X3925Y2735D02*
D03*
D33*
X2990Y2650D02*
D03*
Y2350D02*
D03*
X2217Y2975D02*
D03*
X2115D02*
D03*
X2905Y2235D02*
D03*
X2605D02*
D03*
X2850Y2320D02*
D03*
X2550D02*
D03*
X3610Y2615D02*
D03*
X3310D02*
D03*
X3835Y2395D02*
D03*
X3535D02*
D03*
X3840Y2515D02*
D03*
X3540D02*
D03*
X3020Y2130D02*
D03*
X3320D02*
D03*
X2650Y2020D02*
D03*
X2350D02*
D03*
X3415Y2710D02*
D03*
X3115D02*
D03*
X3805Y2275D02*
D03*
X3505D02*
D03*
X3320Y2045D02*
D03*
X3020D02*
D03*
X3700Y1985D02*
D03*
X3400D02*
D03*
D34*
X2180Y3172D02*
D03*
Y3548D02*
D03*
D35*
X3410Y2515D02*
D03*
X3310D02*
D03*
X3210D02*
D03*
X3110D02*
D03*
X3410Y2215D02*
D03*
X3310D02*
D03*
X3210D02*
D03*
X2975Y2870D02*
D03*
X3075D02*
D03*
X3175D02*
D03*
X3275D02*
D03*
X3375D02*
D03*
X3475D02*
D03*
X2875Y3170D02*
D03*
X2975D02*
D03*
X3075D02*
D03*
X3175D02*
D03*
X3275D02*
D03*
X3375D02*
D03*
X3475D02*
D03*
X2015Y3275D02*
D03*
X2865Y3405D02*
D03*
X2965D02*
D03*
X3065D02*
D03*
X3740Y2940D02*
D03*
Y2840D02*
D03*
Y2740D02*
D03*
Y3040D02*
D03*
D36*
X3110Y2215D02*
D03*
X2875Y2870D02*
D03*
X2015Y3175D02*
D03*
D37*
X2470Y2800D02*
D03*
Y2500D02*
D03*
X2300D02*
D03*
Y2800D02*
D03*
D38*
X2013Y2975D02*
D03*
D39*
X2765Y3405D02*
D03*
D40*
X2255Y2190D02*
D03*
X2355D02*
D03*
X2645Y2660D02*
D03*
Y2560D02*
D03*
D41*
X2455Y2190D02*
D03*
D42*
X2645Y2760D02*
D03*
M02*
