G04*
G04 #@! TF.GenerationSoftware,Altium Limited,Altium Designer,19.1.8 (144)*
G04*
G04 Layer_Color=65535*
%FSLAX23Y23*%
%MOIN*%
G70*
G01*
G75*
%ADD10C,0.024*%
%ADD11C,0.010*%
%ADD12C,0.008*%
%ADD13C,0.010*%
%ADD14C,0.006*%
%ADD15C,0.004*%
%ADD16C,0.003*%
%ADD17C,0.006*%
%ADD18C,0.005*%
D10*
X3108Y2300D02*
G03*
X3108Y2300I-12J0D01*
G01*
X2838Y2955D02*
G03*
X2838Y2955I-12J0D01*
G01*
D11*
X3064Y2215D02*
G03*
X3064Y2215I-5J0D01*
G01*
X2829Y2870D02*
G03*
X2829Y2870I-5J0D01*
G01*
X1968Y2975D02*
G03*
X1968Y2975I-5J0D01*
G01*
X2539Y2233D02*
G03*
X2539Y2233I-5J0D01*
G01*
X2607Y2839D02*
G03*
X2607Y2839I-5J0D01*
G01*
D12*
X3057Y2340D02*
G03*
X3057Y2390I0J25D01*
G01*
X2787Y2995D02*
G03*
X2787Y3045I0J25D01*
G01*
X2033Y2932D02*
G03*
X2039Y2922I82J43D01*
G01*
X2191D02*
G03*
X2199Y2936I-76J53D01*
G01*
X2199Y3014D02*
G03*
X2033Y3018I-84J-39D01*
G01*
X2960Y2600D02*
X2990D01*
X2960Y2400D02*
Y2600D01*
Y2400D02*
X3020D01*
Y2600D01*
X2990D02*
X3020D01*
X2990Y2391D02*
Y2400D01*
Y2600D02*
Y2609D01*
X2134Y3268D02*
Y3452D01*
Y3268D02*
X2226D01*
Y3452D01*
X2134D02*
X2226D01*
X2180D02*
Y3502D01*
Y3218D02*
Y3268D01*
X2134Y3318D02*
X2226D01*
X3463Y2261D02*
Y2469D01*
X3057Y2390D02*
Y2469D01*
Y2261D02*
Y2340D01*
Y2469D02*
X3463D01*
X3057Y2261D02*
X3463D01*
X2787Y2916D02*
X3563D01*
X2787Y3124D02*
X3563D01*
X2787Y2916D02*
Y2995D01*
Y3045D02*
Y3124D01*
X3563Y2916D02*
Y3124D01*
X2545Y2425D02*
Y2875D01*
X2395D02*
X2545D01*
X2395Y2425D02*
Y2875D01*
Y2425D02*
X2545D01*
X2225D02*
Y2875D01*
Y2425D02*
X2375D01*
Y2875D01*
X2225D02*
X2375D01*
X1965Y3325D02*
X2065D01*
Y3125D02*
Y3325D01*
X1965Y3125D02*
X2065D01*
X1965D02*
Y3325D01*
X2039Y2922D02*
X2191D01*
X3115Y3355D02*
Y3455D01*
X2715Y3355D02*
X3115D01*
X2715Y3455D02*
X3115D01*
X2715Y3355D02*
Y3455D01*
X2150Y2097D02*
X2560D01*
X2560Y2078D02*
Y2259D01*
X2150D02*
X2560D01*
X2150Y2078D02*
Y2259D01*
Y2078D02*
X2560D01*
X2646Y2235D02*
X2655D01*
X2855D02*
X2864D01*
X2655D02*
Y2265D01*
X2855D01*
Y2205D02*
Y2265D01*
X2655Y2205D02*
X2855D01*
X2655D02*
Y2235D01*
X2800Y2320D02*
Y2350D01*
X2600D02*
X2800D01*
X2600Y2290D02*
Y2350D01*
Y2290D02*
X2800D01*
Y2320D01*
X2591D02*
X2600D01*
X2800D02*
X2809D01*
X3351Y2615D02*
X3360D01*
X3560D02*
X3569D01*
X3360D02*
Y2645D01*
X3560D01*
Y2585D02*
Y2645D01*
X3360Y2585D02*
X3560D01*
X3360D02*
Y2615D01*
X2757Y2455D02*
Y2865D01*
X2576Y2455D02*
X2757D01*
X2576D02*
Y2865D01*
Y2865D02*
X2757D01*
X2738Y2455D02*
Y2865D01*
X3576Y2395D02*
X3585D01*
X3785D02*
X3794D01*
X3585D02*
Y2425D01*
X3785D01*
Y2365D02*
Y2425D01*
X3585Y2365D02*
X3785D01*
X3585D02*
Y2395D01*
X3581Y2515D02*
X3590D01*
X3790D02*
X3799D01*
X3590D02*
Y2545D01*
X3790D01*
Y2485D02*
Y2545D01*
X3590Y2485D02*
X3790D01*
X3590D02*
Y2515D01*
X3270Y2130D02*
X3279D01*
X3061D02*
X3070D01*
X3270Y2100D02*
Y2130D01*
X3070Y2100D02*
X3270D01*
X3070D02*
Y2160D01*
X3270D01*
Y2130D02*
Y2160D01*
X2391Y2020D02*
X2400D01*
X2600D02*
X2609D01*
X2400D02*
Y2050D01*
X2600D01*
Y1990D02*
Y2050D01*
X2400Y1990D02*
X2600D01*
X2400D02*
Y2020D01*
X3156Y2710D02*
X3165D01*
X3365D02*
X3374D01*
X3165D02*
Y2740D01*
X3365D01*
Y2680D02*
Y2740D01*
X3165Y2680D02*
X3365D01*
X3165D02*
Y2710D01*
X3546Y2275D02*
X3555D01*
X3755D02*
X3764D01*
X3555D02*
Y2305D01*
X3755D01*
Y2245D02*
Y2305D01*
X3555Y2245D02*
X3755D01*
X3555D02*
Y2275D01*
X3061Y2045D02*
X3070D01*
X3270D02*
X3279D01*
X3070D02*
Y2075D01*
X3270D01*
Y2015D02*
Y2075D01*
X3070Y2015D02*
X3270D01*
X3070D02*
Y2045D01*
X3441Y1985D02*
X3450D01*
X3650D02*
X3659D01*
X3450D02*
Y2015D01*
X3650D01*
Y1955D02*
Y2015D01*
X3450Y1955D02*
X3650D01*
X3450D02*
Y1985D01*
D13*
X3690Y2685D02*
Y3095D01*
Y2685D02*
X3790D01*
Y3095D01*
X3690D02*
X3790D01*
D14*
X2345Y3051D02*
Y3069D01*
Y3151D02*
Y3169D01*
Y3251D02*
Y3269D01*
Y3351D02*
Y3369D01*
Y3451D02*
Y3469D01*
Y3551D02*
Y3569D01*
X2655Y3651D02*
Y3707D01*
Y3551D02*
Y3569D01*
Y3451D02*
Y3469D01*
Y3351D02*
Y3369D01*
Y3251D02*
Y3269D01*
Y3151D02*
Y3169D01*
Y3051D02*
Y3069D01*
Y2912D02*
Y2969D01*
X2345Y2912D02*
X2655D01*
X2345Y3651D02*
Y3707D01*
X2655D01*
X2345Y2912D02*
Y2969D01*
D15*
X3660Y3064D02*
X3664Y3068D01*
Y3076D01*
X3660Y3080D01*
X3644D01*
X3640Y3076D01*
Y3068D01*
X3644Y3064D01*
X3652D01*
Y3072D01*
X3664Y3056D02*
X3640D01*
Y3045D01*
X3644Y3041D01*
X3660D01*
X3664Y3045D01*
Y3056D01*
X3640Y3033D02*
X3664D01*
X3640Y3017D01*
X3664D01*
Y3009D02*
Y3001D01*
Y3005D01*
X3640D01*
Y3009D01*
Y3001D01*
Y2958D02*
X3664D01*
X3652Y2970D01*
Y2954D01*
X3664Y2946D02*
X3648D01*
X3640Y2939D01*
X3648Y2931D01*
X3664D01*
Y2923D02*
Y2915D01*
Y2919D01*
X3640D01*
Y2923D01*
Y2915D01*
X3660Y2865D02*
X3664Y2861D01*
Y2853D01*
X3660Y2849D01*
X3656D01*
X3652Y2853D01*
X3648Y2849D01*
X3644D01*
X3640Y2853D01*
Y2861D01*
X3644Y2865D01*
X3648D01*
X3652Y2861D01*
X3656Y2865D01*
X3660D01*
X3652Y2861D02*
Y2853D01*
X3664Y2841D02*
X3648D01*
X3640Y2834D01*
X3648Y2826D01*
X3664D01*
Y2818D02*
Y2810D01*
Y2814D01*
X3640D01*
Y2818D01*
Y2810D01*
Y2775D02*
Y2767D01*
Y2771D01*
X3664D01*
X3660Y2775D01*
X3640Y2740D02*
Y2755D01*
X3656Y2740D01*
X3660D01*
X3664Y2744D01*
Y2751D01*
X3660Y2755D01*
X3664Y2732D02*
X3648D01*
X3640Y2724D01*
X3648Y2716D01*
X3664D01*
Y2708D02*
Y2700D01*
Y2704D01*
X3640D01*
Y2708D01*
Y2700D01*
X3045Y3320D02*
X3053D01*
X3049D01*
Y3344D01*
X3045Y3340D01*
X3080Y3320D02*
X3065D01*
X3080Y3336D01*
Y3340D01*
X3076Y3344D01*
X3069D01*
X3065Y3340D01*
X3088Y3344D02*
Y3328D01*
X3096Y3320D01*
X3104Y3328D01*
Y3344D01*
X3124D02*
X3116D01*
X3112Y3340D01*
Y3324D01*
X3116Y3320D01*
X3124D01*
X3128Y3324D01*
Y3340D01*
X3124Y3344D01*
X2940Y3340D02*
X2944Y3344D01*
X2952D01*
X2956Y3340D01*
Y3336D01*
X2952Y3332D01*
X2956Y3328D01*
Y3324D01*
X2952Y3320D01*
X2944D01*
X2940Y3324D01*
Y3328D01*
X2944Y3332D01*
X2940Y3336D01*
Y3340D01*
X2944Y3332D02*
X2952D01*
X2964Y3344D02*
Y3328D01*
X2971Y3320D01*
X2979Y3328D01*
Y3344D01*
X2999D02*
X2991D01*
X2987Y3340D01*
Y3324D01*
X2991Y3320D01*
X2999D01*
X3003Y3324D01*
Y3340D01*
X2999Y3344D01*
X2842Y3320D02*
Y3344D01*
X2830Y3332D01*
X2846D01*
X2854Y3344D02*
Y3328D01*
X2861Y3320D01*
X2869Y3328D01*
Y3344D01*
X2889D02*
X2881D01*
X2877Y3340D01*
Y3324D01*
X2881Y3320D01*
X2889D01*
X2893Y3324D01*
Y3340D01*
X2889Y3344D01*
X2716Y3340D02*
X2712Y3344D01*
X2704D01*
X2700Y3340D01*
Y3324D01*
X2704Y3320D01*
X2712D01*
X2716Y3324D01*
Y3332D01*
X2708D01*
X2724Y3344D02*
Y3320D01*
X2735D01*
X2739Y3324D01*
Y3340D01*
X2735Y3344D01*
X2724D01*
X2747Y3320D02*
Y3344D01*
X2763Y3320D01*
Y3344D01*
X2783D02*
X2775D01*
X2771Y3340D01*
Y3324D01*
X2775Y3320D01*
X2783D01*
X2787Y3324D01*
Y3340D01*
X2783Y3344D01*
D16*
X2662Y2935D02*
X2629Y2969D01*
X2662D02*
X2629Y2935D01*
X2662Y2952D02*
X2629D01*
X2646Y2969D02*
Y2935D01*
D17*
X2912Y2561D02*
X2906Y2555D01*
Y2542D01*
X2912Y2535D01*
X2938D01*
X2945Y2542D01*
Y2555D01*
X2938Y2561D01*
X2912Y2574D02*
X2906Y2581D01*
Y2594D01*
X2912Y2601D01*
X2919D01*
X2925Y2594D01*
Y2587D01*
Y2594D01*
X2932Y2601D01*
X2938D01*
X2945Y2594D01*
Y2581D01*
X2938Y2574D01*
X2071Y3390D02*
X2110D01*
Y3410D01*
X2103Y3416D01*
X2077D01*
X2071Y3410D01*
Y3390D01*
X2110Y3429D02*
Y3442D01*
Y3436D01*
X2071D01*
X2077Y3429D01*
X2233Y3081D02*
X2207D01*
X2201Y3075D01*
Y3062D01*
X2207Y3055D01*
X2233D01*
X2240Y3062D01*
Y3075D01*
X2227Y3068D02*
X2240Y3081D01*
Y3075D02*
X2233Y3081D01*
X2240Y3094D02*
Y3107D01*
Y3101D01*
X2201D01*
X2207Y3094D01*
X2250Y3700D02*
X2276D01*
X2289Y3687D01*
X2276Y3674D01*
X2250D01*
X2270D01*
Y3700D01*
X2250Y3661D02*
X2289D01*
X2250Y3634D01*
X2289D01*
Y3621D02*
X2250D01*
Y3602D01*
X2257Y3595D01*
X2283D01*
X2289Y3602D01*
Y3621D01*
X2816Y3248D02*
X2810Y3254D01*
X2797D01*
X2790Y3248D01*
Y3222D01*
X2797Y3215D01*
X2810D01*
X2816Y3222D01*
X2836Y3215D02*
X2849D01*
X2856Y3222D01*
Y3235D01*
X2849Y3241D01*
X2836D01*
X2829Y3235D01*
Y3222D01*
X2836Y3215D01*
X2869D02*
Y3241D01*
X2875D01*
X2882Y3235D01*
Y3215D01*
Y3235D01*
X2888Y3241D01*
X2895Y3235D01*
Y3215D01*
X2908Y3202D02*
Y3241D01*
X2928D01*
X2934Y3235D01*
Y3222D01*
X2928Y3215D01*
X2908D01*
X2954Y3241D02*
X2967D01*
X2974Y3235D01*
Y3215D01*
X2954D01*
X2947Y3222D01*
X2954Y3228D01*
X2974D01*
X2987Y3241D02*
Y3215D01*
Y3228D01*
X2993Y3235D01*
X3000Y3241D01*
X3006D01*
X3033D02*
X3046D01*
X3052Y3235D01*
Y3215D01*
X3033D01*
X3026Y3222D01*
X3033Y3228D01*
X3052D01*
X3072Y3248D02*
Y3241D01*
X3066D01*
X3079D01*
X3072D01*
Y3222D01*
X3079Y3215D01*
X3105D02*
X3118D01*
X3125Y3222D01*
Y3235D01*
X3118Y3241D01*
X3105D01*
X3098Y3235D01*
Y3222D01*
X3105Y3215D01*
X3138Y3241D02*
Y3215D01*
Y3228D01*
X3144Y3235D01*
X3151Y3241D01*
X3157D01*
X3095Y2604D02*
X3082D01*
X3075Y2598D01*
Y2572D01*
X3082Y2565D01*
X3095D01*
X3101Y2572D01*
Y2598D01*
X3095Y2604D01*
X3114Y2552D02*
Y2591D01*
X3134D01*
X3141Y2585D01*
Y2572D01*
X3134Y2565D01*
X3114D01*
X3154D02*
Y2591D01*
X3167Y2604D01*
X3180Y2591D01*
Y2565D01*
Y2585D01*
X3154D01*
X3193Y2565D02*
Y2591D01*
X3200D01*
X3206Y2585D01*
Y2565D01*
Y2585D01*
X3213Y2591D01*
X3219Y2585D01*
Y2565D01*
X3232Y2552D02*
Y2591D01*
X3252D01*
X3259Y2585D01*
Y2572D01*
X3252Y2565D01*
X3232D01*
X2814Y2769D02*
Y2795D01*
X2795D01*
X2801Y2782D01*
Y2775D01*
X2795Y2769D01*
X2782D01*
X2775Y2775D01*
Y2788D01*
X2782Y2795D01*
X2814Y2756D02*
X2788D01*
X2775Y2743D01*
X2788Y2729D01*
X2814D01*
X2775Y2677D02*
X2814D01*
Y2657D01*
X2808Y2651D01*
X2795D01*
X2788Y2657D01*
Y2677D01*
Y2664D02*
X2775Y2651D01*
Y2618D02*
Y2631D01*
X2782Y2638D01*
X2795D01*
X2801Y2631D01*
Y2618D01*
X2795Y2611D01*
X2788D01*
Y2638D01*
X2762Y2585D02*
Y2579D01*
X2768Y2572D01*
X2801D01*
Y2592D01*
X2795Y2598D01*
X2782D01*
X2775Y2592D01*
Y2572D01*
X2230Y2290D02*
Y2316D01*
X2243Y2329D01*
X2256Y2316D01*
Y2290D01*
Y2310D01*
X2230D01*
X2296Y2329D02*
Y2290D01*
X2276D01*
X2269Y2297D01*
Y2310D01*
X2276Y2316D01*
X2296D01*
X2309Y2277D02*
X2315D01*
X2322Y2283D01*
Y2316D01*
X2387Y2290D02*
Y2329D01*
X2407D01*
X2414Y2323D01*
Y2310D01*
X2407Y2303D01*
X2387D01*
X2401D02*
X2414Y2290D01*
X2446D02*
X2433D01*
X2427Y2297D01*
Y2310D01*
X2433Y2316D01*
X2446D01*
X2453Y2310D01*
Y2303D01*
X2427D01*
X2479Y2277D02*
X2486D01*
X2492Y2283D01*
Y2316D01*
X2473D01*
X2466Y2310D01*
Y2297D01*
X2473Y2290D01*
X2492D01*
D18*
X2600Y2370D02*
Y2401D01*
X2616D01*
X2621Y2396D01*
Y2386D01*
X2616Y2380D01*
X2600D01*
X2610D02*
X2621Y2370D01*
X2631D02*
X2642D01*
X2637D01*
Y2401D01*
X2631Y2396D01*
X2658Y2370D02*
X2668D01*
X2663D01*
Y2401D01*
X2658Y2396D01*
X2416Y2406D02*
X2411Y2411D01*
X2400D01*
X2395Y2406D01*
Y2385D01*
X2400Y2380D01*
X2411D01*
X2416Y2385D01*
X2426Y2380D02*
X2437D01*
X2432D01*
Y2411D01*
X2426Y2406D01*
X2246D02*
X2241Y2411D01*
X2230D01*
X2225Y2406D01*
Y2385D01*
X2230Y2380D01*
X2241D01*
X2246Y2385D01*
X2277Y2380D02*
X2256D01*
X2277Y2401D01*
Y2406D01*
X2272Y2411D01*
X2262D01*
X2256Y2406D01*
X2260Y2005D02*
Y2036D01*
X2276D01*
X2281Y2031D01*
Y2021D01*
X2276Y2015D01*
X2260D01*
X2270D02*
X2281Y2005D01*
X2291D02*
X2302D01*
X2297D01*
Y2036D01*
X2291Y2031D01*
X2800Y2155D02*
Y2186D01*
X2816D01*
X2821Y2181D01*
Y2171D01*
X2816Y2165D01*
X2800D01*
X2810D02*
X2821Y2155D01*
X2852D02*
X2831D01*
X2852Y2176D01*
Y2181D01*
X2847Y2186D01*
X2837D01*
X2831Y2181D01*
X3850Y2260D02*
Y2291D01*
X3866D01*
X3871Y2286D01*
Y2276D01*
X3866Y2270D01*
X3850D01*
X3860D02*
X3871Y2260D01*
X3881Y2286D02*
X3887Y2291D01*
X3897D01*
X3902Y2286D01*
Y2281D01*
X3897Y2276D01*
X3892D01*
X3897D01*
X3902Y2270D01*
Y2265D01*
X3897Y2260D01*
X3887D01*
X3881Y2265D01*
X2905Y2110D02*
Y2141D01*
X2921D01*
X2926Y2136D01*
Y2126D01*
X2921Y2120D01*
X2905D01*
X2915D02*
X2926Y2110D01*
X2952D02*
Y2141D01*
X2936Y2126D01*
X2957D01*
X3295Y1965D02*
Y1996D01*
X3311D01*
X3316Y1991D01*
Y1981D01*
X3311Y1975D01*
X3295D01*
X3305D02*
X3316Y1965D01*
X3347Y1996D02*
X3326D01*
Y1981D01*
X3337Y1986D01*
X3342D01*
X3347Y1981D01*
Y1970D01*
X3342Y1965D01*
X3332D01*
X3326Y1970D01*
X2905Y2035D02*
Y2066D01*
X2921D01*
X2926Y2061D01*
Y2051D01*
X2921Y2045D01*
X2905D01*
X2915D02*
X2926Y2035D01*
X2957Y2066D02*
X2947Y2061D01*
X2936Y2051D01*
Y2040D01*
X2942Y2035D01*
X2952D01*
X2957Y2040D01*
Y2045D01*
X2952Y2051D01*
X2936D01*
X3665Y2600D02*
Y2631D01*
X3681D01*
X3686Y2626D01*
Y2616D01*
X3681Y2610D01*
X3665D01*
X3675D02*
X3686Y2600D01*
X3696Y2631D02*
X3717D01*
Y2626D01*
X3696Y2605D01*
Y2600D01*
X3880Y2375D02*
Y2406D01*
X3896D01*
X3901Y2401D01*
Y2391D01*
X3896Y2385D01*
X3880D01*
X3890D02*
X3901Y2375D01*
X3911Y2401D02*
X3917Y2406D01*
X3927D01*
X3932Y2401D01*
Y2396D01*
X3927Y2391D01*
X3932Y2385D01*
Y2380D01*
X3927Y2375D01*
X3917D01*
X3911Y2380D01*
Y2385D01*
X3917Y2391D01*
X3911Y2396D01*
Y2401D01*
X3917Y2391D02*
X3927D01*
X3885Y2500D02*
Y2531D01*
X3901D01*
X3906Y2526D01*
Y2516D01*
X3901Y2510D01*
X3885D01*
X3895D02*
X3906Y2500D01*
X3916Y2505D02*
X3922Y2500D01*
X3932D01*
X3937Y2505D01*
Y2526D01*
X3932Y2531D01*
X3922D01*
X3916Y2526D01*
Y2521D01*
X3922Y2516D01*
X3937D01*
X3465Y2690D02*
Y2721D01*
X3481D01*
X3486Y2716D01*
Y2706D01*
X3481Y2700D01*
X3465D01*
X3475D02*
X3486Y2690D01*
X3496D02*
X3507D01*
X3502D01*
Y2721D01*
X3496Y2716D01*
X3523D02*
X3528Y2721D01*
X3538D01*
X3544Y2716D01*
Y2695D01*
X3538Y2690D01*
X3528D01*
X3523Y2695D01*
Y2716D01*
M02*
