G04 Layer_Physical_Order=1*
G04 Layer_Color=255*
%FSLAX44Y44*%
%MOMM*%
G71*
G01*
G75*
%ADD10C,0.2540*%
%ADD11R,1.5000X1.5000*%
%ADD12C,1.5000*%
%ADD13R,1.5000X1.5000*%
%ADD14C,1.4000*%
%ADD15R,1.7000X1.7000*%
%ADD16C,1.7000*%
%ADD17C,7.1000*%
G36*
X1118870Y1116330D02*
X1118870Y548640D01*
X1106170Y535940D01*
X603250D01*
X593090Y546100D01*
Y1005839D01*
X612137D01*
Y1013522D01*
X613407Y1013774D01*
X613530Y1013477D01*
X615139Y1011379D01*
X617237Y1009770D01*
X619679Y1008758D01*
X622300Y1008413D01*
X624921Y1008758D01*
X626100Y1009247D01*
X647625Y987721D01*
Y977780D01*
X641470D01*
Y957700D01*
X661341D01*
Y683345D01*
X628640Y650643D01*
X627461Y651132D01*
X624840Y651477D01*
X622219Y651132D01*
X619777Y650120D01*
X617679Y648511D01*
X616070Y646413D01*
X615058Y643971D01*
X614713Y641350D01*
X615058Y638729D01*
X616070Y636287D01*
X617679Y634189D01*
X619777Y632580D01*
X622219Y631568D01*
X624840Y631223D01*
X627461Y631568D01*
X629903Y632580D01*
X632001Y634189D01*
X633610Y636287D01*
X634622Y638729D01*
X634967Y641350D01*
X634622Y643971D01*
X634133Y645150D01*
X667973Y678989D01*
X668815Y680249D01*
X669111Y681736D01*
Y959469D01*
X670381Y960095D01*
X671847Y958970D01*
X674289Y957958D01*
X676910Y957613D01*
X679531Y957958D01*
X681973Y958970D01*
X684071Y960579D01*
X685680Y962677D01*
X686692Y965119D01*
X687037Y967740D01*
X686692Y970361D01*
X685680Y972803D01*
X684071Y974901D01*
X681973Y976510D01*
X679531Y977522D01*
X676910Y977867D01*
X674289Y977522D01*
X671847Y976510D01*
X670381Y975385D01*
X669111Y976011D01*
Y992801D01*
X691087Y1014777D01*
X691929Y1016037D01*
X692225Y1017524D01*
Y1022650D01*
X693495Y1023114D01*
X695472Y1021597D01*
X697155Y1020900D01*
Y984250D01*
X697451Y982763D01*
X698293Y981503D01*
X707510Y972286D01*
Y957700D01*
X727590D01*
Y975947D01*
X728763Y976433D01*
X733657Y971540D01*
X733168Y970361D01*
X732823Y967740D01*
X733168Y965119D01*
X734180Y962677D01*
X735789Y960579D01*
X737887Y958970D01*
X740329Y957958D01*
X742950Y957613D01*
X745571Y957958D01*
X748013Y958970D01*
X750111Y960579D01*
X751720Y962677D01*
X752732Y965119D01*
X753077Y967740D01*
X752732Y970361D01*
X751720Y972803D01*
X750111Y974901D01*
X748013Y976510D01*
X745571Y977522D01*
X742950Y977867D01*
X740329Y977522D01*
X739150Y977033D01*
X730325Y985859D01*
Y1020900D01*
X732008Y1021597D01*
X734314Y1023366D01*
X736083Y1025672D01*
X737196Y1028358D01*
X737575Y1031240D01*
X737196Y1034122D01*
X736083Y1036808D01*
X734314Y1039114D01*
X732008Y1040883D01*
X729322Y1041996D01*
X726440Y1042375D01*
X723558Y1041996D01*
X720872Y1040883D01*
X718566Y1039114D01*
X716797Y1036808D01*
X715684Y1034122D01*
X715305Y1031240D01*
X715684Y1028358D01*
X716797Y1025672D01*
X718566Y1023366D01*
X720872Y1021597D01*
X722555Y1020900D01*
Y984250D01*
X722851Y982763D01*
X723693Y981503D01*
X726243Y978953D01*
X725757Y977780D01*
X713004D01*
X704925Y985859D01*
Y1020900D01*
X706608Y1021597D01*
X708914Y1023366D01*
X710683Y1025672D01*
X711796Y1028358D01*
X712175Y1031240D01*
X711796Y1034122D01*
X710683Y1036808D01*
X708914Y1039114D01*
X706608Y1040883D01*
X703922Y1041996D01*
X701040Y1042375D01*
X698158Y1041996D01*
X695472Y1040883D01*
X693495Y1039366D01*
X692225Y1039830D01*
Y1051983D01*
X705697Y1065455D01*
X771792D01*
X772280Y1064277D01*
X773889Y1062179D01*
X775987Y1060570D01*
X778429Y1059558D01*
X781050Y1059213D01*
X783671Y1059558D01*
X786113Y1060570D01*
X788211Y1062179D01*
X789820Y1064277D01*
X790832Y1066719D01*
X791177Y1069340D01*
X790832Y1071961D01*
X789820Y1074403D01*
X788211Y1076501D01*
X786113Y1078110D01*
X783671Y1079122D01*
X781050Y1079467D01*
X778429Y1079122D01*
X775987Y1078110D01*
X773889Y1076501D01*
X772280Y1074403D01*
X771792Y1073225D01*
X704088D01*
X702601Y1072929D01*
X701341Y1072087D01*
X685593Y1056339D01*
X684751Y1055079D01*
X684455Y1053592D01*
Y1042280D01*
X664600D01*
Y1020200D01*
X683965D01*
X684252Y1018930D01*
X662479Y997157D01*
X661637Y995897D01*
X661341Y994410D01*
Y977780D01*
X655395D01*
Y989330D01*
X655099Y990817D01*
X654257Y992077D01*
X631593Y1014740D01*
X632082Y1015919D01*
X632427Y1018540D01*
X632082Y1021161D01*
X631070Y1023603D01*
X629461Y1025701D01*
X627363Y1027310D01*
X624921Y1028322D01*
X622300Y1028667D01*
X619679Y1028322D01*
X617237Y1027310D01*
X615139Y1025701D01*
X613530Y1023603D01*
X613407Y1023306D01*
X612137Y1023558D01*
Y1026156D01*
X593090D01*
Y1040127D01*
X612260D01*
Y1033900D01*
X632340D01*
Y1053980D01*
X612260D01*
Y1050287D01*
X593090D01*
Y1116330D01*
X609600Y1132840D01*
X1102360Y1132840D01*
X1118870Y1116330D01*
D02*
G37*
%LPC*%
G36*
X624840Y676877D02*
X622219Y676532D01*
X619777Y675520D01*
X617679Y673911D01*
X616070Y671813D01*
X615058Y669371D01*
X614713Y666750D01*
X615058Y664129D01*
X616070Y661687D01*
X617679Y659589D01*
X619777Y657980D01*
X622219Y656968D01*
X624840Y656623D01*
X627461Y656968D01*
X629903Y657980D01*
X632001Y659589D01*
X633610Y661687D01*
X634622Y664129D01*
X634967Y666750D01*
X634622Y669371D01*
X633610Y671813D01*
X632001Y673911D01*
X629903Y675520D01*
X627461Y676532D01*
X624840Y676877D01*
D02*
G37*
G36*
X758190Y648392D02*
Y640207D01*
X766375D01*
X766214Y641427D01*
X765253Y643748D01*
X763724Y645741D01*
X761731Y647270D01*
X759410Y648231D01*
X758190Y648392D01*
D02*
G37*
G36*
X680720Y717901D02*
X678230Y717573D01*
X675909Y716612D01*
X673916Y715083D01*
X672387Y713090D01*
X671426Y710769D01*
X671098Y708279D01*
X671426Y705789D01*
X672387Y703468D01*
X673916Y701475D01*
X675909Y699946D01*
X678230Y698985D01*
X680720Y698657D01*
X683210Y698985D01*
X685531Y699946D01*
X687524Y701475D01*
X689053Y703468D01*
X690014Y705789D01*
X690342Y708279D01*
X690014Y710769D01*
X689053Y713090D01*
X687524Y715083D01*
X685531Y716612D01*
X683210Y717573D01*
X680720Y717901D01*
D02*
G37*
G36*
X624840Y702277D02*
X622219Y701932D01*
X619777Y700920D01*
X617679Y699311D01*
X616070Y697213D01*
X615058Y694771D01*
X614713Y692150D01*
X615058Y689529D01*
X616070Y687087D01*
X617679Y684989D01*
X619777Y683380D01*
X622219Y682368D01*
X624840Y682023D01*
X627461Y682368D01*
X629903Y683380D01*
X632001Y684989D01*
X633610Y687087D01*
X634622Y689529D01*
X634967Y692150D01*
X634622Y694771D01*
X633610Y697213D01*
X632001Y699311D01*
X629903Y700920D01*
X627461Y701932D01*
X624840Y702277D01*
D02*
G37*
G36*
X802640Y676877D02*
X800019Y676532D01*
X797577Y675520D01*
X795479Y673911D01*
X793870Y671813D01*
X792858Y669371D01*
X792513Y666750D01*
X792858Y664129D01*
X793870Y661687D01*
X795479Y659589D01*
X797577Y657980D01*
X800019Y656968D01*
X802640Y656623D01*
X805261Y656968D01*
X807703Y657980D01*
X809801Y659589D01*
X811410Y661687D01*
X812422Y664129D01*
X812767Y666750D01*
X812422Y669371D01*
X811410Y671813D01*
X809801Y673911D01*
X807703Y675520D01*
X805261Y676532D01*
X802640Y676877D01*
D02*
G37*
G36*
X755650Y637667D02*
X747465D01*
X747626Y636447D01*
X748587Y634126D01*
X750116Y632133D01*
X752109Y630604D01*
X754430Y629643D01*
X755650Y629482D01*
Y637667D01*
D02*
G37*
G36*
X680720Y648559D02*
X678230Y648231D01*
X675909Y647270D01*
X673916Y645741D01*
X672387Y643748D01*
X671426Y641427D01*
X671098Y638937D01*
X671426Y636447D01*
X672387Y634126D01*
X673916Y632133D01*
X675909Y630604D01*
X678230Y629643D01*
X680720Y629315D01*
X683210Y629643D01*
X685531Y630604D01*
X687524Y632133D01*
X689053Y634126D01*
X690014Y636447D01*
X690342Y638937D01*
X690014Y641427D01*
X689053Y643748D01*
X687524Y645741D01*
X685531Y647270D01*
X683210Y648231D01*
X680720Y648559D01*
D02*
G37*
G36*
X802640Y626077D02*
X800019Y625732D01*
X797577Y624720D01*
X795479Y623111D01*
X793870Y621013D01*
X792858Y618571D01*
X792513Y615950D01*
X792858Y613329D01*
X793870Y610887D01*
X795479Y608789D01*
X797577Y607180D01*
X800019Y606168D01*
X802640Y605823D01*
X805261Y606168D01*
X807703Y607180D01*
X809801Y608789D01*
X811410Y610887D01*
X812422Y613329D01*
X812767Y615950D01*
X812422Y618571D01*
X811410Y621013D01*
X809801Y623111D01*
X807703Y624720D01*
X805261Y625732D01*
X802640Y626077D01*
D02*
G37*
G36*
X755650Y648392D02*
X754430Y648231D01*
X752109Y647270D01*
X750116Y645741D01*
X748587Y643748D01*
X747626Y641427D01*
X747465Y640207D01*
X755650D01*
Y648392D01*
D02*
G37*
G36*
X802640Y651477D02*
X800019Y651132D01*
X797577Y650120D01*
X795479Y648511D01*
X793870Y646413D01*
X792858Y643971D01*
X792513Y641350D01*
X792858Y638729D01*
X793870Y636287D01*
X795479Y634189D01*
X797577Y632580D01*
X800019Y631568D01*
X802640Y631223D01*
X805261Y631568D01*
X807703Y632580D01*
X809801Y634189D01*
X811410Y636287D01*
X812422Y638729D01*
X812767Y641350D01*
X812422Y643971D01*
X811410Y646413D01*
X809801Y648511D01*
X807703Y650120D01*
X805261Y651132D01*
X802640Y651477D01*
D02*
G37*
G36*
X766375Y637667D02*
X758190D01*
Y629482D01*
X759410Y629643D01*
X761731Y630604D01*
X763724Y632133D01*
X765253Y634126D01*
X766214Y636447D01*
X766375Y637667D01*
D02*
G37*
G36*
X1078230Y753077D02*
X1075609Y752732D01*
X1073167Y751720D01*
X1071069Y750111D01*
X1069460Y748013D01*
X1068448Y745571D01*
X1068103Y742950D01*
X1068448Y740329D01*
X1069460Y737887D01*
X1071069Y735789D01*
X1073167Y734180D01*
X1075609Y733168D01*
X1078230Y732823D01*
X1080851Y733168D01*
X1083293Y734180D01*
X1085391Y735789D01*
X1087000Y737887D01*
X1088012Y740329D01*
X1088357Y742950D01*
X1088012Y745571D01*
X1087000Y748013D01*
X1085391Y750111D01*
X1083293Y751720D01*
X1080851Y752732D01*
X1078230Y753077D01*
D02*
G37*
G36*
X624840D02*
X622219Y752732D01*
X619777Y751720D01*
X617679Y750111D01*
X616070Y748013D01*
X615058Y745571D01*
X614713Y742950D01*
X615058Y740329D01*
X616070Y737887D01*
X617679Y735789D01*
X619777Y734180D01*
X622219Y733168D01*
X624840Y732823D01*
X627461Y733168D01*
X629903Y734180D01*
X632001Y735789D01*
X633610Y737887D01*
X634622Y740329D01*
X634967Y742950D01*
X634622Y745571D01*
X633610Y748013D01*
X632001Y750111D01*
X629903Y751720D01*
X627461Y752732D01*
X624840Y753077D01*
D02*
G37*
G36*
Y778477D02*
X622219Y778132D01*
X619777Y777120D01*
X617679Y775511D01*
X616070Y773413D01*
X615058Y770971D01*
X614713Y768350D01*
X615058Y765729D01*
X616070Y763287D01*
X617679Y761189D01*
X619777Y759580D01*
X622219Y758568D01*
X624840Y758223D01*
X627461Y758568D01*
X629903Y759580D01*
X632001Y761189D01*
X633610Y763287D01*
X634622Y765729D01*
X634967Y768350D01*
X634622Y770971D01*
X633610Y773413D01*
X632001Y775511D01*
X629903Y777120D01*
X627461Y778132D01*
X624840Y778477D01*
D02*
G37*
G36*
X680720Y787243D02*
X678230Y786915D01*
X675909Y785954D01*
X673916Y784425D01*
X672387Y782432D01*
X671426Y780111D01*
X671098Y777621D01*
X671426Y775131D01*
X672387Y772810D01*
X673916Y770817D01*
X675909Y769288D01*
X678230Y768327D01*
X680720Y767999D01*
X683210Y768327D01*
X685531Y769288D01*
X687524Y770817D01*
X689053Y772810D01*
X690014Y775131D01*
X690342Y777621D01*
X690014Y780111D01*
X689053Y782432D01*
X687524Y784425D01*
X685531Y785954D01*
X683210Y786915D01*
X680720Y787243D01*
D02*
G37*
G36*
X1088270Y778390D02*
X1068190D01*
Y758310D01*
X1088270D01*
Y778390D01*
D02*
G37*
G36*
X758190Y717734D02*
Y709549D01*
X766375D01*
X766214Y710769D01*
X765253Y713090D01*
X763724Y715083D01*
X761731Y716612D01*
X759410Y717573D01*
X758190Y717734D01*
D02*
G37*
G36*
X766375Y707009D02*
X758190D01*
Y698824D01*
X759410Y698985D01*
X761731Y699946D01*
X763724Y701475D01*
X765253Y703468D01*
X766214Y705789D01*
X766375Y707009D01*
D02*
G37*
G36*
X755650D02*
X747465D01*
X747626Y705789D01*
X748587Y703468D01*
X750116Y701475D01*
X752109Y699946D01*
X754430Y698985D01*
X755650Y698824D01*
Y707009D01*
D02*
G37*
G36*
X624840Y727677D02*
X622219Y727332D01*
X619777Y726320D01*
X617679Y724711D01*
X616070Y722613D01*
X615058Y720171D01*
X614713Y717550D01*
X615058Y714929D01*
X616070Y712487D01*
X617679Y710389D01*
X619777Y708780D01*
X622219Y707768D01*
X624840Y707423D01*
X627461Y707768D01*
X629903Y708780D01*
X632001Y710389D01*
X633610Y712487D01*
X634622Y714929D01*
X634967Y717550D01*
X634622Y720171D01*
X633610Y722613D01*
X632001Y724711D01*
X629903Y726320D01*
X627461Y727332D01*
X624840Y727677D01*
D02*
G37*
G36*
X755650Y717734D02*
X754430Y717573D01*
X752109Y716612D01*
X750116Y715083D01*
X748587Y713090D01*
X747626Y710769D01*
X747465Y709549D01*
X755650D01*
Y717734D01*
D02*
G37*
G36*
X1078230Y727677D02*
X1075609Y727332D01*
X1073167Y726320D01*
X1071069Y724711D01*
X1069460Y722613D01*
X1068448Y720171D01*
X1068103Y717550D01*
X1068448Y714929D01*
X1069460Y712487D01*
X1071069Y710389D01*
X1073167Y708780D01*
X1075609Y707768D01*
X1078230Y707423D01*
X1080851Y707768D01*
X1083293Y708780D01*
X1085391Y710389D01*
X1087000Y712487D01*
X1088012Y714929D01*
X1088357Y717550D01*
X1088012Y720171D01*
X1087000Y722613D01*
X1085391Y724711D01*
X1083293Y726320D01*
X1080851Y727332D01*
X1078230Y727677D01*
D02*
G37*
G36*
X624840Y626077D02*
X622219Y625732D01*
X619777Y624720D01*
X617679Y623111D01*
X616070Y621013D01*
X615058Y618571D01*
X614713Y615950D01*
X615058Y613329D01*
X616070Y610887D01*
X617679Y608789D01*
X619777Y607180D01*
X622219Y606168D01*
X624840Y605823D01*
X627461Y606168D01*
X629903Y607180D01*
X632001Y608789D01*
X633610Y610887D01*
X634622Y613329D01*
X634967Y615950D01*
X634622Y618571D01*
X633610Y621013D01*
X632001Y623111D01*
X629903Y624720D01*
X627461Y625732D01*
X624840Y626077D01*
D02*
G37*
G36*
X766375Y568325D02*
X758190D01*
Y560140D01*
X759410Y560301D01*
X761731Y561262D01*
X763724Y562791D01*
X765253Y564784D01*
X766214Y567105D01*
X766375Y568325D01*
D02*
G37*
G36*
X755650D02*
X747465D01*
X747626Y567105D01*
X748587Y564784D01*
X750116Y562791D01*
X752109Y561262D01*
X754430Y560301D01*
X755650Y560140D01*
Y568325D01*
D02*
G37*
G36*
Y579050D02*
X754430Y578889D01*
X752109Y577928D01*
X750116Y576399D01*
X748587Y574406D01*
X747626Y572085D01*
X747465Y570865D01*
X755650D01*
Y579050D01*
D02*
G37*
G36*
X861060Y596867D02*
X858439Y596522D01*
X855997Y595510D01*
X853899Y593901D01*
X852290Y591803D01*
X851278Y589361D01*
X850933Y586740D01*
X851278Y584119D01*
X852290Y581677D01*
X853899Y579579D01*
X855997Y577970D01*
X858439Y576958D01*
X861060Y576613D01*
X863681Y576958D01*
X866123Y577970D01*
X868221Y579579D01*
X869830Y581677D01*
X870842Y584119D01*
X871187Y586740D01*
X870842Y589361D01*
X869830Y591803D01*
X868221Y593901D01*
X866123Y595510D01*
X863681Y596522D01*
X861060Y596867D01*
D02*
G37*
G36*
X758190Y579050D02*
Y570865D01*
X766375D01*
X766214Y572085D01*
X765253Y574406D01*
X763724Y576399D01*
X761731Y577928D01*
X759410Y578889D01*
X758190Y579050D01*
D02*
G37*
G36*
X680720Y579217D02*
X678230Y578889D01*
X675909Y577928D01*
X673916Y576399D01*
X672387Y574406D01*
X671426Y572085D01*
X671098Y569595D01*
X671426Y567105D01*
X672387Y564784D01*
X673916Y562791D01*
X675909Y561262D01*
X678230Y560301D01*
X680720Y559973D01*
X683210Y560301D01*
X685531Y561262D01*
X687524Y562791D01*
X689053Y564784D01*
X690014Y567105D01*
X690342Y569595D01*
X690014Y572085D01*
X689053Y574406D01*
X687524Y576399D01*
X685531Y577928D01*
X683210Y578889D01*
X680720Y579217D01*
D02*
G37*
G36*
X999490Y574007D02*
X996869Y573662D01*
X994427Y572650D01*
X992329Y571041D01*
X990720Y568943D01*
X989708Y566501D01*
X989363Y563880D01*
X989708Y561259D01*
X990720Y558817D01*
X992329Y556719D01*
X994427Y555110D01*
X996869Y554098D01*
X999490Y553753D01*
X1002111Y554098D01*
X1004553Y555110D01*
X1006651Y556719D01*
X1008260Y558817D01*
X1009272Y561259D01*
X1009617Y563880D01*
X1009272Y566501D01*
X1008260Y568943D01*
X1006651Y571041D01*
X1004553Y572650D01*
X1002111Y573662D01*
X999490Y574007D01*
D02*
G37*
G36*
X937260Y571467D02*
X934639Y571122D01*
X932197Y570110D01*
X930099Y568501D01*
X928490Y566403D01*
X927478Y563961D01*
X927133Y561340D01*
X927478Y558719D01*
X928490Y556277D01*
X930099Y554179D01*
X932197Y552570D01*
X934639Y551558D01*
X937260Y551213D01*
X939881Y551558D01*
X942323Y552570D01*
X944421Y554179D01*
X946030Y556277D01*
X947042Y558719D01*
X947387Y561340D01*
X947042Y563961D01*
X946030Y566403D01*
X944421Y568501D01*
X942323Y570110D01*
X939881Y571122D01*
X937260Y571467D01*
D02*
G37*
G36*
X1080770Y574007D02*
X1078149Y573662D01*
X1075707Y572650D01*
X1073609Y571041D01*
X1072000Y568943D01*
X1070988Y566501D01*
X1070643Y563880D01*
X1070988Y561259D01*
X1072000Y558817D01*
X1073609Y556719D01*
X1075707Y555110D01*
X1078149Y554098D01*
X1080770Y553753D01*
X1083391Y554098D01*
X1085833Y555110D01*
X1087931Y556719D01*
X1089540Y558817D01*
X1090552Y561259D01*
X1090897Y563880D01*
X1090552Y566501D01*
X1089540Y568943D01*
X1087931Y571041D01*
X1085833Y572650D01*
X1083391Y573662D01*
X1080770Y574007D01*
D02*
G37*
G36*
X812680Y575190D02*
X792600D01*
Y555110D01*
X812680D01*
Y575190D01*
D02*
G37*
G36*
X624840Y575277D02*
X622219Y574932D01*
X619777Y573920D01*
X617679Y572311D01*
X616070Y570213D01*
X615058Y567771D01*
X614713Y565150D01*
X615058Y562529D01*
X616070Y560087D01*
X617679Y557989D01*
X619777Y556380D01*
X622219Y555368D01*
X624840Y555023D01*
X627461Y555368D01*
X629903Y556380D01*
X632001Y557989D01*
X633610Y560087D01*
X634622Y562529D01*
X634967Y565150D01*
X634622Y567771D01*
X633610Y570213D01*
X632001Y572311D01*
X629903Y573920D01*
X627461Y574932D01*
X624840Y575277D01*
D02*
G37*
G36*
X626110Y600509D02*
Y591820D01*
X634799D01*
X634622Y593171D01*
X633610Y595613D01*
X632001Y597711D01*
X629903Y599320D01*
X627461Y600332D01*
X626110Y600509D01*
D02*
G37*
G36*
X623570D02*
X622219Y600332D01*
X619777Y599320D01*
X617679Y597711D01*
X616070Y595613D01*
X615058Y593171D01*
X614881Y591820D01*
X623570D01*
Y600509D01*
D02*
G37*
G36*
X861060Y622267D02*
X858439Y621922D01*
X855997Y620910D01*
X853899Y619301D01*
X852290Y617203D01*
X851278Y614761D01*
X850933Y612140D01*
X851278Y609519D01*
X852290Y607077D01*
X853899Y604979D01*
X855997Y603370D01*
X858439Y602358D01*
X861060Y602013D01*
X863681Y602358D01*
X866123Y603370D01*
X868221Y604979D01*
X869830Y607077D01*
X870842Y609519D01*
X871187Y612140D01*
X870842Y614761D01*
X869830Y617203D01*
X868221Y619301D01*
X866123Y620910D01*
X863681Y621922D01*
X861060Y622267D01*
D02*
G37*
G36*
X1041400Y1005302D02*
X1038910Y1004974D01*
X1036589Y1004013D01*
X1034596Y1002484D01*
X1033067Y1000491D01*
X1032106Y998170D01*
X1031778Y995680D01*
X1032106Y993190D01*
X1033067Y990869D01*
X1034596Y988876D01*
X1036589Y987347D01*
X1037515Y986963D01*
Y654050D01*
X1037811Y652563D01*
X1038653Y651303D01*
X1070730Y619226D01*
Y604640D01*
X1090810D01*
Y624720D01*
X1076224D01*
X1045285Y655659D01*
Y986963D01*
X1046211Y987347D01*
X1048204Y988876D01*
X1049733Y990869D01*
X1050694Y993190D01*
X1051022Y995680D01*
X1050694Y998170D01*
X1049733Y1000491D01*
X1048204Y1002484D01*
X1046211Y1004013D01*
X1043890Y1004974D01*
X1041400Y1005302D01*
D02*
G37*
G36*
X937260Y622267D02*
X934639Y621922D01*
X932197Y620910D01*
X930099Y619301D01*
X928490Y617203D01*
X927478Y614761D01*
X927133Y612140D01*
X927478Y609519D01*
X928490Y607077D01*
X930099Y604979D01*
X932197Y603370D01*
X934639Y602358D01*
X937260Y602013D01*
X939881Y602358D01*
X942323Y603370D01*
X944421Y604979D01*
X946030Y607077D01*
X947042Y609519D01*
X947387Y612140D01*
X947042Y614761D01*
X946030Y617203D01*
X944421Y619301D01*
X942323Y620910D01*
X939881Y621922D01*
X937260Y622267D01*
D02*
G37*
G36*
X634799Y589280D02*
X626110D01*
Y580591D01*
X627461Y580768D01*
X629903Y581780D01*
X632001Y583389D01*
X633610Y585487D01*
X634622Y587929D01*
X634799Y589280D01*
D02*
G37*
G36*
X999490Y599407D02*
X996869Y599062D01*
X994427Y598050D01*
X992329Y596441D01*
X990720Y594343D01*
X989708Y591901D01*
X989363Y589280D01*
X989708Y586659D01*
X990720Y584217D01*
X992329Y582119D01*
X994427Y580510D01*
X996869Y579498D01*
X999490Y579153D01*
X1002111Y579498D01*
X1004553Y580510D01*
X1006651Y582119D01*
X1008260Y584217D01*
X1009272Y586659D01*
X1009617Y589280D01*
X1009272Y591901D01*
X1008260Y594343D01*
X1006651Y596441D01*
X1004553Y598050D01*
X1002111Y599062D01*
X999490Y599407D01*
D02*
G37*
G36*
X937260Y596867D02*
X934639Y596522D01*
X932197Y595510D01*
X930099Y593901D01*
X928490Y591803D01*
X927478Y589361D01*
X927133Y586740D01*
X927478Y584119D01*
X928490Y581677D01*
X930099Y579579D01*
X932197Y577970D01*
X934639Y576958D01*
X937260Y576613D01*
X939881Y576958D01*
X942323Y577970D01*
X944421Y579579D01*
X946030Y581677D01*
X947042Y584119D01*
X947387Y586740D01*
X947042Y589361D01*
X946030Y591803D01*
X944421Y593901D01*
X942323Y595510D01*
X939881Y596522D01*
X937260Y596867D01*
D02*
G37*
G36*
X1080770Y599407D02*
X1078149Y599062D01*
X1075707Y598050D01*
X1073609Y596441D01*
X1072000Y594343D01*
X1070988Y591901D01*
X1070643Y589280D01*
X1070988Y586659D01*
X1072000Y584217D01*
X1073609Y582119D01*
X1075707Y580510D01*
X1078149Y579498D01*
X1080770Y579153D01*
X1083391Y579498D01*
X1085833Y580510D01*
X1087931Y582119D01*
X1089540Y584217D01*
X1090552Y586659D01*
X1090897Y589280D01*
X1090552Y591901D01*
X1089540Y594343D01*
X1087931Y596441D01*
X1085833Y598050D01*
X1083391Y599062D01*
X1080770Y599407D01*
D02*
G37*
G36*
X623570Y589280D02*
X614881D01*
X615058Y587929D01*
X616070Y585487D01*
X617679Y583389D01*
X619777Y581780D01*
X622219Y580768D01*
X623570Y580591D01*
Y589280D01*
D02*
G37*
G36*
X802640Y600677D02*
X800019Y600332D01*
X797577Y599320D01*
X795479Y597711D01*
X793870Y595613D01*
X792858Y593171D01*
X792513Y590550D01*
X792858Y587929D01*
X793870Y585487D01*
X795479Y583389D01*
X797577Y581780D01*
X800019Y580768D01*
X802640Y580423D01*
X805261Y580768D01*
X807703Y581780D01*
X809801Y583389D01*
X811410Y585487D01*
X812422Y587929D01*
X812767Y590550D01*
X812422Y593171D01*
X811410Y595613D01*
X809801Y597711D01*
X807703Y599320D01*
X805261Y600332D01*
X802640Y600677D01*
D02*
G37*
G36*
X1095890Y1003180D02*
X1075810D01*
Y983100D01*
X1095890D01*
Y1003180D01*
D02*
G37*
G36*
X779780Y991870D02*
X771010D01*
Y983100D01*
X779780D01*
Y991870D01*
D02*
G37*
G36*
X826770Y1005302D02*
X824280Y1004974D01*
X821959Y1004013D01*
X819966Y1002484D01*
X818437Y1000491D01*
X817476Y998170D01*
X817148Y995680D01*
X817476Y993190D01*
X818437Y990869D01*
X819966Y988876D01*
X821959Y987347D01*
X824280Y986386D01*
X826770Y986058D01*
X829260Y986386D01*
X831581Y987347D01*
X833574Y988876D01*
X835103Y990869D01*
X836064Y993190D01*
X836392Y995680D01*
X836064Y998170D01*
X835103Y1000491D01*
X833574Y1002484D01*
X831581Y1004013D01*
X829260Y1004974D01*
X826770Y1005302D01*
D02*
G37*
G36*
X912622D02*
X910132Y1004974D01*
X907811Y1004013D01*
X905818Y1002484D01*
X904289Y1000491D01*
X903328Y998170D01*
X903000Y995680D01*
X903328Y993190D01*
X904289Y990869D01*
X905818Y988876D01*
X907811Y987347D01*
X910132Y986386D01*
X912622Y986058D01*
X915112Y986386D01*
X917433Y987347D01*
X919426Y988876D01*
X920955Y990869D01*
X921916Y993190D01*
X922244Y995680D01*
X921916Y998170D01*
X920955Y1000491D01*
X919426Y1002484D01*
X917433Y1004013D01*
X915112Y1004974D01*
X912622Y1005302D01*
D02*
G37*
G36*
X869696D02*
X867206Y1004974D01*
X864885Y1004013D01*
X862892Y1002484D01*
X861363Y1000491D01*
X860402Y998170D01*
X860074Y995680D01*
X860402Y993190D01*
X861363Y990869D01*
X862892Y988876D01*
X864885Y987347D01*
X867206Y986386D01*
X869696Y986058D01*
X872186Y986386D01*
X874507Y987347D01*
X876500Y988876D01*
X878029Y990869D01*
X878990Y993190D01*
X879318Y995680D01*
X878990Y998170D01*
X878029Y1000491D01*
X876500Y1002484D01*
X874507Y1004013D01*
X872186Y1004974D01*
X869696Y1005302D01*
D02*
G37*
G36*
X758190Y925760D02*
Y917575D01*
X766375D01*
X766214Y918795D01*
X765253Y921116D01*
X763724Y923109D01*
X761731Y924638D01*
X759410Y925599D01*
X758190Y925760D01*
D02*
G37*
G36*
X766375Y915035D02*
X758190D01*
Y906850D01*
X759410Y907011D01*
X761731Y907972D01*
X763724Y909501D01*
X765253Y911494D01*
X766214Y913815D01*
X766375Y915035D01*
D02*
G37*
G36*
X755650D02*
X747465D01*
X747626Y913815D01*
X748587Y911494D01*
X750116Y909501D01*
X752109Y907972D01*
X754430Y907011D01*
X755650Y906850D01*
Y915035D01*
D02*
G37*
G36*
X634880Y930790D02*
X614800D01*
Y910710D01*
X634880D01*
Y930790D01*
D02*
G37*
G36*
X755650Y925760D02*
X754430Y925599D01*
X752109Y924638D01*
X750116Y923109D01*
X748587Y921116D01*
X747626Y918795D01*
X747465Y917575D01*
X755650D01*
Y925760D01*
D02*
G37*
G36*
X1088270Y932060D02*
X1068190D01*
Y911980D01*
X1088270D01*
Y932060D01*
D02*
G37*
G36*
X998474Y1005302D02*
X995984Y1004974D01*
X993663Y1004013D01*
X991670Y1002484D01*
X990141Y1000491D01*
X989180Y998170D01*
X988852Y995680D01*
X989180Y993190D01*
X989563Y992263D01*
X985313Y988013D01*
X984471Y986753D01*
X984175Y985266D01*
Y626110D01*
X984471Y624623D01*
X985313Y623363D01*
X989450Y619226D01*
Y604640D01*
X1009530D01*
Y624720D01*
X994944D01*
X991945Y627719D01*
Y709084D01*
X993215Y709710D01*
X994427Y708780D01*
X996869Y707768D01*
X999490Y707423D01*
X1002111Y707768D01*
X1004553Y708780D01*
X1006651Y710389D01*
X1008260Y712487D01*
X1009272Y714929D01*
X1009617Y717550D01*
X1009272Y720171D01*
X1008260Y722613D01*
X1006651Y724711D01*
X1004553Y726320D01*
X1002111Y727332D01*
X999490Y727677D01*
X996869Y727332D01*
X994427Y726320D01*
X993215Y725390D01*
X991945Y726016D01*
Y734484D01*
X993215Y735110D01*
X994427Y734180D01*
X996869Y733168D01*
X999490Y732823D01*
X1002111Y733168D01*
X1004553Y734180D01*
X1006651Y735789D01*
X1008260Y737887D01*
X1009272Y740329D01*
X1009617Y742950D01*
X1009272Y745571D01*
X1008260Y748013D01*
X1006651Y750111D01*
X1004553Y751720D01*
X1002111Y752732D01*
X999490Y753077D01*
X996869Y752732D01*
X994427Y751720D01*
X993215Y750790D01*
X991945Y751416D01*
Y758310D01*
X1009530D01*
Y778390D01*
X991945D01*
Y862754D01*
X993215Y863380D01*
X994427Y862450D01*
X996869Y861438D01*
X999490Y861093D01*
X1002111Y861438D01*
X1004553Y862450D01*
X1006651Y864059D01*
X1008260Y866157D01*
X1009272Y868599D01*
X1009617Y871220D01*
X1009272Y873841D01*
X1008260Y876283D01*
X1006651Y878381D01*
X1004553Y879990D01*
X1002111Y881002D01*
X999490Y881347D01*
X996869Y881002D01*
X994427Y879990D01*
X993215Y879060D01*
X991945Y879686D01*
Y888154D01*
X993215Y888780D01*
X994427Y887850D01*
X996869Y886838D01*
X999490Y886493D01*
X1002111Y886838D01*
X1004553Y887850D01*
X1006651Y889459D01*
X1008260Y891557D01*
X1009272Y893999D01*
X1009617Y896620D01*
X1009272Y899241D01*
X1008260Y901683D01*
X1006651Y903781D01*
X1004553Y905390D01*
X1002111Y906402D01*
X999490Y906747D01*
X996869Y906402D01*
X994427Y905390D01*
X993215Y904460D01*
X991945Y905086D01*
Y911980D01*
X1009530D01*
Y932060D01*
X991945D01*
Y983657D01*
X995057Y986769D01*
X995984Y986386D01*
X998474Y986058D01*
X1000964Y986386D01*
X1003285Y987347D01*
X1005278Y988876D01*
X1006807Y990869D01*
X1007768Y993190D01*
X1008096Y995680D01*
X1007768Y998170D01*
X1006807Y1000491D01*
X1005278Y1002484D01*
X1003285Y1004013D01*
X1000964Y1004974D01*
X998474Y1005302D01*
D02*
G37*
G36*
X912622Y1081502D02*
X910132Y1081174D01*
X907811Y1080213D01*
X905818Y1078684D01*
X904289Y1076691D01*
X903328Y1074370D01*
X903000Y1071880D01*
X903328Y1069390D01*
X904289Y1067069D01*
X905818Y1065076D01*
X907811Y1063547D01*
X910132Y1062586D01*
X912622Y1062258D01*
X915112Y1062586D01*
X917433Y1063547D01*
X919426Y1065076D01*
X920955Y1067069D01*
X921916Y1069390D01*
X922244Y1071880D01*
X921916Y1074370D01*
X920955Y1076691D01*
X919426Y1078684D01*
X917433Y1080213D01*
X915112Y1081174D01*
X912622Y1081502D01*
D02*
G37*
G36*
X869696D02*
X867206Y1081174D01*
X864885Y1080213D01*
X862892Y1078684D01*
X861363Y1076691D01*
X860402Y1074370D01*
X860074Y1071880D01*
X860402Y1069390D01*
X861363Y1067069D01*
X862892Y1065076D01*
X864885Y1063547D01*
X867206Y1062586D01*
X869696Y1062258D01*
X872186Y1062586D01*
X874507Y1063547D01*
X876500Y1065076D01*
X878029Y1067069D01*
X878990Y1069390D01*
X879318Y1071880D01*
X878990Y1074370D01*
X878029Y1076691D01*
X876500Y1078684D01*
X874507Y1080213D01*
X872186Y1081174D01*
X869696Y1081502D01*
D02*
G37*
G36*
X955548D02*
X953058Y1081174D01*
X950737Y1080213D01*
X948744Y1078684D01*
X947215Y1076691D01*
X946254Y1074370D01*
X945926Y1071880D01*
X946254Y1069390D01*
X946637Y1068463D01*
X940863Y1062689D01*
X940021Y1061429D01*
X939725Y1059942D01*
Y939135D01*
X938771Y938298D01*
X937260Y938497D01*
X934639Y938152D01*
X932197Y937140D01*
X930099Y935531D01*
X928490Y933433D01*
X927478Y930991D01*
X927133Y928370D01*
X927478Y925749D01*
X927967Y924570D01*
X923083Y919687D01*
X922241Y918427D01*
X921945Y916940D01*
Y794385D01*
X922241Y792898D01*
X923083Y791638D01*
X927967Y786755D01*
X927478Y785576D01*
X927133Y782955D01*
X927478Y780334D01*
X927967Y779155D01*
X923083Y774272D01*
X922241Y773012D01*
X921945Y771525D01*
Y648970D01*
X922241Y647483D01*
X923083Y646223D01*
X927967Y641340D01*
X927478Y640161D01*
X927133Y637540D01*
X927478Y634919D01*
X928490Y632477D01*
X930099Y630379D01*
X932197Y628770D01*
X934639Y627758D01*
X937260Y627413D01*
X939881Y627758D01*
X942323Y628770D01*
X944421Y630379D01*
X946030Y632477D01*
X947042Y634919D01*
X947387Y637540D01*
X947042Y640161D01*
X946030Y642603D01*
X944421Y644701D01*
X942323Y646310D01*
X939881Y647322D01*
X937260Y647667D01*
X934639Y647322D01*
X933460Y646833D01*
X929715Y650579D01*
Y698289D01*
X930985Y698915D01*
X932197Y697985D01*
X934639Y696973D01*
X937260Y696628D01*
X939881Y696973D01*
X942323Y697985D01*
X944421Y699594D01*
X946030Y701692D01*
X947042Y704134D01*
X947387Y706755D01*
X947042Y709376D01*
X946030Y711818D01*
X944421Y713916D01*
X942323Y715525D01*
X939881Y716537D01*
X937260Y716882D01*
X934639Y716537D01*
X932197Y715525D01*
X930985Y714595D01*
X929715Y715221D01*
Y723689D01*
X930985Y724315D01*
X932197Y723385D01*
X934639Y722373D01*
X937260Y722028D01*
X939881Y722373D01*
X942323Y723385D01*
X944421Y724994D01*
X946030Y727092D01*
X947042Y729534D01*
X947387Y732155D01*
X947042Y734776D01*
X946553Y735955D01*
X958295Y747696D01*
X959137Y748956D01*
X959433Y750443D01*
Y986963D01*
X960359Y987347D01*
X962352Y988876D01*
X963881Y990869D01*
X964842Y993190D01*
X965170Y995680D01*
X964842Y998170D01*
X963881Y1000491D01*
X962352Y1002484D01*
X960359Y1004013D01*
X958038Y1004974D01*
X955548Y1005302D01*
X953058Y1004974D01*
X950737Y1004013D01*
X948765Y1002500D01*
X948286Y1002563D01*
X947495Y1002831D01*
Y1058333D01*
X952131Y1062969D01*
X953058Y1062586D01*
X955548Y1062258D01*
X958038Y1062586D01*
X960359Y1063547D01*
X962352Y1065076D01*
X963881Y1067069D01*
X964842Y1069390D01*
X965170Y1071880D01*
X964842Y1074370D01*
X963881Y1076691D01*
X962352Y1078684D01*
X960359Y1080213D01*
X958038Y1081174D01*
X955548Y1081502D01*
D02*
G37*
G36*
X1041400D02*
X1038910Y1081174D01*
X1036589Y1080213D01*
X1034596Y1078684D01*
X1033067Y1076691D01*
X1032106Y1074370D01*
X1031778Y1071880D01*
X1032106Y1069390D01*
X1033067Y1067069D01*
X1034596Y1065076D01*
X1036589Y1063547D01*
X1038910Y1062586D01*
X1041400Y1062258D01*
X1043890Y1062586D01*
X1046211Y1063547D01*
X1048204Y1065076D01*
X1049733Y1067069D01*
X1050694Y1069390D01*
X1051022Y1071880D01*
X1050694Y1074370D01*
X1049733Y1076691D01*
X1048204Y1078684D01*
X1046211Y1080213D01*
X1043890Y1081174D01*
X1041400Y1081502D01*
D02*
G37*
G36*
X998474D02*
X995984Y1081174D01*
X993663Y1080213D01*
X991670Y1078684D01*
X990141Y1076691D01*
X989180Y1074370D01*
X988852Y1071880D01*
X989180Y1069390D01*
X990141Y1067069D01*
X991670Y1065076D01*
X993663Y1063547D01*
X995984Y1062586D01*
X998474Y1062258D01*
X1000964Y1062586D01*
X1003285Y1063547D01*
X1005278Y1065076D01*
X1006807Y1067069D01*
X1007768Y1069390D01*
X1008096Y1071880D01*
X1007768Y1074370D01*
X1006807Y1076691D01*
X1005278Y1078684D01*
X1003285Y1080213D01*
X1000964Y1081174D01*
X998474Y1081502D01*
D02*
G37*
G36*
X826770D02*
X824280Y1081174D01*
X821959Y1080213D01*
X819966Y1078684D01*
X818437Y1076691D01*
X817476Y1074370D01*
X817148Y1071880D01*
X817476Y1069390D01*
X818437Y1067069D01*
X819966Y1065076D01*
X821959Y1063547D01*
X824280Y1062586D01*
X826770Y1062258D01*
X829260Y1062586D01*
X831581Y1063547D01*
X833574Y1065076D01*
X835103Y1067069D01*
X836064Y1069390D01*
X836392Y1071880D01*
X836064Y1074370D01*
X835103Y1076691D01*
X833574Y1078684D01*
X831581Y1080213D01*
X829260Y1081174D01*
X826770Y1081502D01*
D02*
G37*
G36*
X1085850Y1028667D02*
X1083229Y1028322D01*
X1080787Y1027310D01*
X1078689Y1025701D01*
X1077080Y1023603D01*
X1076068Y1021161D01*
X1075723Y1018540D01*
X1076068Y1015919D01*
X1077080Y1013477D01*
X1078689Y1011379D01*
X1080787Y1009770D01*
X1083229Y1008758D01*
X1085850Y1008413D01*
X1088471Y1008758D01*
X1090913Y1009770D01*
X1093011Y1011379D01*
X1094620Y1013477D01*
X1095632Y1015919D01*
X1095977Y1018540D01*
X1095632Y1021161D01*
X1094620Y1023603D01*
X1093011Y1025701D01*
X1090913Y1027310D01*
X1088471Y1028322D01*
X1085850Y1028667D01*
D02*
G37*
G36*
X779780Y1003180D02*
X771010D01*
Y994410D01*
X779780D01*
Y1003180D01*
D02*
G37*
G36*
X781050Y1054067D02*
X778429Y1053722D01*
X775987Y1052710D01*
X773889Y1051101D01*
X772280Y1049003D01*
X771268Y1046561D01*
X770923Y1043940D01*
X771268Y1041319D01*
X772280Y1038877D01*
X773889Y1036779D01*
X775987Y1035170D01*
X778429Y1034158D01*
X781050Y1033813D01*
X783671Y1034158D01*
X784850Y1034647D01*
X793556Y1025941D01*
Y1013188D01*
X792382Y1012702D01*
X790343Y1014740D01*
X790832Y1015919D01*
X791177Y1018540D01*
X790832Y1021161D01*
X789820Y1023603D01*
X788211Y1025701D01*
X786113Y1027310D01*
X783671Y1028322D01*
X781050Y1028667D01*
X778429Y1028322D01*
X775987Y1027310D01*
X773889Y1025701D01*
X772280Y1023603D01*
X771268Y1021161D01*
X770923Y1018540D01*
X771268Y1015919D01*
X772280Y1013477D01*
X773889Y1011379D01*
X775987Y1009770D01*
X778429Y1008758D01*
X781050Y1008413D01*
X783671Y1008758D01*
X784850Y1009247D01*
X788475Y1005621D01*
Y1003180D01*
X782320D01*
Y993140D01*
Y983100D01*
X786477D01*
X786963Y981927D01*
X783383Y978347D01*
X782541Y977086D01*
X782245Y975600D01*
Y711200D01*
X782541Y709713D01*
X783383Y708453D01*
X789733Y702103D01*
X790993Y701261D01*
X792480Y700965D01*
X795550D01*
X795981Y699695D01*
X795479Y699311D01*
X793870Y697213D01*
X792858Y694771D01*
X792513Y692150D01*
X792858Y689529D01*
X793870Y687087D01*
X795479Y684989D01*
X797577Y683380D01*
X800019Y682368D01*
X802640Y682023D01*
X805261Y682368D01*
X807703Y683380D01*
X809801Y684989D01*
X811410Y687087D01*
X812422Y689529D01*
X812767Y692150D01*
X812422Y694771D01*
X811410Y697213D01*
X809801Y699311D01*
X809000Y699925D01*
X809202Y701234D01*
X809281Y701311D01*
X810467Y702103D01*
X816817Y708453D01*
X817659Y709713D01*
X817955Y711200D01*
Y731520D01*
X817659Y733007D01*
X816817Y734267D01*
X811933Y739150D01*
X812422Y740329D01*
X812767Y742950D01*
X812422Y745571D01*
X811410Y748013D01*
X809801Y750111D01*
X807703Y751720D01*
X805261Y752732D01*
X802640Y753077D01*
X800019Y752732D01*
X797577Y751720D01*
X796365Y750790D01*
X795095Y751416D01*
Y759884D01*
X796365Y760510D01*
X797577Y759580D01*
X800019Y758568D01*
X802640Y758223D01*
X805261Y758568D01*
X806440Y759057D01*
X835077Y730419D01*
Y583438D01*
X835373Y581951D01*
X836215Y580691D01*
X851767Y565140D01*
X851278Y563961D01*
X850933Y561340D01*
X851278Y558719D01*
X852290Y556277D01*
X853899Y554179D01*
X855997Y552570D01*
X858439Y551558D01*
X861060Y551213D01*
X863681Y551558D01*
X866123Y552570D01*
X868221Y554179D01*
X869830Y556277D01*
X870842Y558719D01*
X871187Y561340D01*
X870842Y563961D01*
X869830Y566403D01*
X868221Y568501D01*
X866123Y570110D01*
X863681Y571122D01*
X861060Y571467D01*
X858439Y571122D01*
X857260Y570633D01*
X842847Y585047D01*
Y648600D01*
X844020Y649086D01*
X851020Y642086D01*
Y627500D01*
X871100D01*
Y647580D01*
X856514D01*
X848555Y655539D01*
Y712107D01*
X849728Y712593D01*
X851767Y710555D01*
X851278Y709376D01*
X850933Y706755D01*
X851278Y704134D01*
X852290Y701692D01*
X853899Y699594D01*
X855997Y697985D01*
X858439Y696973D01*
X861060Y696628D01*
X863681Y696973D01*
X866123Y697985D01*
X868221Y699594D01*
X869830Y701692D01*
X870842Y704134D01*
X871187Y706755D01*
X870842Y709376D01*
X869830Y711818D01*
X868221Y713916D01*
X866123Y715525D01*
X863681Y716537D01*
X861060Y716882D01*
X858439Y716537D01*
X857260Y716048D01*
X853634Y719674D01*
Y723597D01*
X854904Y724223D01*
X855997Y723385D01*
X858439Y722373D01*
X861060Y722028D01*
X863681Y722373D01*
X866123Y723385D01*
X868221Y724994D01*
X869830Y727092D01*
X870842Y729534D01*
X871187Y732155D01*
X870842Y734776D01*
X869830Y737218D01*
X868221Y739316D01*
X866123Y740925D01*
X863681Y741937D01*
X861060Y742282D01*
X858439Y741937D01*
X855997Y740925D01*
X854904Y740087D01*
X853634Y740713D01*
Y748997D01*
X854904Y749623D01*
X855997Y748785D01*
X858439Y747773D01*
X861060Y747428D01*
X863681Y747773D01*
X866123Y748785D01*
X868221Y750394D01*
X869830Y752492D01*
X870842Y754934D01*
X871187Y757555D01*
X870842Y760176D01*
X869830Y762618D01*
X868221Y764716D01*
X866123Y766325D01*
X863681Y767337D01*
X861060Y767682D01*
X858439Y767337D01*
X855997Y766325D01*
X854904Y765487D01*
X853634Y766113D01*
Y772040D01*
X854353Y772915D01*
X871100D01*
Y792995D01*
X864945D01*
Y822960D01*
X864649Y824447D01*
X863807Y825707D01*
X852123Y837391D01*
X850863Y838233D01*
X849376Y838529D01*
X814155D01*
X811933Y840750D01*
X812422Y841929D01*
X812767Y844550D01*
X812422Y847171D01*
X811410Y849613D01*
X809801Y851711D01*
X807703Y853320D01*
X805261Y854332D01*
X802640Y854677D01*
X800019Y854332D01*
X797577Y853320D01*
X796365Y852390D01*
X795095Y853016D01*
Y861484D01*
X796365Y862110D01*
X797577Y861180D01*
X800019Y860168D01*
X802640Y859823D01*
X805261Y860168D01*
X807703Y861180D01*
X809801Y862789D01*
X811410Y864887D01*
X812422Y867329D01*
X812767Y869950D01*
X812422Y872571D01*
X811410Y875013D01*
X809801Y877111D01*
X807703Y878720D01*
X805261Y879732D01*
X802640Y880077D01*
X800019Y879732D01*
X797577Y878720D01*
X796365Y877790D01*
X795095Y878416D01*
Y886884D01*
X796365Y887510D01*
X797577Y886580D01*
X800019Y885568D01*
X802640Y885223D01*
X805261Y885568D01*
X807703Y886580D01*
X809801Y888189D01*
X811410Y890287D01*
X812422Y892729D01*
X812767Y895350D01*
X812422Y897971D01*
X811933Y899150D01*
X828887Y916103D01*
X852678D01*
X854165Y916399D01*
X855425Y917241D01*
X856514Y918330D01*
X871100D01*
Y938410D01*
X851020D01*
Y923873D01*
X827278D01*
X825791Y923577D01*
X824531Y922735D01*
X806440Y904643D01*
X805261Y905132D01*
X802640Y905477D01*
X800019Y905132D01*
X797577Y904120D01*
X796365Y903190D01*
X795095Y903816D01*
Y912284D01*
X796365Y912910D01*
X797577Y911980D01*
X800019Y910968D01*
X802640Y910623D01*
X805261Y910968D01*
X807703Y911980D01*
X809801Y913589D01*
X811410Y915687D01*
X812422Y918129D01*
X812767Y920750D01*
X812422Y923371D01*
X811410Y925813D01*
X809801Y927911D01*
X807703Y929520D01*
X805261Y930532D01*
X802640Y930877D01*
X800019Y930532D01*
X797577Y929520D01*
X796365Y928590D01*
X795095Y929216D01*
Y943525D01*
X800187Y948617D01*
X801029Y949877D01*
X801325Y951364D01*
Y1027550D01*
X801029Y1029036D01*
X800187Y1030297D01*
X790343Y1040140D01*
X790832Y1041319D01*
X791177Y1043940D01*
X790832Y1046561D01*
X789820Y1049003D01*
X788211Y1051101D01*
X786113Y1052710D01*
X783671Y1053722D01*
X781050Y1054067D01*
D02*
G37*
G36*
X1085850Y1079467D02*
X1083229Y1079122D01*
X1080787Y1078110D01*
X1078689Y1076501D01*
X1077080Y1074403D01*
X1076068Y1071961D01*
X1075723Y1069340D01*
X1076068Y1066719D01*
X1077080Y1064277D01*
X1078689Y1062179D01*
X1080787Y1060570D01*
X1083229Y1059558D01*
X1085850Y1059213D01*
X1088471Y1059558D01*
X1090913Y1060570D01*
X1093011Y1062179D01*
X1094620Y1064277D01*
X1095632Y1066719D01*
X1095977Y1069340D01*
X1095632Y1071961D01*
X1094620Y1074403D01*
X1093011Y1076501D01*
X1090913Y1078110D01*
X1088471Y1079122D01*
X1085850Y1079467D01*
D02*
G37*
G36*
Y1054067D02*
X1083229Y1053722D01*
X1080787Y1052710D01*
X1078689Y1051101D01*
X1077080Y1049003D01*
X1076068Y1046561D01*
X1075723Y1043940D01*
X1076068Y1041319D01*
X1077080Y1038877D01*
X1078689Y1036779D01*
X1080787Y1035170D01*
X1083229Y1034158D01*
X1085850Y1033813D01*
X1088471Y1034158D01*
X1090913Y1035170D01*
X1093011Y1036779D01*
X1094620Y1038877D01*
X1095632Y1041319D01*
X1095977Y1043940D01*
X1095632Y1046561D01*
X1094620Y1049003D01*
X1093011Y1051101D01*
X1090913Y1052710D01*
X1088471Y1053722D01*
X1085850Y1054067D01*
D02*
G37*
G36*
X624840Y854677D02*
X622219Y854332D01*
X619777Y853320D01*
X617679Y851711D01*
X616070Y849613D01*
X615058Y847171D01*
X614713Y844550D01*
X615058Y841929D01*
X616070Y839487D01*
X617679Y837389D01*
X619777Y835780D01*
X622219Y834768D01*
X624840Y834423D01*
X627461Y834768D01*
X629903Y835780D01*
X632001Y837389D01*
X633610Y839487D01*
X634622Y841929D01*
X634967Y844550D01*
X634622Y847171D01*
X633610Y849613D01*
X632001Y851711D01*
X629903Y853320D01*
X627461Y854332D01*
X624840Y854677D01*
D02*
G37*
G36*
Y829277D02*
X622219Y828932D01*
X619777Y827920D01*
X617679Y826311D01*
X616070Y824213D01*
X615058Y821771D01*
X614713Y819150D01*
X615058Y816529D01*
X616070Y814087D01*
X617679Y811989D01*
X619777Y810380D01*
X622219Y809368D01*
X624840Y809023D01*
X627461Y809368D01*
X629903Y810380D01*
X632001Y811989D01*
X633610Y814087D01*
X634622Y816529D01*
X634967Y819150D01*
X634622Y821771D01*
X633610Y824213D01*
X632001Y826311D01*
X629903Y827920D01*
X627461Y828932D01*
X624840Y829277D01*
D02*
G37*
G36*
X680720Y856585D02*
X678230Y856257D01*
X675909Y855296D01*
X673916Y853767D01*
X672387Y851774D01*
X671426Y849453D01*
X671098Y846963D01*
X671426Y844473D01*
X672387Y842152D01*
X673916Y840159D01*
X675909Y838630D01*
X678230Y837669D01*
X680720Y837341D01*
X683210Y837669D01*
X685531Y838630D01*
X687524Y840159D01*
X689053Y842152D01*
X690014Y844473D01*
X690342Y846963D01*
X690014Y849453D01*
X689053Y851774D01*
X687524Y853767D01*
X685531Y855296D01*
X683210Y856257D01*
X680720Y856585D01*
D02*
G37*
G36*
X766375Y845693D02*
X758190D01*
Y837508D01*
X759410Y837669D01*
X761731Y838630D01*
X763724Y840159D01*
X765253Y842152D01*
X766214Y844473D01*
X766375Y845693D01*
D02*
G37*
G36*
X755650D02*
X747465D01*
X747626Y844473D01*
X748587Y842152D01*
X750116Y840159D01*
X752109Y838630D01*
X754430Y837669D01*
X755650Y837508D01*
Y845693D01*
D02*
G37*
G36*
X766375Y776351D02*
X758190D01*
Y768166D01*
X759410Y768327D01*
X761731Y769288D01*
X763724Y770817D01*
X765253Y772810D01*
X766214Y775131D01*
X766375Y776351D01*
D02*
G37*
G36*
X755650D02*
X747465D01*
X747626Y775131D01*
X748587Y772810D01*
X750116Y770817D01*
X752109Y769288D01*
X754430Y768327D01*
X755650Y768166D01*
Y776351D01*
D02*
G37*
G36*
Y787076D02*
X754430Y786915D01*
X752109Y785954D01*
X750116Y784425D01*
X748587Y782432D01*
X747626Y780111D01*
X747465Y778891D01*
X755650D01*
Y787076D01*
D02*
G37*
G36*
X624840Y803877D02*
X622219Y803532D01*
X619777Y802520D01*
X617679Y800911D01*
X616070Y798813D01*
X615058Y796371D01*
X614713Y793750D01*
X615058Y791129D01*
X616070Y788687D01*
X617679Y786589D01*
X619777Y784980D01*
X622219Y783968D01*
X624840Y783623D01*
X627461Y783968D01*
X629903Y784980D01*
X632001Y786589D01*
X633610Y788687D01*
X634622Y791129D01*
X634967Y793750D01*
X634622Y796371D01*
X633610Y798813D01*
X632001Y800911D01*
X629903Y802520D01*
X627461Y803532D01*
X624840Y803877D01*
D02*
G37*
G36*
X758190Y787076D02*
Y778891D01*
X766375D01*
X766214Y780111D01*
X765253Y782432D01*
X763724Y784425D01*
X761731Y785954D01*
X759410Y786915D01*
X758190Y787076D01*
D02*
G37*
G36*
X861060Y862297D02*
X858439Y861952D01*
X855997Y860940D01*
X853899Y859331D01*
X852290Y857233D01*
X851278Y854791D01*
X850933Y852170D01*
X851278Y849549D01*
X852290Y847107D01*
X853899Y845009D01*
X855997Y843400D01*
X858439Y842388D01*
X861060Y842043D01*
X863681Y842388D01*
X866123Y843400D01*
X868221Y845009D01*
X869830Y847107D01*
X870842Y849549D01*
X871187Y852170D01*
X870842Y854791D01*
X869830Y857233D01*
X868221Y859331D01*
X866123Y860940D01*
X863681Y861952D01*
X861060Y862297D01*
D02*
G37*
G36*
X624840Y905477D02*
X622219Y905132D01*
X619777Y904120D01*
X617679Y902511D01*
X616070Y900413D01*
X615058Y897971D01*
X614713Y895350D01*
X615058Y892729D01*
X616070Y890287D01*
X617679Y888189D01*
X619777Y886580D01*
X622219Y885568D01*
X624840Y885223D01*
X627461Y885568D01*
X629903Y886580D01*
X632001Y888189D01*
X633610Y890287D01*
X634622Y892729D01*
X634967Y895350D01*
X634622Y897971D01*
X633610Y900413D01*
X632001Y902511D01*
X629903Y904120D01*
X627461Y905132D01*
X624840Y905477D01*
D02*
G37*
G36*
X861060Y887697D02*
X858439Y887352D01*
X855997Y886340D01*
X853899Y884731D01*
X852290Y882633D01*
X851278Y880191D01*
X850933Y877570D01*
X851278Y874949D01*
X852290Y872507D01*
X853899Y870409D01*
X855997Y868800D01*
X858439Y867788D01*
X861060Y867443D01*
X863681Y867788D01*
X866123Y868800D01*
X868221Y870409D01*
X869830Y872507D01*
X870842Y874949D01*
X871187Y877570D01*
X870842Y880191D01*
X869830Y882633D01*
X868221Y884731D01*
X866123Y886340D01*
X863681Y887352D01*
X861060Y887697D01*
D02*
G37*
G36*
X1078230Y906747D02*
X1075609Y906402D01*
X1073167Y905390D01*
X1071069Y903781D01*
X1069460Y901683D01*
X1068448Y899241D01*
X1068103Y896620D01*
X1068448Y893999D01*
X1069460Y891557D01*
X1071069Y889459D01*
X1073167Y887850D01*
X1075609Y886838D01*
X1078230Y886493D01*
X1080851Y886838D01*
X1083293Y887850D01*
X1085391Y889459D01*
X1087000Y891557D01*
X1088012Y893999D01*
X1088357Y896620D01*
X1088012Y899241D01*
X1087000Y901683D01*
X1085391Y903781D01*
X1083293Y905390D01*
X1080851Y906402D01*
X1078230Y906747D01*
D02*
G37*
G36*
X680720Y925927D02*
X678230Y925599D01*
X675909Y924638D01*
X673916Y923109D01*
X672387Y921116D01*
X671426Y918795D01*
X671098Y916305D01*
X671426Y913815D01*
X672387Y911494D01*
X673916Y909501D01*
X675909Y907972D01*
X678230Y907011D01*
X680720Y906683D01*
X683210Y907011D01*
X685531Y907972D01*
X687524Y909501D01*
X689053Y911494D01*
X690014Y913815D01*
X690342Y916305D01*
X690014Y918795D01*
X689053Y921116D01*
X687524Y923109D01*
X685531Y924638D01*
X683210Y925599D01*
X680720Y925927D01*
D02*
G37*
G36*
X861060Y913097D02*
X858439Y912752D01*
X855997Y911740D01*
X853899Y910131D01*
X852290Y908033D01*
X851278Y905591D01*
X850933Y902970D01*
X851278Y900349D01*
X852290Y897907D01*
X853899Y895809D01*
X855997Y894200D01*
X858439Y893188D01*
X861060Y892843D01*
X863681Y893188D01*
X866123Y894200D01*
X868221Y895809D01*
X869830Y897907D01*
X870842Y900349D01*
X871187Y902970D01*
X870842Y905591D01*
X869830Y908033D01*
X868221Y910131D01*
X866123Y911740D01*
X863681Y912752D01*
X861060Y913097D01*
D02*
G37*
G36*
X624840Y880077D02*
X622219Y879732D01*
X619777Y878720D01*
X617679Y877111D01*
X616070Y875013D01*
X615058Y872571D01*
X614713Y869950D01*
X615058Y867329D01*
X616070Y864887D01*
X617679Y862789D01*
X619777Y861180D01*
X622219Y860168D01*
X624840Y859823D01*
X627461Y860168D01*
X629903Y861180D01*
X632001Y862789D01*
X633610Y864887D01*
X634622Y867329D01*
X634967Y869950D01*
X634622Y872571D01*
X633610Y875013D01*
X632001Y877111D01*
X629903Y878720D01*
X627461Y879732D01*
X624840Y880077D01*
D02*
G37*
G36*
X758190Y856418D02*
Y848233D01*
X766375D01*
X766214Y849453D01*
X765253Y851774D01*
X763724Y853767D01*
X761731Y855296D01*
X759410Y856257D01*
X758190Y856418D01*
D02*
G37*
G36*
X1078230Y881347D02*
X1075609Y881002D01*
X1073167Y879990D01*
X1071069Y878381D01*
X1069460Y876283D01*
X1068448Y873841D01*
X1068103Y871220D01*
X1068448Y868599D01*
X1069460Y866157D01*
X1071069Y864059D01*
X1073167Y862450D01*
X1075609Y861438D01*
X1078230Y861093D01*
X1080851Y861438D01*
X1083293Y862450D01*
X1085391Y864059D01*
X1087000Y866157D01*
X1088012Y868599D01*
X1088357Y871220D01*
X1088012Y873841D01*
X1087000Y876283D01*
X1085391Y878381D01*
X1083293Y879990D01*
X1080851Y881002D01*
X1078230Y881347D01*
D02*
G37*
G36*
X755650Y856418D02*
X754430Y856257D01*
X752109Y855296D01*
X750116Y853767D01*
X748587Y851774D01*
X747626Y849453D01*
X747465Y848233D01*
X755650D01*
Y856418D01*
D02*
G37*
%LPD*%
G36*
X950737Y987347D02*
X951663Y986963D01*
Y752052D01*
X941060Y741448D01*
X939881Y741937D01*
X937260Y742282D01*
X934639Y741937D01*
X932197Y740925D01*
X930985Y739995D01*
X929715Y740621D01*
Y749089D01*
X930985Y749715D01*
X932197Y748785D01*
X934639Y747773D01*
X937260Y747428D01*
X939881Y747773D01*
X942323Y748785D01*
X944421Y750394D01*
X946030Y752492D01*
X947042Y754934D01*
X947387Y757555D01*
X947042Y760176D01*
X946030Y762618D01*
X944421Y764716D01*
X942323Y766325D01*
X939881Y767337D01*
X937260Y767682D01*
X934639Y767337D01*
X932197Y766325D01*
X930985Y765395D01*
X929715Y766021D01*
Y769916D01*
X933460Y773662D01*
X934639Y773173D01*
X937260Y772828D01*
X939881Y773173D01*
X942323Y774185D01*
X944421Y775794D01*
X946030Y777892D01*
X947042Y780334D01*
X947387Y782955D01*
X947042Y785576D01*
X946030Y788018D01*
X944421Y790116D01*
X942323Y791725D01*
X939881Y792737D01*
X937260Y793082D01*
X934639Y792737D01*
X933460Y792248D01*
X929715Y795994D01*
Y843704D01*
X930985Y844330D01*
X932197Y843400D01*
X934639Y842388D01*
X937260Y842043D01*
X939881Y842388D01*
X942323Y843400D01*
X944421Y845009D01*
X946030Y847107D01*
X947042Y849549D01*
X947387Y852170D01*
X947042Y854791D01*
X946030Y857233D01*
X944421Y859331D01*
X942323Y860940D01*
X939881Y861952D01*
X937260Y862297D01*
X934639Y861952D01*
X932197Y860940D01*
X930985Y860010D01*
X929715Y860636D01*
Y869104D01*
X930985Y869730D01*
X932197Y868800D01*
X934639Y867788D01*
X937260Y867443D01*
X939881Y867788D01*
X942323Y868800D01*
X944421Y870409D01*
X946030Y872507D01*
X947042Y874949D01*
X947387Y877570D01*
X947042Y880191D01*
X946030Y882633D01*
X944421Y884731D01*
X942323Y886340D01*
X939881Y887352D01*
X937260Y887697D01*
X934639Y887352D01*
X932197Y886340D01*
X930985Y885410D01*
X929715Y886036D01*
Y894504D01*
X930985Y895130D01*
X932197Y894200D01*
X934639Y893188D01*
X937260Y892843D01*
X939881Y893188D01*
X942323Y894200D01*
X944421Y895809D01*
X946030Y897907D01*
X947042Y900349D01*
X947387Y902970D01*
X947042Y905591D01*
X946030Y908033D01*
X944421Y910131D01*
X942323Y911740D01*
X939881Y912752D01*
X937260Y913097D01*
X934639Y912752D01*
X932197Y911740D01*
X930985Y910810D01*
X929715Y911436D01*
Y915331D01*
X933460Y919077D01*
X934639Y918588D01*
X937260Y918243D01*
X939881Y918588D01*
X942323Y919600D01*
X944421Y921209D01*
X946030Y923307D01*
X947042Y925749D01*
X947387Y928370D01*
X947042Y930991D01*
X946528Y932230D01*
X947199Y933233D01*
X947495Y934720D01*
Y988529D01*
X948286Y988797D01*
X948765Y988860D01*
X950737Y987347D01*
D02*
G37*
G36*
X797577Y835780D02*
X800019Y834768D01*
X802640Y834423D01*
X805261Y834768D01*
X806440Y835257D01*
X809799Y831897D01*
X811059Y831055D01*
X812546Y830759D01*
X847767D01*
X857175Y821351D01*
Y792995D01*
X851020D01*
Y777923D01*
X849847Y777437D01*
X811933Y815350D01*
X812422Y816529D01*
X812767Y819150D01*
X812422Y821771D01*
X811410Y824213D01*
X809801Y826311D01*
X807703Y827920D01*
X805261Y828932D01*
X802640Y829277D01*
X800019Y828932D01*
X797577Y827920D01*
X796365Y826990D01*
X795095Y827616D01*
Y836084D01*
X796365Y836710D01*
X797577Y835780D01*
D02*
G37*
G36*
Y784980D02*
X800019Y783968D01*
X802640Y783623D01*
X805261Y783968D01*
X806440Y784457D01*
X840785Y750111D01*
Y737358D01*
X839612Y736872D01*
X811933Y764550D01*
X812422Y765729D01*
X812767Y768350D01*
X812422Y770971D01*
X811410Y773413D01*
X809801Y775511D01*
X807703Y777120D01*
X805261Y778132D01*
X802640Y778477D01*
X800019Y778132D01*
X797577Y777120D01*
X796365Y776190D01*
X795095Y776816D01*
Y785284D01*
X796365Y785910D01*
X797577Y784980D01*
D02*
G37*
G36*
Y810380D02*
X800019Y809368D01*
X802640Y809023D01*
X805261Y809368D01*
X806440Y809857D01*
X845865Y770431D01*
Y757678D01*
X844692Y757192D01*
X811933Y789950D01*
X812422Y791129D01*
X812767Y793750D01*
X812422Y796371D01*
X811410Y798813D01*
X809801Y800911D01*
X807703Y802520D01*
X805261Y803532D01*
X802640Y803877D01*
X800019Y803532D01*
X797577Y802520D01*
X796365Y801590D01*
X795095Y802216D01*
Y810684D01*
X796365Y811310D01*
X797577Y810380D01*
D02*
G37*
D10*
X925830Y648970D02*
X937260Y637540D01*
X925830Y648970D02*
Y771525D01*
X937260Y782955D01*
X925830Y916940D02*
X937260Y928370D01*
X925830Y794385D02*
Y916940D01*
Y794385D02*
X937260Y782955D01*
X988060Y985266D02*
X998474Y995680D01*
X988060Y626110D02*
Y985266D01*
Y626110D02*
X999490Y614680D01*
X1041400Y654050D02*
X1080770Y614680D01*
X1041400Y654050D02*
Y995680D01*
X802640Y768350D02*
X838962Y732028D01*
Y583438D02*
Y732028D01*
Y583438D02*
X861060Y561340D01*
X849750Y718065D02*
X861060Y706755D01*
X849750Y718065D02*
Y772040D01*
X802640Y819150D02*
X849750Y772040D01*
X622300Y1018540D02*
X651510Y989330D01*
Y967740D02*
Y989330D01*
X802640Y844550D02*
X812546Y834644D01*
X849376D01*
X861060Y822960D01*
Y782955D02*
Y822960D01*
X704088Y1069340D02*
X781050D01*
X688340Y1053592D02*
X704088Y1069340D01*
X688340Y1017524D02*
Y1053592D01*
X665226Y994410D02*
X688340Y1017524D01*
X665226Y681736D02*
Y994410D01*
X624840Y641350D02*
X665226Y681736D01*
X852678Y919988D02*
X861060Y928370D01*
X827278Y919988D02*
X852678D01*
X802640Y895350D02*
X827278Y919988D01*
X791210Y728980D02*
X802640Y717550D01*
X791210Y728980D02*
Y945134D01*
X797440Y951364D01*
Y1027550D01*
X781050Y1043940D02*
X797440Y1027550D01*
X781050Y1018540D02*
X792360Y1007230D01*
Y981830D02*
Y1007230D01*
X786130Y975600D02*
X792360Y981830D01*
X786130Y711200D02*
Y975600D01*
Y711200D02*
X792480Y704850D01*
X807720D01*
X814070Y711200D01*
Y731520D01*
X802640Y742950D02*
X814070Y731520D01*
X937260Y732155D02*
X955548Y750443D01*
Y995680D01*
X844670Y653930D02*
X861060Y637540D01*
X844670Y653930D02*
Y751720D01*
X802640Y793750D02*
X844670Y751720D01*
X701040Y984250D02*
X717550Y967740D01*
X701040Y984250D02*
Y1031240D01*
X937260Y928370D02*
X943610Y934720D01*
Y1059942D01*
X955548Y1071880D01*
X726440Y984250D02*
X742950Y967740D01*
X726440Y984250D02*
Y1031240D01*
X598170Y1045208D02*
X608327D01*
X596900Y1015997D02*
X607057D01*
X601978Y1021076D02*
Y1010919D01*
D11*
X781050Y993140D02*
D03*
X624840Y920750D02*
D03*
X802640Y565150D02*
D03*
X1085850Y993140D02*
D03*
X1080770Y614680D02*
D03*
X999490D02*
D03*
X1078230Y768350D02*
D03*
X999490D02*
D03*
X1078230Y922020D02*
D03*
X999490D02*
D03*
X622300Y1043940D02*
D03*
D12*
X781050Y1018540D02*
D03*
Y1043940D02*
D03*
Y1069340D02*
D03*
X861060Y612140D02*
D03*
Y586740D02*
D03*
Y561340D02*
D03*
X937260Y637540D02*
D03*
Y612140D02*
D03*
Y586740D02*
D03*
Y561340D02*
D03*
X861060Y757555D02*
D03*
Y732155D02*
D03*
Y706755D02*
D03*
X937260Y782955D02*
D03*
Y757555D02*
D03*
Y732155D02*
D03*
Y706755D02*
D03*
X624840Y895350D02*
D03*
Y869950D02*
D03*
Y844550D02*
D03*
Y819150D02*
D03*
Y793750D02*
D03*
Y768350D02*
D03*
Y742950D02*
D03*
Y717550D02*
D03*
Y692150D02*
D03*
Y666750D02*
D03*
Y641350D02*
D03*
Y615950D02*
D03*
Y590550D02*
D03*
Y565150D02*
D03*
X802640Y590550D02*
D03*
Y615950D02*
D03*
Y641350D02*
D03*
Y666750D02*
D03*
Y692150D02*
D03*
Y717550D02*
D03*
Y742950D02*
D03*
Y768350D02*
D03*
Y793750D02*
D03*
Y819150D02*
D03*
Y844550D02*
D03*
Y869950D02*
D03*
Y895350D02*
D03*
Y920750D02*
D03*
X861060Y902970D02*
D03*
Y877570D02*
D03*
Y852170D02*
D03*
X937260Y928370D02*
D03*
Y902970D02*
D03*
Y877570D02*
D03*
Y852170D02*
D03*
X676910Y967740D02*
D03*
X742950D02*
D03*
X1085850Y1018540D02*
D03*
Y1043940D02*
D03*
Y1069340D02*
D03*
X1080770Y563880D02*
D03*
Y589280D02*
D03*
X999490Y563880D02*
D03*
Y589280D02*
D03*
X1078230Y717550D02*
D03*
Y742950D02*
D03*
X999490Y717550D02*
D03*
Y742950D02*
D03*
X1078230Y871220D02*
D03*
Y896620D02*
D03*
X999490Y871220D02*
D03*
Y896620D02*
D03*
X622300Y1018540D02*
D03*
D13*
X861060Y637540D02*
D03*
Y782955D02*
D03*
Y928370D02*
D03*
X651510Y967740D02*
D03*
X717550D02*
D03*
D14*
X756920Y916305D02*
D03*
X680720D02*
D03*
X756920Y846963D02*
D03*
X680720D02*
D03*
X756920Y777621D02*
D03*
X680720D02*
D03*
X756920Y708279D02*
D03*
X680720D02*
D03*
X756920Y638937D02*
D03*
X680720D02*
D03*
X756920Y569595D02*
D03*
X680720D02*
D03*
X1041400Y1071880D02*
D03*
Y995680D02*
D03*
X998474Y1071880D02*
D03*
Y995680D02*
D03*
X955548Y1071880D02*
D03*
Y995680D02*
D03*
X912622Y1071880D02*
D03*
Y995680D02*
D03*
X869696Y1071880D02*
D03*
Y995680D02*
D03*
X826770Y1071880D02*
D03*
Y995680D02*
D03*
D15*
X675640Y1031240D02*
D03*
D16*
X701040D02*
D03*
X726440D02*
D03*
D17*
X1169670Y833120D02*
D03*
X855345Y1184910D02*
D03*
X857631Y481330D02*
D03*
X541020Y833120D02*
D03*
M02*
