G04 Layer_Color=2752767*
%FSLAX44Y44*%
%MOMM*%
G71*
G01*
G75*
%ADD29C,0.0508*%
%ADD30C,0.0677*%
D29*
X779018Y991108D02*
Y995172D01*
X783082D01*
Y991108D01*
X779018D01*
Y1016508D02*
Y1020572D01*
X783082D01*
Y1016508D01*
X779018D01*
Y1041908D02*
Y1045972D01*
X783082D01*
Y1041908D01*
X779018D01*
Y1067308D02*
Y1071372D01*
X783082D01*
Y1067308D01*
X779018D01*
X859028Y635508D02*
Y639572D01*
X863092D01*
Y635508D01*
X859028D01*
Y610108D02*
Y614172D01*
X863092D01*
Y610108D01*
X859028D01*
Y584708D02*
Y588772D01*
X863092D01*
Y584708D01*
X859028D01*
Y559308D02*
Y563372D01*
X863092D01*
Y559308D01*
X859028D01*
X935228Y635508D02*
Y639572D01*
X939292D01*
Y635508D01*
X935228D01*
Y610108D02*
Y614172D01*
X939292D01*
Y610108D01*
X935228D01*
Y584708D02*
Y588772D01*
X939292D01*
Y584708D01*
X935228D01*
Y559308D02*
Y563372D01*
X939292D01*
Y559308D01*
X935228D01*
X859028Y780923D02*
Y784987D01*
X863092D01*
Y780923D01*
X859028D01*
Y755523D02*
Y759587D01*
X863092D01*
Y755523D01*
X859028D01*
Y730123D02*
Y734187D01*
X863092D01*
Y730123D01*
X859028D01*
Y704723D02*
Y708787D01*
X863092D01*
Y704723D01*
X859028D01*
X935228Y780923D02*
Y784987D01*
X939292D01*
Y780923D01*
X935228D01*
Y755523D02*
Y759587D01*
X939292D01*
Y755523D01*
X935228D01*
Y730123D02*
Y734187D01*
X939292D01*
Y730123D01*
X935228D01*
Y704723D02*
Y708787D01*
X939292D01*
Y704723D01*
X935228D01*
X622808Y918718D02*
Y922782D01*
X626872D01*
Y918718D01*
X622808D01*
Y893318D02*
Y897382D01*
X626872D01*
Y893318D01*
X622808D01*
Y867918D02*
Y871982D01*
X626872D01*
Y867918D01*
X622808D01*
Y842518D02*
Y846582D01*
X626872D01*
Y842518D01*
X622808D01*
Y817118D02*
Y821182D01*
X626872D01*
Y817118D01*
X622808D01*
Y791718D02*
Y795782D01*
X626872D01*
Y791718D01*
X622808D01*
Y766318D02*
Y770382D01*
X626872D01*
Y766318D01*
X622808D01*
Y740918D02*
Y744982D01*
X626872D01*
Y740918D01*
X622808D01*
Y715518D02*
Y719582D01*
X626872D01*
Y715518D01*
X622808D01*
Y690118D02*
Y694182D01*
X626872D01*
Y690118D01*
X622808D01*
Y664718D02*
Y668782D01*
X626872D01*
Y664718D01*
X622808D01*
Y639318D02*
Y643382D01*
X626872D01*
Y639318D01*
X622808D01*
Y613918D02*
Y617982D01*
X626872D01*
Y613918D01*
X622808D01*
Y588518D02*
Y592582D01*
X626872D01*
Y588518D01*
X622808D01*
Y563118D02*
Y567182D01*
X626872D01*
Y563118D01*
X622808D01*
X800608D02*
Y567182D01*
X804672D01*
Y563118D01*
X800608D01*
Y588518D02*
Y592582D01*
X804672D01*
Y588518D01*
X800608D01*
Y613918D02*
Y617982D01*
X804672D01*
Y613918D01*
X800608D01*
Y639318D02*
Y643382D01*
X804672D01*
Y639318D01*
X800608D01*
Y664718D02*
Y668782D01*
X804672D01*
Y664718D01*
X800608D01*
Y690118D02*
Y694182D01*
X804672D01*
Y690118D01*
X800608D01*
Y715518D02*
Y719582D01*
X804672D01*
Y715518D01*
X800608D01*
Y740918D02*
Y744982D01*
X804672D01*
Y740918D01*
X800608D01*
Y766318D02*
Y770382D01*
X804672D01*
Y766318D01*
X800608D01*
Y791718D02*
Y795782D01*
X804672D01*
Y791718D01*
X800608D01*
Y817118D02*
Y821182D01*
X804672D01*
Y817118D01*
X800608D01*
Y842518D02*
Y846582D01*
X804672D01*
Y842518D01*
X800608D01*
Y867918D02*
Y871982D01*
X804672D01*
Y867918D01*
X800608D01*
Y893318D02*
Y897382D01*
X804672D01*
Y893318D01*
X800608D01*
Y918718D02*
Y922782D01*
X804672D01*
Y918718D01*
X800608D01*
X859028Y926338D02*
Y930402D01*
X863092D01*
Y926338D01*
X859028D01*
Y900938D02*
Y905002D01*
X863092D01*
Y900938D01*
X859028D01*
Y875538D02*
Y879602D01*
X863092D01*
Y875538D01*
X859028D01*
Y850138D02*
Y854202D01*
X863092D01*
Y850138D01*
X859028D01*
X935228Y926338D02*
Y930402D01*
X939292D01*
Y926338D01*
X935228D01*
Y900938D02*
Y905002D01*
X939292D01*
Y900938D01*
X935228D01*
Y875538D02*
Y879602D01*
X939292D01*
Y875538D01*
X935228D01*
Y850138D02*
Y854202D01*
X939292D01*
Y850138D01*
X935228D01*
X674878Y965708D02*
Y969772D01*
X678942D01*
Y965708D01*
X674878D01*
X649478D02*
Y969772D01*
X653542D01*
Y965708D01*
X649478D01*
X740918D02*
Y969772D01*
X744982D01*
Y965708D01*
X740918D01*
X715518D02*
Y969772D01*
X719582D01*
Y965708D01*
X715518D01*
X1083818Y991108D02*
Y995172D01*
X1087882D01*
Y991108D01*
X1083818D01*
Y1016508D02*
Y1020572D01*
X1087882D01*
Y1016508D01*
X1083818D01*
Y1041908D02*
Y1045972D01*
X1087882D01*
Y1041908D01*
X1083818D01*
Y1067308D02*
Y1071372D01*
X1087882D01*
Y1067308D01*
X1083818D01*
X1078738Y561848D02*
Y565912D01*
X1082802D01*
Y561848D01*
X1078738D01*
Y587248D02*
Y591312D01*
X1082802D01*
Y587248D01*
X1078738D01*
Y612648D02*
Y616712D01*
X1082802D01*
Y612648D01*
X1078738D01*
X997458Y561848D02*
Y565912D01*
X1001522D01*
Y561848D01*
X997458D01*
Y587248D02*
Y591312D01*
X1001522D01*
Y587248D01*
X997458D01*
Y612648D02*
Y616712D01*
X1001522D01*
Y612648D01*
X997458D01*
X1076198Y715518D02*
Y719582D01*
X1080262D01*
Y715518D01*
X1076198D01*
Y740918D02*
Y744982D01*
X1080262D01*
Y740918D01*
X1076198D01*
Y766318D02*
Y770382D01*
X1080262D01*
Y766318D01*
X1076198D01*
X997458Y715518D02*
Y719582D01*
X1001522D01*
Y715518D01*
X997458D01*
Y740918D02*
Y744982D01*
X1001522D01*
Y740918D01*
X997458D01*
Y766318D02*
Y770382D01*
X1001522D01*
Y766318D01*
X997458D01*
X1076198Y869188D02*
Y873252D01*
X1080262D01*
Y869188D01*
X1076198D01*
Y894588D02*
Y898652D01*
X1080262D01*
Y894588D01*
X1076198D01*
Y919988D02*
Y924052D01*
X1080262D01*
Y919988D01*
X1076198D01*
X997458Y869188D02*
Y873252D01*
X1001522D01*
Y869188D01*
X997458D01*
Y894588D02*
Y898652D01*
X1001522D01*
Y894588D01*
X997458D01*
Y919988D02*
Y924052D01*
X1001522D01*
Y919988D01*
X997458D01*
X620268Y1016508D02*
Y1020572D01*
X624332D01*
Y1016508D01*
X620268D01*
Y1041908D02*
Y1045972D01*
X624332D01*
Y1041908D01*
X620268D01*
X675640Y1029208D02*
X673608Y1033272D01*
X677672D01*
X675640Y1029208D01*
X701040D02*
X699008Y1033272D01*
X703072D01*
X701040Y1029208D01*
X726440D02*
X724408Y1033272D01*
X728472D01*
X726440Y1029208D01*
X1169670Y831088D02*
X1170686Y832104D01*
X1171702D01*
X1170686Y833120D01*
X1171702Y834136D01*
X1170686D01*
X1169670Y835152D01*
X1168654Y834136D01*
X1167638D01*
X1168654Y833120D01*
X1167638Y832104D01*
X1168654D01*
X1169670Y831088D01*
X855345Y1182878D02*
X856361Y1183894D01*
X857377D01*
X856361Y1184910D01*
X857377Y1185926D01*
X856361D01*
X855345Y1186942D01*
X854329Y1185926D01*
X853313D01*
X854329Y1184910D01*
X853313Y1183894D01*
X854329D01*
X855345Y1182878D01*
X857631Y479298D02*
X858647Y480314D01*
X859663D01*
X858647Y481330D01*
X859663Y482346D01*
X858647D01*
X857631Y483362D01*
X856615Y482346D01*
X855599D01*
X856615Y481330D01*
X855599Y480314D01*
X856615D01*
X857631Y479298D01*
X541020Y831088D02*
X542036Y832104D01*
X543052D01*
X542036Y833120D01*
X543052Y834136D01*
X542036D01*
X541020Y835152D01*
X540004Y834136D01*
X538988D01*
X540004Y833120D01*
X538988Y832104D01*
X540004D01*
X541020Y831088D01*
D30*
X758952Y916305D02*
G03*
X758952Y916305I-2032J0D01*
G01*
X682752D02*
G03*
X682752Y916305I-2032J0D01*
G01*
X758952Y846963D02*
G03*
X758952Y846963I-2032J0D01*
G01*
X682752D02*
G03*
X682752Y846963I-2032J0D01*
G01*
X758952Y777621D02*
G03*
X758952Y777621I-2032J0D01*
G01*
X682752D02*
G03*
X682752Y777621I-2032J0D01*
G01*
X758952Y708279D02*
G03*
X758952Y708279I-2032J0D01*
G01*
X682752D02*
G03*
X682752Y708279I-2032J0D01*
G01*
X758952Y638937D02*
G03*
X758952Y638937I-2032J0D01*
G01*
X682752D02*
G03*
X682752Y638937I-2032J0D01*
G01*
X758952Y569595D02*
G03*
X758952Y569595I-2032J0D01*
G01*
X682752D02*
G03*
X682752Y569595I-2032J0D01*
G01*
X1043432Y1071880D02*
G03*
X1043432Y1071880I-2032J0D01*
G01*
Y995680D02*
G03*
X1043432Y995680I-2032J0D01*
G01*
X1000506Y1071880D02*
G03*
X1000506Y1071880I-2032J0D01*
G01*
Y995680D02*
G03*
X1000506Y995680I-2032J0D01*
G01*
X957580Y1071880D02*
G03*
X957580Y1071880I-2032J0D01*
G01*
Y995680D02*
G03*
X957580Y995680I-2032J0D01*
G01*
X914654Y1071880D02*
G03*
X914654Y1071880I-2032J0D01*
G01*
Y995680D02*
G03*
X914654Y995680I-2032J0D01*
G01*
X871728Y1071880D02*
G03*
X871728Y1071880I-2032J0D01*
G01*
Y995680D02*
G03*
X871728Y995680I-2032J0D01*
G01*
X828802Y1071880D02*
G03*
X828802Y1071880I-2032J0D01*
G01*
Y995680D02*
G03*
X828802Y995680I-2032J0D01*
G01*
M02*
