M48
;Layer_Color=9474304
;FILE_FORMAT=4:4
METRIC,LZ
;TYPE=PLATED
T1F00S00C0.8500
T2F00S00C0.9000
T3F00S00C1.1000
;TYPE=NON_PLATED
T4F00S00C3.2000
%
T01
X0068072Y00569595
Y00638937
Y00708279
Y00777621
X0075692
Y00708279
Y00638937
Y00569595
Y00846963
Y00916305
X0068072
Y00846963
X0082677Y0099568
X00869696
X00912622
X00955548
X00998474
X010414
Y0107188
X00998474
X00955548
X00912622
X00869696
X0082677
T02
X0080264Y0056515
Y0059055
Y0061595
Y0064135
Y0066675
Y0069215
Y0071755
Y0074295
Y0076835
X0086106Y00757555
Y00782955
Y00732155
Y00706755
Y0063754
Y0061214
Y0058674
Y0056134
X0093726
Y0058674
Y0061214
Y0063754
Y00706755
Y00732155
Y00757555
Y00782955
X0099949Y0076835
Y0074295
Y0071755
X0107823
Y0074295
Y0076835
X0108077Y0061468
Y0058928
Y0056388
X0099949
Y0058928
Y0061468
X0062484Y0061595
Y0064135
Y0066675
Y0069215
Y0071755
Y0074295
Y0076835
Y0059055
Y0056515
Y0079375
Y0081915
Y0084455
Y0086995
Y0089535
Y0092075
X0065151Y0096774
X0067691
X0071755
X0074295
X0078105Y0099314
Y0101854
Y0104394
Y0106934
X006223Y0104394
Y0101854
X0080264Y0092075
Y0089535
Y0086995
Y0084455
Y0081915
Y0079375
X0086106Y0085217
Y0087757
Y0090297
Y0092837
X0093726
Y0090297
Y0087757
Y0085217
X0099949Y0087122
Y0089662
Y0092202
X0107823
Y0089662
Y0087122
X0108585Y0099314
Y0101854
Y0104394
Y0106934
T03
X0067564Y0103124
X0070104
X0072644
T04
X00857631Y0048133
X0054102Y0083312
X0116967
X00855345Y0118491
M30
