G04 Layer_Physical_Order=2*
G04 Layer_Color=16711680*
%FSLAX44Y44*%
%MOMM*%
G71*
G01*
G75*
%ADD10C,0.2540*%
%ADD11R,1.5000X1.5000*%
%ADD12C,1.5000*%
%ADD13R,1.5000X1.5000*%
%ADD14C,1.4000*%
%ADD15R,1.7000X1.7000*%
%ADD16C,1.7000*%
%ADD17C,7.1000*%
D10*
X937260Y561340D02*
X966978D01*
X969518Y563880D01*
X999490D01*
X1080770D01*
X937260Y612140D02*
X966978D01*
X969518Y614680D01*
X999490D01*
Y717550D02*
X1078230D01*
X999490Y871220D02*
X1078230D01*
X676910Y967740D02*
X717550D01*
X826770Y1071880D02*
X869696D01*
X912622D01*
X955548D01*
X998474D01*
X1041400D01*
X680720Y638937D02*
X692023Y627634D01*
X845566D01*
X861060Y612140D01*
X688340Y1043940D02*
X701040Y1031240D01*
X622300Y1043940D02*
X688340D01*
X680720Y846963D02*
X715391Y881634D01*
X861060Y877570D02*
Y881634D01*
X1065530Y909320D02*
X1078230Y922020D01*
X976376Y909320D02*
X1065530D01*
X956056Y889000D02*
X976376Y909320D01*
X948690Y889000D02*
X956056D01*
X937260Y877570D02*
X948690Y889000D01*
X786130Y1031240D02*
X826770Y1071880D01*
X726440Y1031240D02*
X786130D01*
X826770Y995680D02*
X919480Y902970D01*
X937260D01*
Y732155D02*
X965581D01*
X989076Y755650D01*
X1065530D01*
X1078230Y768350D01*
X851690Y902970D02*
X861060D01*
X812828Y941832D02*
X851690Y902970D01*
X706247Y941832D02*
X812828D01*
X680720Y916305D02*
X706247Y941832D01*
X850900Y576580D02*
X861060Y586740D01*
X779526Y576580D02*
X850900D01*
X761492Y558546D02*
X779526Y576580D01*
X691769Y558546D02*
X761492D01*
X680720Y569595D02*
X691769Y558546D01*
X680720Y708279D02*
X702691Y730250D01*
X836168D01*
X838073Y732155D01*
X861060D01*
X838835Y779780D02*
X861060Y757555D01*
X790321Y779780D02*
X838835D01*
X772541Y762000D02*
X790321Y779780D01*
X696341Y762000D02*
X772541D01*
X680720Y777621D02*
X696341Y762000D01*
X1068070Y601980D02*
X1080770Y614680D01*
X952500Y601980D02*
X1068070D01*
X937260Y586740D02*
X952500Y601980D01*
X937260Y706755D02*
X948055Y717550D01*
X999490D01*
X901700Y1006602D02*
X912622Y995680D01*
X821690Y1006602D02*
X901700D01*
X815848Y1000760D02*
X821690Y1006602D01*
X815848Y950722D02*
Y1000760D01*
Y950722D02*
X849630Y916940D01*
X881888D01*
X899160Y899668D01*
X1021334Y978916D02*
X1078230Y922020D01*
X886460Y978916D02*
X1021334D01*
X869696Y995680D02*
X886460Y978916D01*
X937260Y852170D02*
X956310Y871220D01*
X999490D01*
X937260Y902970D02*
X956310Y922020D01*
X999490D01*
X802640Y869950D02*
X820420Y852170D01*
X861060D01*
X622300Y1018540D02*
X635000Y1031240D01*
X675640D01*
X715391Y881634D02*
X861060D01*
X948055Y768350D02*
X999490D01*
X937260Y757555D02*
X948055Y768350D01*
X899160Y795655D02*
Y899668D01*
Y795655D02*
X937260Y757555D01*
X1050072Y1090930D02*
X1061720Y1079282D01*
X1078230Y871220D02*
X1083310D01*
X1078230Y808712D02*
Y871220D01*
Y656590D02*
Y717550D01*
Y656590D02*
X1099820Y635000D01*
Y582930D02*
Y635000D01*
X1080770Y563880D02*
X1099820Y582930D01*
X1078230Y717550D02*
X1096010Y735330D01*
Y790932D01*
X1078230Y808712D02*
X1096010Y790932D01*
X1083310Y871220D02*
X1098550Y886460D01*
Y942122D01*
X1061720Y978952D02*
X1098550Y942122D01*
X1061720Y978952D02*
Y1079282D01*
X622300Y1043940D02*
X669290Y1090930D01*
X1050072D01*
D11*
X781050Y993140D02*
D03*
X624840Y920750D02*
D03*
X802640Y565150D02*
D03*
X1085850Y993140D02*
D03*
X1080770Y614680D02*
D03*
X999490D02*
D03*
X1078230Y768350D02*
D03*
X999490D02*
D03*
X1078230Y922020D02*
D03*
X999490D02*
D03*
X622300Y1043940D02*
D03*
D12*
X781050Y1018540D02*
D03*
Y1043940D02*
D03*
Y1069340D02*
D03*
X861060Y612140D02*
D03*
Y586740D02*
D03*
Y561340D02*
D03*
X937260Y637540D02*
D03*
Y612140D02*
D03*
Y586740D02*
D03*
Y561340D02*
D03*
X861060Y757555D02*
D03*
Y732155D02*
D03*
Y706755D02*
D03*
X937260Y782955D02*
D03*
Y757555D02*
D03*
Y732155D02*
D03*
Y706755D02*
D03*
X624840Y895350D02*
D03*
Y869950D02*
D03*
Y844550D02*
D03*
Y819150D02*
D03*
Y793750D02*
D03*
Y768350D02*
D03*
Y742950D02*
D03*
Y717550D02*
D03*
Y692150D02*
D03*
Y666750D02*
D03*
Y641350D02*
D03*
Y615950D02*
D03*
Y590550D02*
D03*
Y565150D02*
D03*
X802640Y590550D02*
D03*
Y615950D02*
D03*
Y641350D02*
D03*
Y666750D02*
D03*
Y692150D02*
D03*
Y717550D02*
D03*
Y742950D02*
D03*
Y768350D02*
D03*
Y793750D02*
D03*
Y819150D02*
D03*
Y844550D02*
D03*
Y869950D02*
D03*
Y895350D02*
D03*
Y920750D02*
D03*
X861060Y902970D02*
D03*
Y877570D02*
D03*
Y852170D02*
D03*
X937260Y928370D02*
D03*
Y902970D02*
D03*
Y877570D02*
D03*
Y852170D02*
D03*
X676910Y967740D02*
D03*
X742950D02*
D03*
X1085850Y1018540D02*
D03*
Y1043940D02*
D03*
Y1069340D02*
D03*
X1080770Y563880D02*
D03*
Y589280D02*
D03*
X999490Y563880D02*
D03*
Y589280D02*
D03*
X1078230Y717550D02*
D03*
Y742950D02*
D03*
X999490Y717550D02*
D03*
Y742950D02*
D03*
X1078230Y871220D02*
D03*
Y896620D02*
D03*
X999490Y871220D02*
D03*
Y896620D02*
D03*
X622300Y1018540D02*
D03*
D13*
X861060Y637540D02*
D03*
Y782955D02*
D03*
Y928370D02*
D03*
X651510Y967740D02*
D03*
X717550D02*
D03*
D14*
X756920Y916305D02*
D03*
X680720D02*
D03*
X756920Y846963D02*
D03*
X680720D02*
D03*
X756920Y777621D02*
D03*
X680720D02*
D03*
X756920Y708279D02*
D03*
X680720D02*
D03*
X756920Y638937D02*
D03*
X680720D02*
D03*
X756920Y569595D02*
D03*
X680720D02*
D03*
X1041400Y1071880D02*
D03*
Y995680D02*
D03*
X998474Y1071880D02*
D03*
Y995680D02*
D03*
X955548Y1071880D02*
D03*
Y995680D02*
D03*
X912622Y1071880D02*
D03*
Y995680D02*
D03*
X869696Y1071880D02*
D03*
Y995680D02*
D03*
X826770Y1071880D02*
D03*
Y995680D02*
D03*
D15*
X675640Y1031240D02*
D03*
D16*
X701040D02*
D03*
X726440D02*
D03*
D17*
X1169670Y833120D02*
D03*
X855345Y1184910D02*
D03*
X857631Y481330D02*
D03*
X541020Y833120D02*
D03*
M02*
