G04 Layer_Color=65535*
%FSLAX44Y44*%
%MOMM*%
G71*
G01*
G75*
%ADD10C,0.2540*%
%ADD18C,0.2000*%
%ADD19C,0.2500*%
%ADD20C,0.6000*%
%ADD21C,0.2032*%
D10*
X685800Y430530D02*
X1023620D01*
X490220Y626110D02*
X685800Y430530D01*
X1220470Y1038860D02*
X1220470Y627380D01*
X1023620Y430530D02*
X1220470Y627380D01*
X1023620Y1235710D02*
X1220470Y1038860D01*
X680720Y1235710D02*
X1023620D01*
X490220Y626110D02*
Y1045210D01*
X680720Y1235710D01*
X613664Y942086D02*
Y952243D01*
X618742Y957321D01*
X623821Y952243D01*
Y942086D01*
Y949704D01*
X613664D01*
X628899Y942086D02*
X633977D01*
X631438D01*
Y957321D01*
X628899Y954782D01*
X791464Y942086D02*
Y952243D01*
X796542Y957321D01*
X801621Y952243D01*
Y942086D01*
Y949704D01*
X791464D01*
X816856Y942086D02*
X806699D01*
X816856Y952243D01*
Y954782D01*
X814317Y957321D01*
X809238D01*
X806699Y954782D01*
X614680Y1103625D02*
Y1088390D01*
X622298D01*
X624837Y1090929D01*
Y1093468D01*
X622298Y1096008D01*
X614680D01*
X622298D01*
X624837Y1098547D01*
Y1101086D01*
X622298Y1103625D01*
X614680D01*
X632454Y1098547D02*
X637533D01*
X640072Y1096008D01*
Y1088390D01*
X632454D01*
X629915Y1090929D01*
X632454Y1093468D01*
X640072D01*
X647689Y1101086D02*
Y1098547D01*
X645150D01*
X650229D01*
X647689D01*
Y1090929D01*
X650229Y1088390D01*
X660385Y1101086D02*
Y1098547D01*
X657846D01*
X662924D01*
X660385D01*
Y1090929D01*
X662924Y1088390D01*
X678159D02*
X673081D01*
X670542Y1090929D01*
Y1096008D01*
X673081Y1098547D01*
X678159D01*
X680699Y1096008D01*
Y1093468D01*
X670542D01*
X685777Y1098547D02*
Y1088390D01*
Y1093468D01*
X688316Y1096008D01*
X690855Y1098547D01*
X693394D01*
X701012D02*
Y1090929D01*
X703551Y1088390D01*
X711169D01*
Y1085851D01*
X708630Y1083312D01*
X706090D01*
X711169Y1088390D02*
Y1098547D01*
X650491Y1001772D02*
X647952Y1004311D01*
X642873D01*
X640334Y1001772D01*
Y991615D01*
X642873Y989076D01*
X647952D01*
X650491Y991615D01*
X655569Y989076D02*
X660647D01*
X658108D01*
Y1004311D01*
X655569Y1001772D01*
X716531D02*
X713991Y1004311D01*
X708913D01*
X706374Y1001772D01*
Y991615D01*
X708913Y989076D01*
X713991D01*
X716531Y991615D01*
X731766Y989076D02*
X721609D01*
X731766Y999233D01*
Y1001772D01*
X729227Y1004311D01*
X724148D01*
X721609Y1001772D01*
X978154Y857250D02*
X962919D01*
X967997Y862328D01*
X962919Y867407D01*
X978154D01*
Y875024D02*
Y880103D01*
X975615Y882642D01*
X970536D01*
X967997Y880103D01*
Y875024D01*
X970536Y872485D01*
X975615D01*
X978154Y875024D01*
X965458Y890259D02*
X967997D01*
Y887720D01*
Y892798D01*
Y890259D01*
X975615D01*
X978154Y892798D01*
Y902955D02*
Y908034D01*
X975615Y910573D01*
X970536D01*
X967997Y908034D01*
Y902955D01*
X970536Y900416D01*
X975615D01*
X978154Y902955D01*
X967997Y915651D02*
X978154D01*
X973076D01*
X970536Y918190D01*
X967997Y920730D01*
Y923269D01*
X978154Y930886D02*
Y935965D01*
Y933425D01*
X962919D01*
X965458Y930886D01*
X1056894Y854710D02*
X1041659D01*
X1046737Y859788D01*
X1041659Y864867D01*
X1056894D01*
Y872484D02*
Y877563D01*
X1054355Y880102D01*
X1049277D01*
X1046737Y877563D01*
Y872484D01*
X1049277Y869945D01*
X1054355D01*
X1056894Y872484D01*
X1044198Y887719D02*
X1046737D01*
Y885180D01*
Y890258D01*
Y887719D01*
X1054355D01*
X1056894Y890258D01*
Y900415D02*
Y905494D01*
X1054355Y908033D01*
X1049277D01*
X1046737Y905494D01*
Y900415D01*
X1049277Y897876D01*
X1054355D01*
X1056894Y900415D01*
X1046737Y913111D02*
X1056894D01*
X1051816D01*
X1049277Y915650D01*
X1046737Y918189D01*
Y920729D01*
X1056894Y938503D02*
Y928346D01*
X1046737Y938503D01*
X1044198D01*
X1041659Y935964D01*
Y930885D01*
X1044198Y928346D01*
X978154Y701040D02*
X962919D01*
X967997Y706118D01*
X962919Y711197D01*
X978154D01*
Y718814D02*
Y723893D01*
X975615Y726432D01*
X970536D01*
X967997Y723893D01*
Y718814D01*
X970536Y716275D01*
X975615D01*
X978154Y718814D01*
X965458Y734049D02*
X967997D01*
Y731510D01*
Y736589D01*
Y734049D01*
X975615D01*
X978154Y736589D01*
Y746745D02*
Y751824D01*
X975615Y754363D01*
X970536D01*
X967997Y751824D01*
Y746745D01*
X970536Y744206D01*
X975615D01*
X978154Y746745D01*
X967997Y759441D02*
X978154D01*
X973076D01*
X970536Y761980D01*
X967997Y764520D01*
Y767059D01*
X965458Y774676D02*
X962919Y777215D01*
Y782294D01*
X965458Y784833D01*
X967997D01*
X970536Y782294D01*
Y779754D01*
Y782294D01*
X973076Y784833D01*
X975615D01*
X978154Y782294D01*
Y777215D01*
X975615Y774676D01*
X1056894Y701040D02*
X1041659D01*
X1046737Y706118D01*
X1041659Y711197D01*
X1056894D01*
Y718814D02*
Y723893D01*
X1054355Y726432D01*
X1049277D01*
X1046737Y723893D01*
Y718814D01*
X1049277Y716275D01*
X1054355D01*
X1056894Y718814D01*
X1044198Y734049D02*
X1046737D01*
Y731510D01*
Y736589D01*
Y734049D01*
X1054355D01*
X1056894Y736589D01*
Y746745D02*
Y751824D01*
X1054355Y754363D01*
X1049277D01*
X1046737Y751824D01*
Y746745D01*
X1049277Y744206D01*
X1054355D01*
X1056894Y746745D01*
X1046737Y759441D02*
X1056894D01*
X1051816D01*
X1049277Y761980D01*
X1046737Y764520D01*
Y767059D01*
X1056894Y782294D02*
X1041659D01*
X1049277Y774676D01*
Y784833D01*
X978154Y547370D02*
X962919D01*
X967997Y552448D01*
X962919Y557527D01*
X978154D01*
Y565144D02*
Y570223D01*
X975615Y572762D01*
X970536D01*
X967997Y570223D01*
Y565144D01*
X970536Y562605D01*
X975615D01*
X978154Y565144D01*
X965458Y580379D02*
X967997D01*
Y577840D01*
Y582919D01*
Y580379D01*
X975615D01*
X978154Y582919D01*
Y593075D02*
Y598154D01*
X975615Y600693D01*
X970536D01*
X967997Y598154D01*
Y593075D01*
X970536Y590536D01*
X975615D01*
X978154Y593075D01*
X967997Y605771D02*
X978154D01*
X973076D01*
X970536Y608310D01*
X967997Y610849D01*
Y613389D01*
X962919Y631163D02*
Y621006D01*
X970536D01*
X967997Y626085D01*
Y628624D01*
X970536Y631163D01*
X975615D01*
X978154Y628624D01*
Y623545D01*
X975615Y621006D01*
X1059434Y547370D02*
X1044199D01*
X1049277Y552448D01*
X1044199Y557527D01*
X1059434D01*
Y565144D02*
Y570223D01*
X1056895Y572762D01*
X1051816D01*
X1049277Y570223D01*
Y565144D01*
X1051816Y562605D01*
X1056895D01*
X1059434Y565144D01*
X1046738Y580379D02*
X1049277D01*
Y577840D01*
Y582919D01*
Y580379D01*
X1056895D01*
X1059434Y582919D01*
Y593075D02*
Y598154D01*
X1056895Y600693D01*
X1051816D01*
X1049277Y598154D01*
Y593075D01*
X1051816Y590536D01*
X1056895D01*
X1059434Y593075D01*
X1049277Y605771D02*
X1059434D01*
X1054356D01*
X1051816Y608310D01*
X1049277Y610849D01*
Y613389D01*
X1044199Y631163D02*
X1046738Y626085D01*
X1051816Y621006D01*
X1056895D01*
X1059434Y623545D01*
Y628624D01*
X1056895Y631163D01*
X1054356D01*
X1051816Y628624D01*
Y621006D01*
X860676Y971926D02*
X855598D01*
X853059Y969387D01*
Y959230D01*
X855598Y956691D01*
X860676D01*
X863216Y959230D01*
Y969387D01*
X860676Y971926D01*
X868294Y951613D02*
Y966848D01*
X875912D01*
X878451Y964308D01*
Y959230D01*
X875912Y956691D01*
X868294D01*
X886068Y969387D02*
Y966848D01*
X883529D01*
X888607D01*
X886068D01*
Y959230D01*
X888607Y956691D01*
X898764D02*
X903843D01*
X906382Y959230D01*
Y964308D01*
X903843Y966848D01*
X898764D01*
X896225Y964308D01*
Y959230D01*
X898764Y956691D01*
X911460Y954152D02*
X921617D01*
X926695Y956691D02*
X931774D01*
X929234D01*
Y971926D01*
X926695Y969387D01*
X860676Y826511D02*
X855598D01*
X853059Y823972D01*
Y813815D01*
X855598Y811276D01*
X860676D01*
X863216Y813815D01*
Y823972D01*
X860676Y826511D01*
X868294Y806198D02*
Y821433D01*
X875912D01*
X878451Y818894D01*
Y813815D01*
X875912Y811276D01*
X868294D01*
X886068Y823972D02*
Y821433D01*
X883529D01*
X888607D01*
X886068D01*
Y813815D01*
X888607Y811276D01*
X898764D02*
X903843D01*
X906382Y813815D01*
Y818894D01*
X903843Y821433D01*
X898764D01*
X896225Y818894D01*
Y813815D01*
X898764Y811276D01*
X911460Y808737D02*
X921617D01*
X936852Y811276D02*
X926695D01*
X936852Y821433D01*
Y823972D01*
X934313Y826511D01*
X929234D01*
X926695Y823972D01*
X860676Y681096D02*
X855598D01*
X853059Y678557D01*
Y668400D01*
X855598Y665861D01*
X860676D01*
X863216Y668400D01*
Y678557D01*
X860676Y681096D01*
X868294Y660783D02*
Y676018D01*
X875912D01*
X878451Y673478D01*
Y668400D01*
X875912Y665861D01*
X868294D01*
X886068Y678557D02*
Y676018D01*
X883529D01*
X888607D01*
X886068D01*
Y668400D01*
X888607Y665861D01*
X898764D02*
X903843D01*
X906382Y668400D01*
Y673478D01*
X903843Y676018D01*
X898764D01*
X896225Y673478D01*
Y668400D01*
X898764Y665861D01*
X911460Y663322D02*
X921617D01*
X926695Y678557D02*
X929234Y681096D01*
X934313D01*
X936852Y678557D01*
Y676018D01*
X934313Y673478D01*
X931774D01*
X934313D01*
X936852Y670939D01*
Y668400D01*
X934313Y665861D01*
X929234D01*
X926695Y668400D01*
X769874Y1090676D02*
Y1105911D01*
X777492D01*
X780031Y1103372D01*
Y1098294D01*
X777492Y1095754D01*
X769874D01*
X785109Y1100833D02*
Y1090676D01*
Y1095754D01*
X787648Y1098294D01*
X790187Y1100833D01*
X792727D01*
X807962Y1090676D02*
X802883D01*
X800344Y1093215D01*
Y1098294D01*
X802883Y1100833D01*
X807962D01*
X810501Y1098294D01*
Y1095754D01*
X800344D01*
X815579Y1090676D02*
X823197D01*
X825736Y1093215D01*
X823197Y1095754D01*
X818118D01*
X815579Y1098294D01*
X818118Y1100833D01*
X825736D01*
X830814Y1090676D02*
X838432D01*
X840971Y1093215D01*
X838432Y1095754D01*
X833354D01*
X830814Y1098294D01*
X833354Y1100833D01*
X840971D01*
X846049D02*
Y1093215D01*
X848588Y1090676D01*
X856206D01*
Y1100833D01*
X861284D02*
Y1090676D01*
Y1095754D01*
X863824Y1098294D01*
X866363Y1100833D01*
X868902D01*
X884137Y1090676D02*
X879059D01*
X876519Y1093215D01*
Y1098294D01*
X879059Y1100833D01*
X884137D01*
X886676Y1098294D01*
Y1095754D01*
X876519D01*
X917146Y1103372D02*
X914607Y1105911D01*
X909529D01*
X906990Y1103372D01*
Y1100833D01*
X909529Y1098294D01*
X914607D01*
X917146Y1095754D01*
Y1093215D01*
X914607Y1090676D01*
X909529D01*
X906990Y1093215D01*
X929842Y1090676D02*
X924764D01*
X922225Y1093215D01*
Y1098294D01*
X924764Y1100833D01*
X929842D01*
X932381Y1098294D01*
Y1095754D01*
X922225D01*
X937460Y1090676D02*
Y1100833D01*
X945077D01*
X947617Y1098294D01*
Y1090676D01*
X952695D02*
X960312D01*
X962852Y1093215D01*
X960312Y1095754D01*
X955234D01*
X952695Y1098294D01*
X955234Y1100833D01*
X962852D01*
X970469Y1090676D02*
X975547D01*
X978087Y1093215D01*
Y1098294D01*
X975547Y1100833D01*
X970469D01*
X967930Y1098294D01*
Y1093215D01*
X970469Y1090676D01*
X983165Y1100833D02*
Y1090676D01*
Y1095754D01*
X985704Y1098294D01*
X988243Y1100833D01*
X990782D01*
X1013635Y1105911D02*
Y1090676D01*
X1021253D01*
X1023792Y1093215D01*
Y1095754D01*
X1021253Y1098294D01*
X1013635D01*
X1021253D01*
X1023792Y1100833D01*
Y1103372D01*
X1021253Y1105911D01*
X1013635D01*
X1031409Y1090676D02*
X1036488D01*
X1039027Y1093215D01*
Y1098294D01*
X1036488Y1100833D01*
X1031409D01*
X1028870Y1098294D01*
Y1093215D01*
X1031409Y1090676D01*
X1046645Y1100833D02*
X1051723D01*
X1054262Y1098294D01*
Y1090676D01*
X1046645D01*
X1044105Y1093215D01*
X1046645Y1095754D01*
X1054262D01*
X1059340Y1100833D02*
Y1090676D01*
Y1095754D01*
X1061880Y1098294D01*
X1064419Y1100833D01*
X1066958D01*
X1084732Y1105911D02*
Y1090676D01*
X1077115D01*
X1074575Y1093215D01*
Y1098294D01*
X1077115Y1100833D01*
X1084732D01*
X678180Y1073145D02*
Y1062988D01*
X683258Y1057910D01*
X688337Y1062988D01*
Y1073145D01*
X693415Y1057910D02*
Y1073145D01*
X701033D01*
X703572Y1070606D01*
Y1065527D01*
X701033Y1062988D01*
X693415D01*
X698493D02*
X703572Y1057910D01*
X718807Y1073145D02*
X708650D01*
Y1057910D01*
X718807D01*
X708650Y1065527D02*
X713728D01*
X734042Y1070606D02*
X731503Y1073145D01*
X726424D01*
X723885Y1070606D01*
Y1060449D01*
X726424Y1057910D01*
X731503D01*
X734042Y1060449D01*
Y1065527D01*
X728964D01*
X739120Y1057910D02*
X744199D01*
X741659D01*
Y1073145D01*
X739120Y1070606D01*
D18*
X892810Y649440D02*
G03*
X905510Y649440I6350J0D01*
G01*
X892810Y794855D02*
G03*
X905510Y794855I6350J0D01*
G01*
X892810Y940270D02*
G03*
X905510Y940270I6350J0D01*
G01*
X768350Y1082040D02*
X793750D01*
Y980440D02*
Y1082040D01*
X768350Y980440D02*
Y1082040D01*
Y980440D02*
X793750D01*
X872660Y549440D02*
Y649440D01*
X925660Y549440D02*
Y649440D01*
X872660D02*
X892810D01*
X905510D02*
X925660D01*
X872660Y549440D02*
X925660D01*
X872660Y694855D02*
Y794855D01*
X925660Y694855D02*
Y794855D01*
X872660D02*
X892810D01*
X905510D02*
X925660D01*
X872660Y694855D02*
X925660D01*
X612140Y552450D02*
X637540D01*
X612140Y933450D02*
X637540D01*
Y914400D02*
Y933450D01*
Y552450D02*
Y914400D01*
X612140Y552450D02*
Y933450D01*
X789940D02*
X815340D01*
X789940Y552450D02*
X815340D01*
X789940D02*
Y571500D01*
Y933450D01*
X815340Y552450D02*
Y933450D01*
X872660Y840270D02*
Y940270D01*
X925660Y840270D02*
Y940270D01*
X872660D02*
X892810D01*
X905510D02*
X925660D01*
X872660Y840270D02*
X925660D01*
X638810Y980440D02*
X689610D01*
X638810Y955040D02*
Y980440D01*
Y955040D02*
X689610D01*
Y980440D01*
X704850D02*
X755650D01*
X704850Y955040D02*
Y980440D01*
Y955040D02*
X755650D01*
Y980440D01*
X1073150Y1082040D02*
X1098550D01*
Y980440D02*
Y1082040D01*
X1073150Y980440D02*
Y1082040D01*
Y980440D02*
X1098550D01*
X1068070Y627380D02*
X1093470D01*
Y551180D02*
Y627380D01*
X1068070Y551180D02*
X1093470D01*
X1068070D02*
Y627380D01*
X986790D02*
X1012190D01*
Y551180D02*
Y627380D01*
X986790Y551180D02*
X1012190D01*
X986790D02*
Y627380D01*
X1065530Y781050D02*
X1090930D01*
Y704850D02*
Y781050D01*
X1065530Y704850D02*
X1090930D01*
X1065530D02*
Y781050D01*
X986790D02*
X1012190D01*
Y704850D02*
Y781050D01*
X986790Y704850D02*
X1012190D01*
X986790D02*
Y781050D01*
X1065530Y934720D02*
X1090930D01*
Y858520D02*
Y934720D01*
X1065530Y858520D02*
X1090930D01*
X1065530D02*
Y934720D01*
X986790D02*
X1012190D01*
Y858520D02*
Y934720D01*
X986790Y858520D02*
X1012190D01*
X986790D02*
Y934720D01*
X635000Y1005840D02*
Y1056640D01*
X609600D02*
X635000D01*
X609600Y1005840D02*
Y1056640D01*
Y1005840D02*
X635000D01*
X649040Y1059740D02*
X753040D01*
Y1013740D02*
Y1059740D01*
X649040Y1013740D02*
X753040D01*
X649040D02*
Y1059740D01*
Y1054740D02*
X753040D01*
D19*
X862310Y650540D02*
G03*
X862310Y650540I-1250J0D01*
G01*
Y795955D02*
G03*
X862310Y795955I-1250J0D01*
G01*
Y941370D02*
G03*
X862310Y941370I-1250J0D01*
G01*
X656790Y1020240D02*
G03*
X656790Y1020240I-1250J0D01*
G01*
D20*
X885660Y639440D02*
G03*
X885660Y639440I-3000J0D01*
G01*
Y784855D02*
G03*
X885660Y784855I-3000J0D01*
G01*
Y930270D02*
G03*
X885660Y930270I-3000J0D01*
G01*
D21*
X994410Y943607D02*
X1004567D01*
X999488Y948686D02*
Y938529D01*
X994410Y852168D02*
X1004567D01*
X1073150Y943607D02*
X1083307D01*
X1078228Y948686D02*
Y938529D01*
X1073150Y850898D02*
X1083307D01*
X994410Y698497D02*
X1004567D01*
X1073150D02*
X1083307D01*
X994410Y546097D02*
X1004567D01*
X1075690D02*
X1085847D01*
X994410Y789938D02*
X1004567D01*
X999488Y795016D02*
Y784859D01*
X1073150Y790573D02*
X1083307D01*
X1078228Y795651D02*
Y785494D01*
X994410Y636268D02*
X1004567D01*
X999488Y641346D02*
Y631189D01*
X1075690Y636268D02*
X1085847D01*
X1080768Y641346D02*
Y631189D01*
M02*
