G04 Layer_Color=2752767*
%FSLAX44Y44*%
%MOMM*%
G71*
G01*
G75*
%ADD41C,0.0508*%
%ADD42C,0.0677*%
D41*
X904748Y564388D02*
Y568452D01*
X908812D01*
Y564388D01*
X904748D01*
Y640588D02*
Y644652D01*
X908812D01*
Y640588D01*
X904748D01*
X960628Y486918D02*
Y490982D01*
X964692D01*
Y486918D01*
X960628D01*
X884428D02*
Y490982D01*
X888492D01*
Y486918D01*
X884428D01*
X961898Y509778D02*
Y513842D01*
X965962D01*
Y509778D01*
X961898D01*
X885698D02*
Y513842D01*
X889762D01*
Y509778D01*
X885698D01*
X834898Y489458D02*
Y493522D01*
X838962D01*
Y489458D01*
X834898D01*
X758698D02*
Y493522D01*
X762762D01*
Y489458D01*
X758698D01*
X939038Y674878D02*
Y678942D01*
X943102D01*
Y674878D01*
X939038D01*
X862838D02*
Y678942D01*
X866902D01*
Y674878D01*
X862838D01*
X940308Y732028D02*
Y736092D01*
X944372D01*
Y732028D01*
X940308D01*
X864108D02*
Y736092D01*
X868172D01*
Y732028D01*
X864108D01*
X964438Y756158D02*
Y760222D01*
X968502D01*
Y756158D01*
X964438D01*
X888238D02*
Y760222D01*
X892302D01*
Y756158D01*
X888238D01*
X961898Y784098D02*
Y788162D01*
X965962D01*
Y784098D01*
X961898D01*
X885698D02*
Y788162D01*
X889762D01*
Y784098D01*
X885698D01*
X828548Y779018D02*
Y783082D01*
X832612D01*
Y779018D01*
X828548D01*
X752348D02*
Y783082D01*
X756412D01*
Y779018D01*
X752348D01*
X964438Y702818D02*
Y706882D01*
X968502D01*
Y702818D01*
X964438D01*
X888238D02*
Y706882D01*
X892302D01*
Y702818D01*
X888238D01*
X627888Y429768D02*
Y433832D01*
X631952D01*
Y429768D01*
X627888D01*
X551688D02*
Y433832D01*
X555752D01*
Y429768D01*
X551688D01*
Y408178D02*
Y412242D01*
X555752D01*
Y408178D01*
X551688D01*
X627888D02*
Y412242D01*
X631952D01*
Y408178D01*
X627888D01*
X753110Y881888D02*
X751078Y885952D01*
X755142D01*
X753110Y881888D01*
X727710D02*
X725678Y885952D01*
X729742D01*
X727710Y881888D01*
X702310D02*
X700278Y885952D01*
X704342D01*
X702310Y881888D01*
X563118Y606298D02*
Y610362D01*
X567182D01*
Y606298D01*
X563118D01*
X486918D02*
Y610362D01*
X490982D01*
Y606298D01*
X486918D01*
X575310Y528828D02*
X576326Y529844D01*
X577342D01*
X576326Y530860D01*
X577342Y531876D01*
X576326D01*
X575310Y532892D01*
X574294Y531876D01*
X573278D01*
X574294Y530860D01*
X573278Y529844D01*
X574294D01*
X575310Y528828D01*
X499110D02*
X500126Y529844D01*
X501142D01*
X500126Y530860D01*
X501142Y531876D01*
X500126D01*
X499110Y532892D01*
X498094Y531876D01*
X497078D01*
X498094Y530860D01*
X497078Y529844D01*
X498094D01*
X499110Y528828D01*
X525780Y472948D02*
X523748Y477012D01*
X527812D01*
X525780Y472948D01*
X551180D02*
X549148Y477012D01*
X553212D01*
X551180Y472948D01*
X576580D02*
X574548Y477012D01*
X578612D01*
X576580Y472948D01*
X452120Y573278D02*
X453136Y574294D01*
X454152D01*
X453136Y575310D01*
X454152Y576326D01*
X453136D01*
X452120Y577342D01*
X451104Y576326D01*
X450088D01*
X451104Y575310D01*
X450088Y574294D01*
X451104D01*
X452120Y573278D01*
X528320D02*
X529336Y574294D01*
X530352D01*
X529336Y575310D01*
X530352Y576326D01*
X529336D01*
X528320Y577342D01*
X527304Y576326D01*
X526288D01*
X527304Y575310D01*
X526288Y574294D01*
X527304D01*
X528320Y573278D01*
X634468Y939038D02*
X635484Y941070D01*
X634468Y943102D01*
X636500Y942086D01*
X638532Y943102D01*
X637516Y941070D01*
X638532Y939038D01*
X636500Y940054D01*
X634468Y939038D01*
X529868D02*
X530884Y941070D01*
X529868Y943102D01*
X531900Y942086D01*
X533932Y943102D01*
X532916Y941070D01*
X533932Y939038D01*
X531900Y940054D01*
X529868Y939038D01*
X596138Y699008D02*
Y703072D01*
X600202D01*
Y699008D01*
X596138D01*
Y775208D02*
Y779272D01*
X600202D01*
Y775208D01*
X596138D01*
X659638Y766318D02*
Y770382D01*
X663702D01*
Y766318D01*
X659638D01*
Y842518D02*
Y846582D01*
X663702D01*
Y842518D01*
X659638D01*
X725678Y696468D02*
Y700532D01*
X729742D01*
Y696468D01*
X725678D01*
Y772668D02*
Y776732D01*
X729742D01*
Y772668D01*
X725678D01*
X842518Y649478D02*
Y653542D01*
X846582D01*
Y649478D01*
X842518D01*
X766318D02*
Y653542D01*
X770382D01*
Y649478D01*
X766318D01*
X909828Y465328D02*
Y469392D01*
X913892D01*
Y465328D01*
X909828D01*
X833628D02*
Y469392D01*
X837692D01*
Y465328D01*
X833628D01*
X565404Y659384D02*
Y658368D01*
X567436D01*
Y659384D01*
X568452D01*
Y661416D01*
X567436D01*
Y662432D01*
X565404D01*
Y661416D01*
X564388D01*
Y659384D01*
X565404D01*
Y684784D02*
Y683768D01*
X567436D01*
Y684784D01*
X568452D01*
Y686816D01*
X567436D01*
Y687832D01*
X565404D01*
Y686816D01*
X564388D01*
Y684784D01*
X565404D01*
Y710184D02*
Y709168D01*
X567436D01*
Y710184D01*
X568452D01*
Y712216D01*
X567436D01*
Y713232D01*
X565404D01*
Y712216D01*
X564388D01*
Y710184D01*
X565404D01*
Y735584D02*
Y734568D01*
X567436D01*
Y735584D01*
X568452D01*
Y737616D01*
X567436D01*
Y738632D01*
X565404D01*
Y737616D01*
X564388D01*
Y735584D01*
X565404D01*
Y760984D02*
Y759968D01*
X567436D01*
Y760984D01*
X568452D01*
Y763016D01*
X567436D01*
Y764032D01*
X565404D01*
Y763016D01*
X564388D01*
Y760984D01*
X565404D01*
Y786384D02*
Y785368D01*
X567436D01*
Y786384D01*
X568452D01*
Y788416D01*
X567436D01*
Y789432D01*
X565404D01*
Y788416D01*
X564388D01*
Y786384D01*
X565404D01*
Y811784D02*
Y810768D01*
X567436D01*
Y811784D01*
X568452D01*
Y813816D01*
X567436D01*
Y814832D01*
X565404D01*
Y813816D01*
X564388D01*
Y811784D01*
X565404D01*
X489204D02*
Y810768D01*
X491236D01*
Y811784D01*
X492252D01*
Y813816D01*
X491236D01*
Y814832D01*
X489204D01*
Y813816D01*
X488188D01*
Y811784D01*
X489204D01*
Y786384D02*
Y785368D01*
X491236D01*
Y786384D01*
X492252D01*
Y788416D01*
X491236D01*
Y789432D01*
X489204D01*
Y788416D01*
X488188D01*
Y786384D01*
X489204D01*
Y760984D02*
Y759968D01*
X491236D01*
Y760984D01*
X492252D01*
Y763016D01*
X491236D01*
Y764032D01*
X489204D01*
Y763016D01*
X488188D01*
Y760984D01*
X489204D01*
Y735584D02*
Y734568D01*
X491236D01*
Y735584D01*
X492252D01*
Y737616D01*
X491236D01*
Y738632D01*
X489204D01*
Y737616D01*
X488188D01*
Y735584D01*
X489204D01*
Y710184D02*
Y709168D01*
X491236D01*
Y710184D01*
X492252D01*
Y712216D01*
X491236D01*
Y713232D01*
X489204D01*
Y712216D01*
X488188D01*
Y710184D01*
X489204D01*
Y684784D02*
Y683768D01*
X491236D01*
Y684784D01*
X492252D01*
Y686816D01*
X491236D01*
Y687832D01*
X489204D01*
Y686816D01*
X488188D01*
Y684784D01*
X489204D01*
Y659384D02*
Y658368D01*
X491236D01*
Y659384D01*
X492252D01*
Y661416D01*
X491236D01*
Y662432D01*
X489204D01*
Y661416D01*
X488188D01*
Y659384D01*
X489204D01*
D42*
X998982Y760730D02*
G03*
X998982Y760730I-2032J0D01*
G01*
Y735330D02*
G03*
X998982Y735330I-2032J0D01*
G01*
Y709930D02*
G03*
X998982Y709930I-2032J0D01*
G01*
Y684530D02*
G03*
X998982Y684530I-2032J0D01*
G01*
Y659130D02*
G03*
X998982Y659130I-2032J0D01*
G01*
X706882Y942340D02*
G03*
X706882Y942340I-2032J0D01*
G01*
X681482D02*
G03*
X681482Y942340I-2032J0D01*
G01*
X625772Y720090D02*
G03*
X625772Y720090I-2032J0D01*
G01*
Y694690D02*
G03*
X625772Y694690I-2032J0D01*
G01*
Y669290D02*
G03*
X625772Y669290I-2032J0D01*
G01*
Y643890D02*
G03*
X625772Y643890I-2032J0D01*
G01*
Y618490D02*
G03*
X625772Y618490I-2032J0D01*
G01*
Y593090D02*
G03*
X625772Y593090I-2032J0D01*
G01*
Y567690D02*
G03*
X625772Y567690I-2032J0D01*
G01*
X701972Y720090D02*
G03*
X701972Y720090I-2032J0D01*
G01*
Y694690D02*
G03*
X701972Y694690I-2032J0D01*
G01*
Y669290D02*
G03*
X701972Y669290I-2032J0D01*
G01*
Y643890D02*
G03*
X701972Y643890I-2032J0D01*
G01*
Y618490D02*
G03*
X701972Y618490I-2032J0D01*
G01*
Y593090D02*
G03*
X701972Y593090I-2032J0D01*
G01*
Y567690D02*
G03*
X701972Y567690I-2032J0D01*
G01*
X612902Y881380D02*
G03*
X612902Y881380I-2032J0D01*
G01*
X638902D02*
G03*
X638902Y881380I-2032J0D01*
G01*
X586902D02*
G03*
X586902Y881380I-2032J0D01*
G01*
X878332Y608330D02*
G03*
X878332Y608330I-2032J0D01*
G01*
X852932D02*
G03*
X852932Y608330I-2032J0D01*
G01*
X827532D02*
G03*
X827532Y608330I-2032J0D01*
G01*
X802132D02*
G03*
X802132Y608330I-2032J0D01*
G01*
X878332Y532130D02*
G03*
X878332Y532130I-2032J0D01*
G01*
X852932D02*
G03*
X852932Y532130I-2032J0D01*
G01*
X827532D02*
G03*
X827532Y532130I-2032J0D01*
G01*
X802132D02*
G03*
X802132Y532130I-2032J0D01*
G01*
X892302Y886460D02*
G03*
X892302Y886460I-2032J0D01*
G01*
X866902D02*
G03*
X866902Y886460I-2032J0D01*
G01*
X841502D02*
G03*
X841502Y886460I-2032J0D01*
G01*
X816102D02*
G03*
X816102Y886460I-2032J0D01*
G01*
X892302Y810260D02*
G03*
X892302Y810260I-2032J0D01*
G01*
X866902D02*
G03*
X866902Y810260I-2032J0D01*
G01*
X841502D02*
G03*
X841502Y810260I-2032J0D01*
G01*
X816102D02*
G03*
X816102Y810260I-2032J0D01*
G01*
M02*
