M48
;Layer_Color=9474304
;FILE_FORMAT=4:4
METRIC,LZ
;TYPE=PLATED
T1F00S00C0.7000
T2F00S00C0.8500
T3F00S00C0.9000
T4F00S00C0.9144
T5F00S00C1.1000
T6F00S00C1.2000
%
T01
X0045212Y0057531
X0052832
X0049911Y0053086
X0057531
T02
X0083566Y0046736
X0083693Y0049149
X0088646Y0048895
X0088773Y0051181
X0091186Y0046736
X0096266Y0048895
X0096393Y0051181
X0090678Y0056642
Y0064262
X0094107Y0067691
X0096647Y0070485
Y0075819
X0096393Y0078613
X0094234Y0073406
X0089027Y0075819
X0088773Y0078613
X0083058Y0078105
X0086614Y0073406
X0089027Y0070485
X0086487Y0067691
X0084455Y0065151
X0076835
X0072771Y006985
Y007747
X0075438Y0078105
X0066167Y0076835
X0059817Y0077724
Y0070104
X0056515Y0060833
X0048895
X0055372Y004318
Y0041021
X0062992
Y004318
X0076073Y0049149
X0066167Y0084455
T03
X008001Y0053213
X008255
X008509
X008763
Y0060833
X008509
X008255
X008001
X0099695Y0065913
Y0068453
Y0070993
Y0073533
Y0076073
X0069994Y0072009
Y0069469
Y0066929
Y0064389
Y0061849
Y0059309
Y0056769
X0062374
Y0059309
Y0061849
Y0064389
Y0066929
Y0069469
Y0072009
X0061087Y0088138
X0058487
X0063687
X0067945Y0094234
X0070485
X0081407Y0088646
X0083947
X0086487
X0089027
Y0081026
X0086487
X0083947
X0081407
T04
X0049022Y006604
Y006858
Y007112
Y007366
Y00762
Y007874
X0056642
Y00762
Y007366
Y007112
Y006858
Y006604
Y008128
X0049022
T05
X0052578Y0047498
X0055118
X0057658
X0070231Y0088392
X0072771
X0075311
T06
X005319Y0094107
X006365
M30
