G04 Layer_Physical_Order=2*
G04 Layer_Color=16711680*
%FSLAX44Y44*%
%MOMM*%
G71*
G01*
G75*
%ADD10C,0.2540*%
%ADD11C,1.4224*%
%ADD12R,1.4224X1.4224*%
%ADD13C,1.4000*%
%ADD14R,1.5000X1.5000*%
%ADD15C,1.5000*%
%ADD16R,1.4000X1.4000*%
%ADD17C,2.0000*%
%ADD18R,2.0000X2.0000*%
%ADD19C,1.2000*%
%ADD20R,1.7000X1.7000*%
%ADD21C,1.7000*%
%ADD22R,1.5000X1.5000*%
D10*
X951230Y613410D02*
X996950Y659130D01*
X951230Y576580D02*
Y613410D01*
X925830Y551180D02*
X951230Y576580D01*
X857250Y551180D02*
X925830D01*
X800100Y608330D02*
X857250Y551180D01*
D11*
X490220Y660400D02*
D03*
Y685800D02*
D03*
Y711200D02*
D03*
Y736600D02*
D03*
Y762000D02*
D03*
Y787400D02*
D03*
Y812800D02*
D03*
X566420D02*
D03*
Y787400D02*
D03*
Y762000D02*
D03*
Y736600D02*
D03*
Y711200D02*
D03*
Y685800D02*
D03*
D12*
Y660400D02*
D03*
D13*
X835660Y467360D02*
D03*
X911860D02*
D03*
X768350Y651510D02*
D03*
X844550D02*
D03*
X727710Y774700D02*
D03*
Y698500D02*
D03*
X661670Y844550D02*
D03*
Y768350D02*
D03*
X598170Y777240D02*
D03*
Y701040D02*
D03*
X636870Y881380D02*
D03*
X610870D02*
D03*
X488950Y608330D02*
D03*
X565150D02*
D03*
X629920Y410210D02*
D03*
X553720D02*
D03*
Y431800D02*
D03*
X629920D02*
D03*
X890270Y704850D02*
D03*
X966470D02*
D03*
X754380Y781050D02*
D03*
X830580D02*
D03*
X887730Y786130D02*
D03*
X963930D02*
D03*
X890270Y758190D02*
D03*
X966470D02*
D03*
X866140Y734060D02*
D03*
X942340D02*
D03*
X864870Y676910D02*
D03*
X941070D02*
D03*
X760730Y491490D02*
D03*
X836930D02*
D03*
X887730Y511810D02*
D03*
X963930D02*
D03*
X886460Y488950D02*
D03*
X962660D02*
D03*
X906780Y642620D02*
D03*
Y566420D02*
D03*
D14*
X814070Y810260D02*
D03*
X800100Y532130D02*
D03*
X996950Y760730D02*
D03*
D15*
X839470Y810260D02*
D03*
X864870D02*
D03*
X890270D02*
D03*
X814070Y886460D02*
D03*
X839470D02*
D03*
X864870D02*
D03*
X890270D02*
D03*
X825500Y532130D02*
D03*
X850900D02*
D03*
X876300D02*
D03*
X800100Y608330D02*
D03*
X825500D02*
D03*
X850900D02*
D03*
X876300D02*
D03*
X699940Y567690D02*
D03*
Y593090D02*
D03*
Y618490D02*
D03*
Y643890D02*
D03*
Y669290D02*
D03*
Y694690D02*
D03*
Y720090D02*
D03*
X623740Y567690D02*
D03*
Y593090D02*
D03*
Y618490D02*
D03*
Y643890D02*
D03*
Y669290D02*
D03*
Y694690D02*
D03*
X704850Y942340D02*
D03*
X996950Y659130D02*
D03*
Y684530D02*
D03*
Y709930D02*
D03*
Y735330D02*
D03*
D16*
X584870Y881380D02*
D03*
D17*
X531900Y941070D02*
D03*
D18*
X636500D02*
D03*
D19*
X528320Y575310D02*
D03*
X452120D02*
D03*
X499110Y530860D02*
D03*
X575310D02*
D03*
D20*
X576580Y474980D02*
D03*
X753110Y883920D02*
D03*
D21*
X551180Y474980D02*
D03*
X525780D02*
D03*
X702310Y883920D02*
D03*
X727710D02*
D03*
D22*
X623740Y720090D02*
D03*
X679450Y942340D02*
D03*
M02*
