G04 Layer_Color=2752767*
%FSLAX44Y44*%
%MOMM*%
G71*
G01*
G75*
%ADD41C,0.0508*%
%ADD42C,0.0677*%
D41*
X488188Y658368D02*
Y662432D01*
X492252D01*
Y658368D01*
X488188D01*
Y683768D02*
Y687832D01*
X492252D01*
Y683768D01*
X488188D01*
Y709168D02*
Y713232D01*
X492252D01*
Y709168D01*
X488188D01*
Y734568D02*
Y738632D01*
X492252D01*
Y734568D01*
X488188D01*
Y759968D02*
Y764032D01*
X492252D01*
Y759968D01*
X488188D01*
Y785368D02*
Y789432D01*
X492252D01*
Y785368D01*
X488188D01*
Y810768D02*
Y814832D01*
X492252D01*
Y810768D01*
X488188D01*
X564388D02*
Y814832D01*
X568452D01*
Y810768D01*
X564388D01*
Y785368D02*
Y789432D01*
X568452D01*
Y785368D01*
X564388D01*
Y759968D02*
Y764032D01*
X568452D01*
Y759968D01*
X564388D01*
Y734568D02*
Y738632D01*
X568452D01*
Y734568D01*
X564388D01*
Y709168D02*
Y713232D01*
X568452D01*
Y709168D01*
X564388D01*
Y683768D02*
Y687832D01*
X568452D01*
Y683768D01*
X564388D01*
Y658368D02*
Y662432D01*
X568452D01*
Y658368D01*
X564388D01*
X814070Y808228D02*
X812038Y812292D01*
X816102D01*
X814070Y808228D01*
X839470D02*
X837438Y812292D01*
X841502D01*
X839470Y808228D01*
X864870D02*
X862838Y812292D01*
X866902D01*
X864870Y808228D01*
X890270D02*
X888238Y812292D01*
X892302D01*
X890270Y808228D01*
X814070Y884428D02*
X812038Y888492D01*
X816102D01*
X814070Y884428D01*
X839470D02*
X837438Y888492D01*
X841502D01*
X839470Y884428D01*
X864870D02*
X862838Y888492D01*
X866902D01*
X864870Y884428D01*
X890270D02*
X888238Y888492D01*
X892302D01*
X890270Y884428D01*
X800100Y530098D02*
X798068Y534162D01*
X802132D01*
X800100Y530098D01*
X825500D02*
X823468Y534162D01*
X827532D01*
X825500Y530098D01*
X850900D02*
X848868Y534162D01*
X852932D01*
X850900Y530098D01*
X876300D02*
X874268Y534162D01*
X878332D01*
X876300Y530098D01*
X800100Y606298D02*
X798068Y610362D01*
X802132D01*
X800100Y606298D01*
X825500D02*
X823468Y610362D01*
X827532D01*
X825500Y606298D01*
X850900D02*
X848868Y610362D01*
X852932D01*
X850900Y606298D01*
X876300D02*
X874268Y610362D01*
X878332D01*
X876300Y606298D01*
X584870Y879348D02*
X582838Y883412D01*
X586902D01*
X584870Y879348D01*
X636870D02*
X634838Y883412D01*
X638902D01*
X636870Y879348D01*
X610870D02*
X608838Y883412D01*
X612902D01*
X610870Y879348D01*
X531900Y939038D02*
X532916Y940054D01*
X533932D01*
X532916Y941070D01*
X533932Y942086D01*
X532916D01*
X531900Y943102D01*
X530884Y942086D01*
X529868D01*
X530884Y941070D01*
X529868Y940054D01*
X530884D01*
X531900Y939038D01*
X636500D02*
X637516Y940054D01*
X638532D01*
X637516Y941070D01*
X638532Y942086D01*
X637516D01*
X636500Y943102D01*
X635484Y942086D01*
X634468D01*
X635484Y941070D01*
X634468Y940054D01*
X635484D01*
X636500Y939038D01*
X526288Y573278D02*
X527304Y575310D01*
X526288Y577342D01*
X528320Y576326D01*
X530352Y577342D01*
X529336Y575310D01*
X530352Y573278D01*
X528320Y574294D01*
X526288Y573278D01*
X450088D02*
X451104Y575310D01*
X450088Y577342D01*
X452120Y576326D01*
X454152Y577342D01*
X453136Y575310D01*
X454152Y573278D01*
X452120Y574294D01*
X450088Y573278D01*
X575564Y473964D02*
Y472948D01*
X577596D01*
Y473964D01*
X578612D01*
Y475996D01*
X577596D01*
Y477012D01*
X575564D01*
Y475996D01*
X574548D01*
Y473964D01*
X575564D01*
X550164D02*
Y472948D01*
X552196D01*
Y473964D01*
X553212D01*
Y475996D01*
X552196D01*
Y477012D01*
X550164D01*
Y475996D01*
X549148D01*
Y473964D01*
X550164D01*
X524764D02*
Y472948D01*
X526796D01*
Y473964D01*
X527812D01*
Y475996D01*
X526796D01*
Y477012D01*
X524764D01*
Y475996D01*
X523748D01*
Y473964D01*
X524764D01*
X497078Y528828D02*
X498094Y530860D01*
X497078Y532892D01*
X499110Y531876D01*
X501142Y532892D01*
X500126Y530860D01*
X501142Y528828D01*
X499110Y529844D01*
X497078Y528828D01*
X573278D02*
X574294Y530860D01*
X573278Y532892D01*
X575310Y531876D01*
X577342Y532892D01*
X576326Y530860D01*
X577342Y528828D01*
X575310Y529844D01*
X573278Y528828D01*
X699940Y565658D02*
X697908Y569722D01*
X701972D01*
X699940Y565658D01*
Y591058D02*
X697908Y595122D01*
X701972D01*
X699940Y591058D01*
Y616458D02*
X697908Y620522D01*
X701972D01*
X699940Y616458D01*
Y641858D02*
X697908Y645922D01*
X701972D01*
X699940Y641858D01*
Y667258D02*
X697908Y671322D01*
X701972D01*
X699940Y667258D01*
Y692658D02*
X697908Y696722D01*
X701972D01*
X699940Y692658D01*
Y718058D02*
X697908Y722122D01*
X701972D01*
X699940Y718058D01*
X623740Y565658D02*
X621708Y569722D01*
X625772D01*
X623740Y565658D01*
Y591058D02*
X621708Y595122D01*
X625772D01*
X623740Y591058D01*
Y616458D02*
X621708Y620522D01*
X625772D01*
X623740Y616458D01*
Y641858D02*
X621708Y645922D01*
X625772D01*
X623740Y641858D01*
Y667258D02*
X621708Y671322D01*
X625772D01*
X623740Y667258D01*
Y692658D02*
X621708Y696722D01*
X625772D01*
X623740Y692658D01*
Y718058D02*
X621708Y722122D01*
X625772D01*
X623740Y718058D01*
X701294Y882904D02*
Y881888D01*
X703326D01*
Y882904D01*
X704342D01*
Y884936D01*
X703326D01*
Y885952D01*
X701294D01*
Y884936D01*
X700278D01*
Y882904D01*
X701294D01*
X726694D02*
Y881888D01*
X728726D01*
Y882904D01*
X729742D01*
Y884936D01*
X728726D01*
Y885952D01*
X726694D01*
Y884936D01*
X725678D01*
Y882904D01*
X726694D01*
X752094D02*
Y881888D01*
X754126D01*
Y882904D01*
X755142D01*
Y884936D01*
X754126D01*
Y885952D01*
X752094D01*
Y884936D01*
X751078D01*
Y882904D01*
X752094D01*
X679450Y940308D02*
X677418Y944372D01*
X681482D01*
X679450Y940308D01*
X704850D02*
X702818Y944372D01*
X706882D01*
X704850Y940308D01*
X996950Y657098D02*
X994918Y661162D01*
X998982D01*
X996950Y657098D01*
Y682498D02*
X994918Y686562D01*
X998982D01*
X996950Y682498D01*
Y707898D02*
X994918Y711962D01*
X998982D01*
X996950Y707898D01*
Y733298D02*
X994918Y737362D01*
X998982D01*
X996950Y733298D01*
Y758698D02*
X994918Y762762D01*
X998982D01*
X996950Y758698D01*
D42*
X837692Y467360D02*
G03*
X837692Y467360I-2032J0D01*
G01*
X913892D02*
G03*
X913892Y467360I-2032J0D01*
G01*
X770382Y651510D02*
G03*
X770382Y651510I-2032J0D01*
G01*
X846582D02*
G03*
X846582Y651510I-2032J0D01*
G01*
X729742Y774700D02*
G03*
X729742Y774700I-2032J0D01*
G01*
Y698500D02*
G03*
X729742Y698500I-2032J0D01*
G01*
X663702Y844550D02*
G03*
X663702Y844550I-2032J0D01*
G01*
Y768350D02*
G03*
X663702Y768350I-2032J0D01*
G01*
X600202Y777240D02*
G03*
X600202Y777240I-2032J0D01*
G01*
Y701040D02*
G03*
X600202Y701040I-2032J0D01*
G01*
X490982Y608330D02*
G03*
X490982Y608330I-2032J0D01*
G01*
X567182D02*
G03*
X567182Y608330I-2032J0D01*
G01*
X631952Y410210D02*
G03*
X631952Y410210I-2032J0D01*
G01*
X555752D02*
G03*
X555752Y410210I-2032J0D01*
G01*
Y431800D02*
G03*
X555752Y431800I-2032J0D01*
G01*
X631952D02*
G03*
X631952Y431800I-2032J0D01*
G01*
X892302Y704850D02*
G03*
X892302Y704850I-2032J0D01*
G01*
X968502D02*
G03*
X968502Y704850I-2032J0D01*
G01*
X756412Y781050D02*
G03*
X756412Y781050I-2032J0D01*
G01*
X832612D02*
G03*
X832612Y781050I-2032J0D01*
G01*
X889762Y786130D02*
G03*
X889762Y786130I-2032J0D01*
G01*
X965962D02*
G03*
X965962Y786130I-2032J0D01*
G01*
X892302Y758190D02*
G03*
X892302Y758190I-2032J0D01*
G01*
X968502D02*
G03*
X968502Y758190I-2032J0D01*
G01*
X868172Y734060D02*
G03*
X868172Y734060I-2032J0D01*
G01*
X944372D02*
G03*
X944372Y734060I-2032J0D01*
G01*
X866902Y676910D02*
G03*
X866902Y676910I-2032J0D01*
G01*
X943102D02*
G03*
X943102Y676910I-2032J0D01*
G01*
X762762Y491490D02*
G03*
X762762Y491490I-2032J0D01*
G01*
X838962D02*
G03*
X838962Y491490I-2032J0D01*
G01*
X889762Y511810D02*
G03*
X889762Y511810I-2032J0D01*
G01*
X965962D02*
G03*
X965962Y511810I-2032J0D01*
G01*
X888492Y488950D02*
G03*
X888492Y488950I-2032J0D01*
G01*
X964692D02*
G03*
X964692Y488950I-2032J0D01*
G01*
X908812Y642620D02*
G03*
X908812Y642620I-2032J0D01*
G01*
Y566420D02*
G03*
X908812Y566420I-2032J0D01*
G01*
M02*
