G04 Layer_Color=65535*
%FSLAX44Y44*%
%MOMM*%
G71*
G01*
G75*
%ADD10C,0.2540*%
%ADD23C,0.2000*%
%ADD24C,0.2500*%
%ADD25C,0.6000*%
%ADD26C,0.1524*%
%ADD27C,0.1500*%
%ADD28C,0.3000*%
%ADD29C,0.0762*%
%ADD30R,0.8000X2.8000*%
D10*
X1115813Y605861D02*
G03*
X477855Y383889I-375493J51439D01*
G01*
Y383540D02*
X665480D01*
X721360Y439420D01*
X949960D01*
X1116107Y605567D01*
D23*
X800670Y842010D02*
G03*
X800670Y854710I0J6350D01*
G01*
X786700Y563880D02*
G03*
X786700Y576580I0J6350D01*
G01*
X590101Y870384D02*
G03*
X591530Y868030I20769J10996D01*
G01*
X630210D02*
G03*
X632165Y871441I-19340J13350D01*
G01*
X632163Y891323D02*
G03*
X590103Y892380I-21293J-9943D01*
G01*
X655490Y742390D02*
G03*
X668190Y742390I6350J0D01*
G01*
X848360Y459740D02*
Y467360D01*
Y459740D02*
X899160D01*
Y474980D01*
X848360D02*
X899160D01*
X848360Y467360D02*
Y474980D01*
X899160Y467360D02*
X901446D01*
X846074D02*
X848360D01*
X800670Y821860D02*
X903670D01*
X800670Y874860D02*
X903670D01*
X800670Y821860D02*
Y842010D01*
Y854710D02*
Y874860D01*
X903670Y821860D02*
Y874860D01*
X786700Y543730D02*
X889700D01*
X786700Y596730D02*
X889700D01*
X786700Y543730D02*
Y563880D01*
Y576580D02*
Y596730D01*
X889700Y543730D02*
Y596730D01*
X781050Y643890D02*
Y651510D01*
Y643890D02*
X831850D01*
Y659130D01*
X781050D02*
X831850D01*
X781050Y651510D02*
Y659130D01*
X831850Y651510D02*
X834136D01*
X778764D02*
X781050D01*
X720090Y762000D02*
X727710D01*
X720090Y711200D02*
Y762000D01*
Y711200D02*
X735330D01*
Y762000D01*
X727710D02*
X735330D01*
X727710Y708914D02*
Y711200D01*
Y762000D02*
Y764286D01*
X654050Y831850D02*
X661670D01*
X654050Y781050D02*
Y831850D01*
Y781050D02*
X669290D01*
Y831850D01*
X661670D02*
X669290D01*
X661670Y778764D02*
Y781050D01*
Y831850D02*
Y834136D01*
X590550Y764540D02*
X598170D01*
X590550Y713740D02*
Y764540D01*
Y713740D02*
X605790D01*
Y764540D01*
X598170D02*
X605790D01*
X598170Y711454D02*
Y713740D01*
Y764540D02*
Y766826D01*
X591530Y868030D02*
X630210D01*
X557700Y927070D02*
Y955070D01*
X610700D01*
X557700Y927070D02*
X610700D01*
X547370Y556260D02*
Y594360D01*
X433070Y556260D02*
X547370D01*
X433070D02*
Y594360D01*
X547370D01*
X499180Y446480D02*
X603180D01*
X499180D02*
Y492480D01*
X603180D01*
X603180Y446480D02*
Y492480D01*
X499180Y451480D02*
X603180D01*
X480060Y511810D02*
Y549910D01*
X594360D01*
Y511810D02*
Y549910D01*
X480060Y511810D02*
X594360D01*
X501650Y600710D02*
Y608330D01*
Y600710D02*
X552450D01*
Y615950D01*
X501650D02*
X552450D01*
X501650Y608330D02*
Y615950D01*
X552450Y608330D02*
X554736D01*
X499364D02*
X501650D01*
X635340Y545390D02*
X688340D01*
X668190Y742390D02*
X688340D01*
X635340D02*
X655490D01*
X688340Y545390D02*
Y742390D01*
X635340Y545390D02*
Y742390D01*
X675710Y860420D02*
X779710D01*
X779710Y855420D02*
Y901420D01*
X675710D02*
X779710D01*
X675710Y855420D02*
Y901420D01*
Y855420D02*
X779710D01*
X617220Y410210D02*
Y417830D01*
X566420D02*
X617220D01*
X566420Y402590D02*
Y417830D01*
Y402590D02*
X617220D01*
Y410210D01*
X564134D02*
X566420D01*
X617220D02*
X619506D01*
X566420Y424180D02*
Y431800D01*
Y424180D02*
X617220D01*
Y439420D01*
X566420D02*
X617220D01*
X566420Y431800D02*
Y439420D01*
X617220Y431800D02*
X619506D01*
X564134D02*
X566420D01*
X902970Y697230D02*
Y704850D01*
Y697230D02*
X953770D01*
Y712470D01*
X902970D02*
X953770D01*
X902970Y704850D02*
Y712470D01*
X953770Y704850D02*
X956056D01*
X900684D02*
X902970D01*
X767080Y773430D02*
Y781050D01*
Y773430D02*
X817880D01*
Y788670D01*
X767080D02*
X817880D01*
X767080Y781050D02*
Y788670D01*
X817880Y781050D02*
X820166D01*
X764794D02*
X767080D01*
X900430Y778510D02*
Y786130D01*
Y778510D02*
X951230D01*
Y793750D01*
X900430D02*
X951230D01*
X900430Y786130D02*
Y793750D01*
X951230Y786130D02*
X953516D01*
X898144D02*
X900430D01*
X902970Y750570D02*
Y758190D01*
Y750570D02*
X953770D01*
Y765810D01*
X902970D02*
X953770D01*
X902970Y758190D02*
Y765810D01*
X953770Y758190D02*
X956056D01*
X900684D02*
X902970D01*
X878840Y726440D02*
Y734060D01*
Y726440D02*
X929640D01*
Y741680D01*
X878840D02*
X929640D01*
X878840Y734060D02*
Y741680D01*
X929640Y734060D02*
X931926D01*
X876554D02*
X878840D01*
X877570Y669290D02*
Y676910D01*
Y669290D02*
X928370D01*
Y684530D01*
X877570D02*
X928370D01*
X877570Y676910D02*
Y684530D01*
X928370Y676910D02*
X930656D01*
X875284D02*
X877570D01*
X717550Y929640D02*
Y955040D01*
X666750Y929640D02*
X717550D01*
X666750D02*
Y955040D01*
X717550D01*
X984250Y773430D02*
X1009650D01*
Y646430D02*
Y773430D01*
X984250Y646430D02*
Y773430D01*
Y646430D02*
X1009650D01*
X773430Y483870D02*
Y491490D01*
Y483870D02*
X824230D01*
Y499110D01*
X773430D02*
X824230D01*
X773430Y491490D02*
Y499110D01*
X824230Y491490D02*
X826516D01*
X771144D02*
X773430D01*
X900430Y504190D02*
Y511810D01*
Y504190D02*
X951230D01*
Y519430D01*
X900430D02*
X951230D01*
X900430Y511810D02*
Y519430D01*
X951230Y511810D02*
X953516D01*
X898144D02*
X900430D01*
X899160Y481330D02*
Y488950D01*
Y481330D02*
X949960D01*
Y496570D01*
X899160D02*
X949960D01*
X899160Y488950D02*
Y496570D01*
X949960Y488950D02*
X952246D01*
X896874D02*
X899160D01*
Y629920D02*
X906780D01*
X899160Y579120D02*
Y629920D01*
Y579120D02*
X914400D01*
Y629920D01*
X906780D02*
X914400D01*
X906780Y576834D02*
Y579120D01*
Y629920D02*
Y632206D01*
D24*
X802320Y810260D02*
G03*
X802320Y810260I-1250J0D01*
G01*
X788350Y532130D02*
G03*
X788350Y532130I-1250J0D01*
G01*
X573620Y881380D02*
G03*
X573620Y881380I-1250J0D01*
G01*
X597930Y485980D02*
G03*
X597930Y485980I-1250J0D01*
G01*
X624990Y733090D02*
G03*
X624990Y733090I-1250J0D01*
G01*
X774460Y894920D02*
G03*
X774460Y894920I-1250J0D01*
G01*
D25*
X813670Y831860D02*
G03*
X813670Y831860I-3000J0D01*
G01*
X799700Y553730D02*
G03*
X799700Y553730I-3000J0D01*
G01*
X648340Y732390D02*
G03*
X648340Y732390I-3000J0D01*
G01*
D26*
X488950Y670762D02*
Y675438D01*
Y696162D02*
Y700838D01*
Y721562D02*
Y726238D01*
Y746962D02*
Y751638D01*
Y772362D02*
Y777038D01*
Y797762D02*
Y802438D01*
X567690Y823162D02*
Y837565D01*
Y797762D02*
Y802438D01*
Y772362D02*
Y777038D01*
Y746962D02*
Y751638D01*
Y721562D02*
Y726238D01*
Y696162D02*
Y700838D01*
Y670839D02*
Y675438D01*
Y635635D02*
Y649961D01*
X488950Y635635D02*
X567690D01*
X488950Y823162D02*
Y837565D01*
X567690D01*
X488950Y635635D02*
Y650038D01*
D27*
X478790Y651510D02*
X472126D01*
X468793Y654842D01*
X472126Y658175D01*
X478790D01*
X473792D01*
Y651510D01*
X478790Y661507D02*
X468793D01*
X478790Y668171D01*
X468793D01*
Y671504D02*
X478790D01*
Y676502D01*
X477124Y678168D01*
X470459D01*
X468793Y676502D01*
Y671504D01*
X779943Y821690D02*
X788274D01*
X789940Y823356D01*
Y826688D01*
X788274Y828354D01*
X779943D01*
X789940Y838351D02*
Y831687D01*
X783276Y838351D01*
X781609D01*
X779943Y836685D01*
Y833353D01*
X781609Y831687D01*
X765973Y544830D02*
X774304D01*
X775970Y546496D01*
Y549828D01*
X774304Y551494D01*
X765973D01*
X775970Y554827D02*
Y558159D01*
Y556493D01*
X765973D01*
X767639Y554827D01*
X740410Y753110D02*
X750407D01*
Y748112D01*
X748741Y746445D01*
X745408D01*
X743742Y748112D01*
Y753110D01*
Y749778D02*
X740410Y746445D01*
Y743113D02*
Y739781D01*
Y741447D01*
X750407D01*
X748741Y743113D01*
Y734783D02*
X750407Y733116D01*
Y729784D01*
X748741Y728118D01*
X747075D01*
X745408Y729784D01*
X743742Y728118D01*
X742076D01*
X740410Y729784D01*
Y733116D01*
X742076Y734783D01*
X743742D01*
X745408Y733116D01*
X747075Y734783D01*
X748741D01*
X745408Y733116D02*
Y729784D01*
X646260Y801370D02*
X636263D01*
Y806368D01*
X637929Y808035D01*
X641262D01*
X642928Y806368D01*
Y801370D01*
Y804702D02*
X646260Y808035D01*
Y811367D02*
Y814699D01*
Y813033D01*
X636263D01*
X637929Y811367D01*
X636263Y819697D02*
Y826362D01*
X637929D01*
X644594Y819697D01*
X646260D01*
X603250Y664210D02*
X593253D01*
Y669208D01*
X594919Y670874D01*
X598252D01*
X599918Y669208D01*
Y664210D01*
Y667542D02*
X603250Y670874D01*
Y674207D02*
Y677539D01*
Y675873D01*
X593253D01*
X594919Y674207D01*
X593253Y689202D02*
X594919Y685870D01*
X598252Y682537D01*
X601584D01*
X603250Y684204D01*
Y687536D01*
X601584Y689202D01*
X599918D01*
X598252Y687536D01*
Y682537D01*
X453390Y603250D02*
Y613247D01*
X458388D01*
X460055Y611581D01*
Y608248D01*
X458388Y606582D01*
X453390D01*
X456722D02*
X460055Y603250D01*
X463387D02*
X466719D01*
X465053D01*
Y613247D01*
X463387Y611581D01*
X478382Y613247D02*
X471717D01*
Y608248D01*
X475050Y609915D01*
X476716D01*
X478382Y608248D01*
Y604916D01*
X476716Y603250D01*
X473384D01*
X471717Y604916D01*
X852170Y782320D02*
Y792317D01*
X857168D01*
X858835Y790651D01*
Y787318D01*
X857168Y785652D01*
X852170D01*
X855502D02*
X858835Y782320D01*
X862167D02*
X865499D01*
X863833D01*
Y792317D01*
X862167Y790651D01*
X875496Y782320D02*
Y792317D01*
X870497Y787318D01*
X877162D01*
X854710Y754380D02*
Y764377D01*
X859708D01*
X861375Y762711D01*
Y759378D01*
X859708Y757712D01*
X854710D01*
X858042D02*
X861375Y754380D01*
X864707D02*
X868039D01*
X866373D01*
Y764377D01*
X864707Y762711D01*
X873037D02*
X874704Y764377D01*
X878036D01*
X879702Y762711D01*
Y761044D01*
X878036Y759378D01*
X876370D01*
X878036D01*
X879702Y757712D01*
Y756046D01*
X878036Y754380D01*
X874704D01*
X873037Y756046D01*
X830580Y730250D02*
Y740247D01*
X835578D01*
X837244Y738581D01*
Y735248D01*
X835578Y733582D01*
X830580D01*
X833912D02*
X837244Y730250D01*
X840577D02*
X843909D01*
X842243D01*
Y740247D01*
X840577Y738581D01*
X855572Y730250D02*
X848907D01*
X855572Y736915D01*
Y738581D01*
X853906Y740247D01*
X850574D01*
X848907Y738581D01*
X779780Y792480D02*
Y802477D01*
X784778D01*
X786444Y800811D01*
Y797478D01*
X784778Y795812D01*
X779780D01*
X783112D02*
X786444Y792480D01*
X789777D02*
X793109D01*
X791443D01*
Y802477D01*
X789777Y800811D01*
X798107Y792480D02*
X801440D01*
X799774D01*
Y802477D01*
X798107Y800811D01*
X611156Y858124D02*
Y851459D01*
X612822Y849793D01*
X616154D01*
X617820Y851459D01*
Y858124D01*
X616154Y859790D01*
X612822D01*
X614488Y856458D02*
X611156Y859790D01*
X612822D02*
X611156Y858124D01*
X607823Y859790D02*
X604491D01*
X606157D01*
Y849793D01*
X607823Y851459D01*
X667258Y962660D02*
Y972657D01*
X672256D01*
X673923Y970991D01*
Y967658D01*
X672256Y965992D01*
X667258D01*
X683919Y962660D02*
X677255D01*
X683919Y969324D01*
Y970991D01*
X682253Y972657D01*
X678921D01*
X677255Y970991D01*
X577850Y973927D02*
Y963930D01*
X582848D01*
X584515Y965596D01*
Y972261D01*
X582848Y973927D01*
X577850D01*
X587847Y963930D02*
X591179D01*
X589513D01*
Y973927D01*
X587847Y972261D01*
X617534Y539191D02*
X615868Y540857D01*
X612536D01*
X610870Y539191D01*
Y532526D01*
X612536Y530860D01*
X615868D01*
X617534Y532526D01*
X622533Y530860D02*
X625865D01*
X627531Y532526D01*
Y535858D01*
X625865Y537524D01*
X622533D01*
X620867Y535858D01*
Y532526D01*
X622533Y530860D01*
X630864D02*
Y537524D01*
X632530D01*
X634196Y535858D01*
Y530860D01*
Y535858D01*
X635862Y537524D01*
X637528Y535858D01*
Y530860D01*
X640860Y527528D02*
Y537524D01*
X645859D01*
X647525Y535858D01*
Y532526D01*
X645859Y530860D01*
X640860D01*
X652523Y537524D02*
X655855D01*
X657522Y535858D01*
Y530860D01*
X652523D01*
X650857Y532526D01*
X652523Y534192D01*
X657522D01*
X660854Y537524D02*
Y530860D01*
Y534192D01*
X662520Y535858D01*
X664186Y537524D01*
X665852D01*
X672517D02*
X675849D01*
X677515Y535858D01*
Y530860D01*
X672517D01*
X670851Y532526D01*
X672517Y534192D01*
X677515D01*
X682514Y539191D02*
Y537524D01*
X680847D01*
X684180D01*
X682514D01*
Y532526D01*
X684180Y530860D01*
X690844D02*
X694176D01*
X695843Y532526D01*
Y535858D01*
X694176Y537524D01*
X690844D01*
X689178Y535858D01*
Y532526D01*
X690844Y530860D01*
X699175Y537524D02*
Y530860D01*
Y534192D01*
X700841Y535858D01*
X702507Y537524D01*
X704173D01*
X709172Y530860D02*
X712504D01*
X710838D01*
Y540857D01*
X709172Y539191D01*
X419414Y574751D02*
X417748Y576417D01*
X414416D01*
X412750Y574751D01*
Y568086D01*
X414416Y566420D01*
X417748D01*
X419414Y568086D01*
X422747Y566420D02*
X426079D01*
X424413D01*
Y576417D01*
X422747Y574751D01*
X465135Y535381D02*
X463468Y537047D01*
X460136D01*
X458470Y535381D01*
Y528716D01*
X460136Y527050D01*
X463468D01*
X465135Y528716D01*
X475131Y527050D02*
X468467D01*
X475131Y533714D01*
Y535381D01*
X473465Y537047D01*
X470133D01*
X468467Y535381D01*
X984758Y781050D02*
Y791047D01*
X989756D01*
X991423Y789381D01*
Y786048D01*
X989756Y784382D01*
X984758D01*
X994755Y781050D02*
X998087D01*
X996421D01*
Y791047D01*
X994755Y789381D01*
X645160Y426720D02*
Y436717D01*
X650158D01*
X651824Y435051D01*
Y431718D01*
X650158Y430052D01*
X645160D01*
X648492D02*
X651824Y426720D01*
X655157D02*
X658489D01*
X656823D01*
Y436717D01*
X655157Y435051D01*
X641350Y405130D02*
Y415127D01*
X646348D01*
X648015Y413461D01*
Y410128D01*
X646348Y408462D01*
X641350D01*
X644682D02*
X648015Y405130D01*
X658011D02*
X651347D01*
X658011Y411795D01*
Y413461D01*
X656345Y415127D01*
X653013D01*
X651347Y413461D01*
X731520Y486410D02*
Y496407D01*
X736518D01*
X738185Y494741D01*
Y491408D01*
X736518Y489742D01*
X731520D01*
X734852D02*
X738185Y486410D01*
X741517Y494741D02*
X743183Y496407D01*
X746515D01*
X748181Y494741D01*
Y493074D01*
X746515Y491408D01*
X744849D01*
X746515D01*
X748181Y489742D01*
Y488076D01*
X746515Y486410D01*
X743183D01*
X741517Y488076D01*
X810260Y462280D02*
Y472277D01*
X815258D01*
X816925Y470611D01*
Y467278D01*
X815258Y465612D01*
X810260D01*
X813592D02*
X816925Y462280D01*
X825255D02*
Y472277D01*
X820257Y467278D01*
X826921D01*
X974090Y508000D02*
Y517997D01*
X979088D01*
X980754Y516331D01*
Y512998D01*
X979088Y511332D01*
X974090D01*
X977422D02*
X980754Y508000D01*
X990751Y517997D02*
X984087D01*
Y512998D01*
X987419Y514664D01*
X989085D01*
X990751Y512998D01*
Y509666D01*
X989085Y508000D01*
X985753D01*
X984087Y509666D01*
X858520Y483870D02*
Y493867D01*
X863518D01*
X865184Y492201D01*
Y488868D01*
X863518Y487202D01*
X858520D01*
X861852D02*
X865184Y483870D01*
X875181Y493867D02*
X871849Y492201D01*
X868517Y488868D01*
Y485536D01*
X870183Y483870D01*
X873515D01*
X875181Y485536D01*
Y487202D01*
X873515Y488868D01*
X868517D01*
X796290Y662940D02*
Y672937D01*
X801288D01*
X802954Y671271D01*
Y667938D01*
X801288Y666272D01*
X796290D01*
X799622D02*
X802954Y662940D01*
X806287Y672937D02*
X812951D01*
Y671271D01*
X806287Y664606D01*
Y662940D01*
X836930Y671830D02*
Y681827D01*
X841928D01*
X843595Y680161D01*
Y676828D01*
X841928Y675162D01*
X836930D01*
X840262D02*
X843595Y671830D01*
X846927Y680161D02*
X848593Y681827D01*
X851925D01*
X853591Y680161D01*
Y678494D01*
X851925Y676828D01*
X853591Y675162D01*
Y673496D01*
X851925Y671830D01*
X848593D01*
X846927Y673496D01*
Y675162D01*
X848593Y676828D01*
X846927Y678494D01*
Y680161D01*
X848593Y676828D02*
X851925D01*
X862330Y699770D02*
Y709767D01*
X867328D01*
X868995Y708101D01*
Y704768D01*
X867328Y703102D01*
X862330D01*
X865662D02*
X868995Y699770D01*
X872327Y701436D02*
X873993Y699770D01*
X877325D01*
X878991Y701436D01*
Y708101D01*
X877325Y709767D01*
X873993D01*
X872327Y708101D01*
Y706434D01*
X873993Y704768D01*
X878991D01*
X920750Y621030D02*
X930747D01*
Y616032D01*
X929081Y614366D01*
X925748D01*
X924082Y616032D01*
Y621030D01*
Y617698D02*
X920750Y614366D01*
Y611033D02*
Y607701D01*
Y609367D01*
X930747D01*
X929081Y611033D01*
Y602703D02*
X930747Y601036D01*
Y597704D01*
X929081Y596038D01*
X922416D01*
X920750Y597704D01*
Y601036D01*
X922416Y602703D01*
X929081D01*
X708975Y849467D02*
X702310D01*
Y844468D01*
X705642Y846134D01*
X707308D01*
X708975Y844468D01*
Y841136D01*
X707308Y839470D01*
X703976D01*
X702310Y841136D01*
X712307Y849467D02*
Y842802D01*
X715639Y839470D01*
X718971Y842802D01*
Y849467D01*
X732300Y839470D02*
Y849467D01*
X737299D01*
X738965Y847801D01*
Y844468D01*
X737299Y842802D01*
X732300D01*
X735633D02*
X738965Y839470D01*
X747296D02*
X743963D01*
X742297Y841136D01*
Y844468D01*
X743963Y846134D01*
X747296D01*
X748962Y844468D01*
Y842802D01*
X742297D01*
X755626Y836138D02*
X757292D01*
X758958Y837804D01*
Y846134D01*
X753960D01*
X752294Y844468D01*
Y841136D01*
X753960Y839470D01*
X758958D01*
X518160Y500380D02*
Y507044D01*
X521492Y510377D01*
X524824Y507044D01*
Y500380D01*
Y505378D01*
X518160D01*
X534821Y510377D02*
Y500380D01*
X529823D01*
X528157Y502046D01*
Y505378D01*
X529823Y507044D01*
X534821D01*
X538153Y497048D02*
X539820D01*
X541486Y498714D01*
Y507044D01*
X558147Y500380D02*
Y510377D01*
X563145D01*
X564812Y508711D01*
Y505378D01*
X563145Y503712D01*
X558147D01*
X561479D02*
X564812Y500380D01*
X573142D02*
X569810D01*
X568144Y502046D01*
Y505378D01*
X569810Y507044D01*
X573142D01*
X574808Y505378D01*
Y503712D01*
X568144D01*
X581473Y497048D02*
X583139D01*
X584805Y498714D01*
Y507044D01*
X579807D01*
X578141Y505378D01*
Y502046D01*
X579807Y500380D01*
X584805D01*
D28*
X891696Y934564D02*
X907247Y950116D01*
X891696D01*
X902063Y939748D01*
X922798Y929381D02*
Y934564D01*
X917615Y939748D01*
X912431D01*
X909839Y937156D01*
Y931973D01*
X915023Y926789D01*
Y921605D01*
X912431Y919013D01*
X907247D01*
X902063Y924197D01*
Y929381D01*
X912431Y908645D02*
X922798Y898278D01*
X930574Y895686D02*
X946125Y911237D01*
Y900870D01*
X956493Y900870D01*
X940941Y885319D01*
X948717Y877543D02*
X953901Y872359D01*
X959085D01*
X964268Y877543D01*
Y882727D01*
X959085Y887910D01*
X953901D01*
X948717Y882727D01*
Y877543D01*
X961677Y864583D02*
X972044Y874951D01*
X979820Y867175D01*
Y861992D01*
X972044Y854216D01*
X977228Y849032D02*
X982412Y843848D01*
X979820Y846440D01*
X990187Y856808D01*
X987596Y859400D01*
X1005739Y846440D02*
X1003147Y843848D01*
X1000555Y846440D01*
X1005739Y841256D01*
X1003147Y843848D01*
X995371Y836073D01*
X995371Y830889D01*
X1005739Y820521D02*
X1010922Y815338D01*
X1016106D01*
X1021290Y820521D01*
Y825705D01*
X1016106Y830889D01*
X1010922D01*
X1005739Y825705D01*
Y820521D01*
X1029066Y817929D02*
X1018698Y807562D01*
X1023882Y812746D01*
X1029066D01*
X1034249Y812746D01*
X1036841Y810154D01*
D29*
X569595Y641438D02*
X561131Y649902D01*
X569595D02*
X561131Y641438D01*
X569595Y645670D02*
X561131D01*
X565363Y649902D02*
Y641438D01*
D30*
X607700Y941066D02*
D03*
M02*
