G04 Layer_Color=128*
%FSLAX44Y44*%
%MOMM*%
G71*
G01*
G75*
%ADD41C,0.0508*%
D41*
X485648Y660400D02*
X494792D01*
X490220Y655828D02*
Y664972D01*
X485648Y685800D02*
X494792D01*
X490220Y681228D02*
Y690372D01*
X485648Y711200D02*
X494792D01*
X490220Y706628D02*
Y715772D01*
X485648Y736600D02*
X494792D01*
X490220Y732028D02*
Y741172D01*
X485648Y762000D02*
X494792D01*
X490220Y757428D02*
Y766572D01*
X485648Y787400D02*
X494792D01*
X490220Y782828D02*
Y791972D01*
X485648Y812800D02*
X494792D01*
X490220Y808228D02*
Y817372D01*
X561848Y812800D02*
X570992D01*
X566420Y808228D02*
Y817372D01*
X561848Y787400D02*
X570992D01*
X566420Y782828D02*
Y791972D01*
X561848Y762000D02*
X570992D01*
X566420Y757428D02*
Y766572D01*
X561848Y736600D02*
X570992D01*
X566420Y732028D02*
Y741172D01*
X561848Y711200D02*
X570992D01*
X566420Y706628D02*
Y715772D01*
X561848Y685800D02*
X570992D01*
X566420Y681228D02*
Y690372D01*
X561848Y660400D02*
X570992D01*
X566420Y655828D02*
Y664972D01*
X831410Y467360D02*
X839910D01*
X835660Y463110D02*
Y471610D01*
X907610Y467360D02*
X916110D01*
X911860Y463110D02*
Y471610D01*
X809570Y810260D02*
X818570D01*
X814070Y805760D02*
Y814760D01*
X834970Y810260D02*
X843970D01*
X839470Y805760D02*
Y814760D01*
X860370Y810260D02*
X869370D01*
X864870Y805760D02*
Y814760D01*
X885770Y810260D02*
X894770D01*
X890270Y805760D02*
Y814760D01*
X809570Y886460D02*
X818570D01*
X814070Y881960D02*
Y890960D01*
X834970Y886460D02*
X843970D01*
X839470Y881960D02*
Y890960D01*
X860370Y886460D02*
X869370D01*
X864870Y881960D02*
Y890960D01*
X885770Y886460D02*
X894770D01*
X890270Y881960D02*
Y890960D01*
X795600Y532130D02*
X804600D01*
X800100Y527630D02*
Y536630D01*
X821000Y532130D02*
X830000D01*
X825500Y527630D02*
Y536630D01*
X846400Y532130D02*
X855400D01*
X850900Y527630D02*
Y536630D01*
X871800Y532130D02*
X880800D01*
X876300Y527630D02*
Y536630D01*
X795600Y608330D02*
X804600D01*
X800100Y603830D02*
Y612830D01*
X821000Y608330D02*
X830000D01*
X825500Y603830D02*
Y612830D01*
X846400Y608330D02*
X855400D01*
X850900Y603830D02*
Y612830D01*
X871800Y608330D02*
X880800D01*
X876300Y603830D02*
Y612830D01*
X764100Y651510D02*
X772600D01*
X768350Y647260D02*
Y655760D01*
X840300Y651510D02*
X848800D01*
X844550Y647260D02*
Y655760D01*
X723460Y774700D02*
X731960D01*
X727710Y770450D02*
Y778950D01*
X723460Y698500D02*
X731960D01*
X727710Y694250D02*
Y702750D01*
X657420Y844550D02*
X665920D01*
X661670Y840300D02*
Y848800D01*
X657420Y768350D02*
X665920D01*
X661670Y764100D02*
Y772600D01*
X593920Y777240D02*
X602420D01*
X598170Y772990D02*
Y781490D01*
X593920Y701040D02*
X602420D01*
X598170Y696790D02*
Y705290D01*
X580370Y881380D02*
X589370D01*
X584870Y876880D02*
Y885880D01*
X632370Y881380D02*
X641370D01*
X636870Y876880D02*
Y885880D01*
X606370Y881380D02*
X615370D01*
X610870Y876880D02*
Y885880D01*
X525900Y941070D02*
X537900D01*
X531900Y935070D02*
Y947070D01*
X630500Y941070D02*
X642500D01*
X636500Y935070D02*
Y947070D01*
X524820Y575310D02*
X531820D01*
X528320Y571810D02*
Y578810D01*
X448620Y575310D02*
X455620D01*
X452120Y571810D02*
Y578810D01*
X571080Y474980D02*
X582080D01*
X576580Y469480D02*
Y480480D01*
X545680Y474980D02*
X556680D01*
X551180Y469480D02*
Y480480D01*
X520280Y474980D02*
X531280D01*
X525780Y469480D02*
Y480480D01*
X495610Y530860D02*
X502610D01*
X499110Y527360D02*
Y534360D01*
X571810Y530860D02*
X578810D01*
X575310Y527360D02*
Y534360D01*
X484700Y608330D02*
X493200D01*
X488950Y604080D02*
Y612580D01*
X560900Y608330D02*
X569400D01*
X565150Y604080D02*
Y612580D01*
X695440Y567690D02*
X704440D01*
X699940Y563190D02*
Y572190D01*
X695440Y593090D02*
X704440D01*
X699940Y588590D02*
Y597590D01*
X695440Y618490D02*
X704440D01*
X699940Y613990D02*
Y622990D01*
X695440Y643890D02*
X704440D01*
X699940Y639390D02*
Y648390D01*
X695440Y669290D02*
X704440D01*
X699940Y664790D02*
Y673790D01*
X695440Y694690D02*
X704440D01*
X699940Y690190D02*
Y699190D01*
X695440Y720090D02*
X704440D01*
X699940Y715590D02*
Y724590D01*
X619240Y567690D02*
X628240D01*
X623740Y563190D02*
Y572190D01*
X619240Y593090D02*
X628240D01*
X623740Y588590D02*
Y597590D01*
X619240Y618490D02*
X628240D01*
X623740Y613990D02*
Y622990D01*
X619240Y643890D02*
X628240D01*
X623740Y639390D02*
Y648390D01*
X619240Y669290D02*
X628240D01*
X623740Y664790D02*
Y673790D01*
X619240Y694690D02*
X628240D01*
X623740Y690190D02*
Y699190D01*
X619240Y720090D02*
X628240D01*
X623740Y715590D02*
Y724590D01*
X696810Y883920D02*
X707810D01*
X702310Y878420D02*
Y889420D01*
X722210Y883920D02*
X733210D01*
X727710Y878420D02*
Y889420D01*
X747610Y883920D02*
X758610D01*
X753110Y878420D02*
Y889420D01*
X625670Y410210D02*
X634170D01*
X629920Y405960D02*
Y414460D01*
X549470Y410210D02*
X557970D01*
X553720Y405960D02*
Y414460D01*
X549470Y431800D02*
X557970D01*
X553720Y427550D02*
Y436050D01*
X625670Y431800D02*
X634170D01*
X629920Y427550D02*
Y436050D01*
X886020Y704850D02*
X894520D01*
X890270Y700600D02*
Y709100D01*
X962220Y704850D02*
X970720D01*
X966470Y700600D02*
Y709100D01*
X750130Y781050D02*
X758630D01*
X754380Y776800D02*
Y785300D01*
X826330Y781050D02*
X834830D01*
X830580Y776800D02*
Y785300D01*
X883480Y786130D02*
X891980D01*
X887730Y781880D02*
Y790380D01*
X959680Y786130D02*
X968180D01*
X963930Y781880D02*
Y790380D01*
X886020Y758190D02*
X894520D01*
X890270Y753940D02*
Y762440D01*
X962220Y758190D02*
X970720D01*
X966470Y753940D02*
Y762440D01*
X861890Y734060D02*
X870390D01*
X866140Y729810D02*
Y738310D01*
X938090Y734060D02*
X946590D01*
X942340Y729810D02*
Y738310D01*
X860620Y676910D02*
X869120D01*
X864870Y672660D02*
Y681160D01*
X936820Y676910D02*
X945320D01*
X941070Y672660D02*
Y681160D01*
X674950Y942340D02*
X683950D01*
X679450Y937840D02*
Y946840D01*
X700350Y942340D02*
X709350D01*
X704850Y937840D02*
Y946840D01*
X992450Y659130D02*
X1001450D01*
X996950Y654630D02*
Y663630D01*
X992450Y684530D02*
X1001450D01*
X996950Y680030D02*
Y689030D01*
X992450Y709930D02*
X1001450D01*
X996950Y705430D02*
Y714430D01*
X992450Y735330D02*
X1001450D01*
X996950Y730830D02*
Y739830D01*
X992450Y760730D02*
X1001450D01*
X996950Y756230D02*
Y765230D01*
X756480Y491490D02*
X764980D01*
X760730Y487240D02*
Y495740D01*
X832680Y491490D02*
X841180D01*
X836930Y487240D02*
Y495740D01*
X883480Y511810D02*
X891980D01*
X887730Y507560D02*
Y516060D01*
X959680Y511810D02*
X968180D01*
X963930Y507560D02*
Y516060D01*
X882210Y488950D02*
X890710D01*
X886460Y484700D02*
Y493200D01*
X958410Y488950D02*
X966910D01*
X962660Y484700D02*
Y493200D01*
X902530Y642620D02*
X911030D01*
X906780Y638370D02*
Y646870D01*
X902530Y566420D02*
X911030D01*
X906780Y562170D02*
Y570670D01*
M02*
